<?xml version="1.0" encoding="utf-8"?>
<!-- Generator: Adobe Illustrator 17.0.0, SVG Export Plug-In . SVG Version: 6.00 Build 0)  -->
<!DOCTYPE svg PUBLIC "-//W3C//DTD SVG 1.1//EN" "http://www.w3.org/Graphics/SVG/1.1/DTD/svg11.dtd">
<svg version="1.1" id="Calque_1" xmlns="http://www.w3.org/2000/svg" xmlns:xlink="http://www.w3.org/1999/xlink" x="0px" y="0px"
	 width="590px" height="590px" viewBox="0 0 590 590" enable-background="new 0 0 590 590" xml:space="preserve">
<g id="Layer_7" display="none">
	<circle display="inline" fill="#C3E4F8" cx="295.788" cy="296.129" r="286.41"/>
</g>
<g id="Laptop">
	<path fill="#A7A9AB" d="M440.068,579.328H146.495c-2.143,0-3.881-1.738-3.881-3.881V386.005c0-2.143,1.738-3.881,3.881-3.881
		h293.573c2.143,0,3.881,1.738,3.881,3.881v189.442C443.949,577.59,442.211,579.328,440.068,579.328z"/>
	<path fill="#6E7072" d="M148.283,382.124c-2.774,0-5.022,2.249-5.022,5.022v187.16c0,2.774,2.249,5.022,5.022,5.022h76.222
		l211.854-197.204L148.283,382.124L148.283,382.124z"/>
	
		<radialGradient id="SVGID_1_" cx="-1946.0486" cy="546.9271" r="184.6773" gradientTransform="matrix(1 0 0 1 2239.3301 -251.5701)" gradientUnits="userSpaceOnUse">
		<stop  offset="0" style="stop-color:#FFFFFF"/>
		<stop  offset="0.3148" style="stop-color:#FEFFFF"/>
		<stop  offset="0.4653" style="stop-color:#F8FCFE"/>
		<stop  offset="0.5809" style="stop-color:#ECF5FD"/>
		<stop  offset="0.6786" style="stop-color:#DEECFA"/>
		<stop  offset="0.7651" style="stop-color:#C8E1F5"/>
		<stop  offset="0.8437" style="stop-color:#AAD1F1"/>
		<stop  offset="0.9164" style="stop-color:#84C2EB"/>
		<stop  offset="0.9823" style="stop-color:#49AFE4"/>
		<stop  offset="1" style="stop-color:#30A9E1"/>
	</radialGradient>
	
		<rect x="146.461" y="213.413" fill="url(#SVGID_1_)" stroke="#6E7072" stroke-width="6" stroke-linejoin="round" stroke-miterlimit="10" width="293.641" height="163.888"/>
	<g>
		<g>
			<rect x="407.506" y="399.282" fill="#FFFFFF" width="18.921" height="12.94"/>
		</g>
		<g>
			<rect x="382.919" y="399.282" fill="#FFFFFF" width="18.921" height="12.94"/>
		</g>
		<g>
			<rect x="358.333" y="399.282" fill="#FFFFFF" width="18.921" height="12.94"/>
		</g>
		<g>
			<rect x="333.746" y="399.282" fill="#FFFFFF" width="18.921" height="12.94"/>
		</g>
		<g>
			<rect x="309.16" y="399.282" fill="#FFFFFF" width="18.921" height="12.94"/>
		</g>
		<g>
			<rect x="284.574" y="399.282" fill="#FFFFFF" width="18.921" height="12.94"/>
		</g>
		<g>
			<rect x="259.987" y="399.282" fill="#FFFFFF" width="18.921" height="12.94"/>
		</g>
		<g>
			<rect x="235.401" y="399.282" fill="#FFFFFF" width="18.921" height="12.94"/>
		</g>
		<g>
			<rect x="210.814" y="399.282" fill="#FFFFFF" width="18.921" height="12.94"/>
		</g>
		<g>
			<rect x="186.228" y="399.282" fill="#FFFFFF" width="18.921" height="12.94"/>
		</g>
		<g>
			<rect x="161.641" y="399.282" fill="#FFFFFF" width="18.921" height="12.94"/>
		</g>
	</g>
	<g>
		<rect x="407.506" y="493.745" fill="#FFFFFF" width="18.921" height="16.822"/>
	</g>
	<g>
		<rect x="382.919" y="493.745" fill="#FFFFFF" width="18.921" height="16.822"/>
	</g>
	<g>
		<rect x="358.333" y="493.745" fill="#FFFFFF" width="18.921" height="16.822"/>
	</g>
	<g>
		<rect x="333.746" y="493.745" fill="#FFFFFF" width="18.921" height="16.822"/>
	</g>
	<g>
		<rect x="309.16" y="493.745" fill="#FFFFFF" width="18.921" height="16.822"/>
	</g>
	<g>
		<rect x="284.574" y="493.745" fill="#FFFFFF" width="18.921" height="16.822"/>
	</g>
	<g>
		<rect x="259.987" y="493.745" fill="#FFFFFF" width="18.921" height="16.822"/>
	</g>
	<g>
		<rect x="235.401" y="493.745" fill="#FFFFFF" width="108.208" height="16.822"/>
	</g>
	<g>
		<rect x="210.814" y="493.745" fill="#FFFFFF" width="18.921" height="16.822"/>
	</g>
	<g>
		<rect x="186.228" y="493.745" fill="#FFFFFF" width="18.921" height="16.822"/>
	</g>
	<g>
		<rect x="161.641" y="493.745" fill="#FFFFFF" width="18.921" height="16.822"/>
	</g>
	<g>
		<rect x="407.506" y="469.159" fill="#FFFFFF" width="18.921" height="16.822"/>
	</g>
	<g>
		<rect x="398.448" y="469.159" fill="#FFFFFF" width="25.391" height="16.822"/>
	</g>
	<g>
		<rect x="373.861" y="469.159" fill="#FFFFFF" width="18.921" height="16.822"/>
	</g>
	<g>
		<rect x="349.275" y="469.159" fill="#FFFFFF" width="18.921" height="16.822"/>
	</g>
	<g>
		<rect x="324.688" y="469.159" fill="#FFFFFF" width="18.921" height="16.822"/>
	</g>
	<g>
		<rect x="300.102" y="469.159" fill="#FFFFFF" width="18.921" height="16.822"/>
	</g>
	<g>
		<rect x="275.515" y="469.159" fill="#FFFFFF" width="18.921" height="16.822"/>
	</g>
	<g>
		<rect x="250.929" y="469.159" fill="#FFFFFF" width="18.921" height="16.822"/>
	</g>
	<g>
		<rect x="226.343" y="469.159" fill="#FFFFFF" width="18.921" height="16.822"/>
	</g>
	<g>
		<rect x="201.756" y="469.159" fill="#FFFFFF" width="18.921" height="16.822"/>
	</g>
	<g>
		<rect x="161.641" y="469.159" fill="#FFFFFF" width="34.449" height="16.822"/>
	</g>
	<g>
		<rect x="385.076" y="444.572" fill="#FFFFFF" width="41.35" height="16.822"/>
	</g>
	<g>
		<rect x="246.184" y="517.9" fill="#FFFFFF" width="96.562" height="53.055"/>
	</g>
	<g>
		<rect x="359.627" y="444.572" fill="#FFFFFF" width="18.921" height="16.822"/>
	</g>
	<g>
		<rect x="335.04" y="444.572" fill="#FFFFFF" width="18.921" height="16.822"/>
	</g>
	<g>
		<rect x="310.454" y="444.572" fill="#FFFFFF" width="18.921" height="16.822"/>
	</g>
	<g>
		<rect x="285.868" y="444.572" fill="#FFFFFF" width="18.921" height="16.822"/>
	</g>
	<g>
		<rect x="261.281" y="444.572" fill="#FFFFFF" width="18.921" height="16.822"/>
	</g>
	<g>
		<rect x="236.695" y="444.572" fill="#FFFFFF" width="18.921" height="16.822"/>
	</g>
	<g>
		<rect x="212.108" y="444.572" fill="#FFFFFF" width="18.921" height="16.822"/>
	</g>
	<g>
		<rect x="187.522" y="444.572" fill="#FFFFFF" width="18.921" height="16.822"/>
	</g>
	<g>
		<rect x="161.641" y="444.572" fill="#FFFFFF" width="18.921" height="16.822"/>
	</g>
	<g>
		<rect x="407.506" y="419.986" fill="#FFFFFF" width="18.921" height="16.822"/>
	</g>
	<g>
		<rect x="394.565" y="419.986" fill="#FFFFFF" width="26.253" height="16.822"/>
	</g>
	<g>
		<rect x="369.979" y="419.986" fill="#FFFFFF" width="18.921" height="16.822"/>
	</g>
	<g>
		<rect x="345.393" y="419.986" fill="#FFFFFF" width="18.921" height="16.822"/>
	</g>
	<g>
		<rect x="320.806" y="419.986" fill="#FFFFFF" width="18.921" height="16.822"/>
	</g>
	<g>
		<rect x="296.22" y="419.986" fill="#FFFFFF" width="18.921" height="16.822"/>
	</g>
	<g>
		<rect x="271.633" y="419.986" fill="#FFFFFF" width="18.921" height="16.822"/>
	</g>
	<g>
		<rect x="247.047" y="419.986" fill="#FFFFFF" width="18.921" height="16.822"/>
	</g>
	<g>
		<rect x="222.461" y="419.986" fill="#FFFFFF" width="18.921" height="16.822"/>
	</g>
	<g>
		<rect x="197.874" y="419.986" fill="#FFFFFF" width="18.921" height="16.822"/>
	</g>
	<g>
		<rect x="161.641" y="419.986" fill="#FFFFFF" width="30.567" height="16.822"/>
	</g>
</g>
<g id="Mouse">
	<path fill="#A7A9AB" d="M492.745,454.334c-0.056,0-0.111,0.004-0.167,0.004v88.049c0.056,0,0.111,0.004,0.167,0.004
		c14.829,0,26.851-12.022,26.851-26.851v-34.356C519.596,466.355,507.574,454.334,492.745,454.334z"/>
	<path fill="#6E7072" d="M492.745,454.334c0.056,0,0.111,0.004,0.167,0.004v88.049c-0.056,0-0.111,0.004-0.167,0.004
		c-14.829,0-26.851-12.022-26.851-26.851v-34.356C465.894,466.355,477.916,454.334,492.745,454.334z"/>
	<circle fill="#FFFFFF" cx="492.912" cy="472.512" r="9.339"/>
</g>
<g id="Document">
	<g>
		<path opacity="0.12" fill="#010202" enable-background="new    " d="M383.281,87.832l-161.99-0.151
			c-7.6-0.007-13.825,6.206-13.831,13.806l-0.205,218.796c-0.007,7.6,6.206,13.825,13.806,13.831l161.99,0.151
			c7.6,0.007,13.825-6.206,13.832-13.806l0.205-218.796C397.093,94.063,390.881,87.84,383.281,87.832z"/>
		<path fill="#FFFFFF" d="M393.808,324.103l-165.628-0.155c-6.6-0.007-11.995-5.412-11.988-12.012L216.4,89.503
			c0.007-6.6,5.412-11.995,12.012-11.988l165.628,0.155c6.6,0.007,11.995,5.412,11.988,12.012l-0.208,222.434
			C405.813,318.715,400.408,324.11,393.808,324.103z"/>
		<rect x="366.058" y="138.648" fill="#F39425" width="13.511" height="7.684"/>
		<rect x="343.538" y="138.63" fill="#F39425" width="20.033" height="7.684"/>
		<polygon fill="#F39425" points="267.133,179.728 265.274,179.727 257.803,179.72 257.795,187.404 265.266,187.411 
			267.125,187.412 283.104,187.427 283.112,179.744 		"/>
		<polygon fill="#E84239" points="330.246,199.546 326.302,199.542 323.528,199.54 313.584,199.531 297.589,199.516 297.581,207.2 
			313.576,207.215 323.52,207.224 326.294,207.226 330.238,207.23 335.624,207.235 335.632,199.551 		"/>
		<rect x="244.041" y="243.644" fill="#F39425" width="13.447" height="7.684"/>
		<rect x="300.335" y="257.141" fill="#F39425" width="13.172" height="7.684"/>
		<polygon fill="#E84239" points="347.7,301.649 340.627,301.642 337.608,301.64 324.436,301.627 313.122,301.617 313.115,309.301 
			324.428,309.311 337.6,309.324 340.619,309.326 347.692,309.333 353.792,309.338 353.799,301.654 		"/>
		<g>
			<rect x="232.038" y="92.976" fill="#1AA3DE" width="20.033" height="7.684"/>
			<rect x="343.477" y="93.078" fill="#1AA3DE" width="22.503" height="7.684"/>
			<rect x="304.323" y="93.039" fill="#1AA3DE" width="13.172" height="7.684"/>
			<rect x="331.889" y="93.061" fill="#1AA3DE" width="9.33" height="7.684"/>
			<rect x="293.01" y="93.027" fill="#1AA3DE" width="9.33" height="7.684"/>
			<rect x="368.322" y="93.101" fill="#1AA3DE" width="23.981" height="7.684"/>
			<rect x="319.995" y="93.051" fill="#1AA3DE" width="9.943" height="7.684"/>
			<rect x="254.603" y="92.994" fill="#1AA3DE" width="13.447" height="7.684"/>
			<rect x="270.308" y="93.011" fill="#1AA3DE" width="20.033" height="7.684"/>
			<rect x="308.614" y="106.493" fill="#1AA3DE" width="22.503" height="7.684"/>
			<rect x="334.074" y="106.51" fill="#1AA3DE" width="9.33" height="7.684"/>
			<rect x="346.236" y="106.52" fill="#1AA3DE" width="9.33" height="7.684"/>
			<polygon fill="#1AA3DE" points="372.367,106.555 368.309,106.551 359.195,106.543 359.188,114.227 368.302,114.235 
				372.361,114.239 392.283,114.257 392.29,106.574 			"/>
			<rect x="292.541" y="106.474" fill="#1AA3DE" width="13.511" height="7.684"/>
			<polygon fill="#1AA3DE" points="261.938,106.452 254.316,106.445 232.026,106.424 232.019,114.108 254.309,114.129 
				261.931,114.136 267.756,114.141 267.763,106.457 			"/>
			<rect x="270.022" y="106.457" fill="#1AA3DE" width="20.033" height="7.684"/>
			<rect x="266.615" y="119.627" fill="#1AA3DE" width="22.503" height="7.684"/>
			<rect x="255.027" y="119.612" fill="#1AA3DE" width="9.33" height="7.684"/>
			<rect x="232.015" y="119.596" fill="#1AA3DE" width="20.033" height="7.684"/>
			<rect x="272.024" y="138.562" fill="#1AA3DE" width="9.33" height="7.684"/>
			<rect x="311.904" y="138.6" fill="#1AA3DE" width="12.898" height="7.684"/>
			<rect x="284.581" y="138.58" fill="#1AA3DE" width="23.981" height="7.684"/>
			<rect x="255.19" y="138.55" fill="#1AA3DE" width="13.511" height="7.684"/>
			<rect x="231.997" y="138.532" fill="#1AA3DE" width="20.033" height="7.684"/>
			<rect x="327.834" y="138.614" fill="#1AA3DE" width="13.447" height="7.684"/>
			<rect x="382.931" y="138.661" fill="#1AA3DE" width="9.33" height="7.684"/>
			<rect x="314.822" y="152.322" fill="#1AA3DE" width="9.33" height="7.684"/>
			<rect x="302.105" y="152.311" fill="#1AA3DE" width="9.943" height="7.684"/>
			<rect x="231.986" y="152.25" fill="#1AA3DE" width="13.996" height="7.684"/>
			<rect x="379.078" y="152.381" fill="#1AA3DE" width="13.172" height="7.684"/>
			<polygon fill="#1AA3DE" points="292.866,152.31 286.43,152.304 283.624,152.302 274.293,152.293 261.856,152.281 
				261.849,159.965 274.286,159.977 283.617,159.985 286.423,159.988 292.859,159.994 299.596,160.001 299.602,152.317 			"/>
			<rect x="367.326" y="152.368" fill="#1AA3DE" width="9.33" height="7.684"/>
			<rect x="249.141" y="152.263" fill="#1AA3DE" width="9.943" height="7.684"/>
			<rect x="326.45" y="152.334" fill="#1AA3DE" width="13.447" height="7.684"/>
			<rect x="355.163" y="152.358" fill="#1AA3DE" width="9.33" height="7.684"/>
			<rect x="342.445" y="152.346" fill="#1AA3DE" width="9.943" height="7.684"/>
			<rect x="244.433" y="165.707" fill="#1AA3DE" width="13.172" height="7.684"/>
			<rect x="272.823" y="165.73" fill="#1AA3DE" width="9.33" height="7.684"/>
			<rect x="231.973" y="165.695" fill="#1AA3DE" width="9.33" height="7.684"/>
			<rect x="260.105" y="165.72" fill="#1AA3DE" width="9.943" height="7.684"/>
			<rect x="336.64" y="165.789" fill="#1AA3DE" width="13.172" height="7.684"/>
			<rect x="284.451" y="165.743" fill="#1AA3DE" width="13.447" height="7.684"/>
			<polygon fill="#1AA3DE" points="322.491,165.785 313.161,165.776 310.387,165.773 308.859,165.772 300.443,165.764 
				300.436,173.448 308.851,173.456 310.379,173.457 313.153,173.46 322.484,173.469 334.647,173.48 334.655,165.796 			"/>
			<rect x="352.831" y="166.079" fill="#1AA3DE" width="13.172" height="7.684"/>
			<rect x="381.809" y="166.104" fill="#1AA3DE" width="10.428" height="7.684"/>
			<rect x="368.503" y="166.091" fill="#1AA3DE" width="9.943" height="7.684"/>
			<rect x="298.333" y="179.749" fill="#1AA3DE" width="9.33" height="7.684"/>
			<rect x="285.615" y="179.739" fill="#1AA3DE" width="9.943" height="7.684"/>
			<rect x="245.369" y="179.702" fill="#1AA3DE" width="9.33" height="7.684"/>
			<rect x="231.961" y="179.691" fill="#1AA3DE" width="9.943" height="7.684"/>
			<rect x="309.96" y="179.762" fill="#1AA3DE" width="13.447" height="7.684"/>
			<rect x="325.955" y="179.775" fill="#1AA3DE" width="9.943" height="7.684"/>
			<rect x="257.576" y="199.474" fill="#1AA3DE" width="13.172" height="7.684"/>
			<rect x="285.966" y="199.498" fill="#1AA3DE" width="9.33" height="7.684"/>
			<rect x="245.439" y="199.461" fill="#1AA3DE" width="9.33" height="7.684"/>
			<rect x="273.248" y="199.486" fill="#1AA3DE" width="9.943" height="7.684"/>
			<rect x="349.783" y="199.557" fill="#1AA3DE" width="13.172" height="7.684"/>
			<rect x="231.944" y="199.449" fill="#1AA3DE" width="9.33" height="7.684"/>
			<rect x="338.47" y="199.544" fill="#1AA3DE" width="9.33" height="7.684"/>
			<rect x="365.974" y="199.845" fill="#1AA3DE" width="13.172" height="7.684"/>
			<rect x="382.265" y="199.858" fill="#1AA3DE" width="9.943" height="7.684"/>
			<rect x="231.93" y="214.545" fill="#1AA3DE" width="13.172" height="7.684"/>
			<polygon fill="#1AA3DE" points="257.926,214.572 254.937,214.569 247.982,214.562 247.975,222.246 254.929,222.253 
				257.918,222.256 270.023,222.268 270.03,214.584 			"/>
			<rect x="324.522" y="214.626" fill="#1AA3DE" width="13.172" height="7.684"/>
			<polygon fill="#1AA3DE" points="322.534,214.633 310.371,214.621 301.04,214.612 298.266,214.61 288.323,214.601 
				285.774,214.598 280.822,214.593 272.328,214.585 272.32,222.269 280.814,222.277 285.767,222.282 288.315,222.284 
				288.315,222.284 298.258,222.294 298.258,222.294 301.033,222.296 301.033,222.296 310.363,222.305 310.363,222.305 
				322.526,222.316 			"/>
			<rect x="340.712" y="214.915" fill="#1AA3DE" width="13.172" height="7.684"/>
			<rect x="369.102" y="214.938" fill="#1AA3DE" width="9.33" height="7.684"/>
			<rect x="356.385" y="214.928" fill="#1AA3DE" width="9.943" height="7.684"/>
			<rect x="381.491" y="214.951" fill="#1AA3DE" width="10.703" height="7.684"/>
			<rect x="231.917" y="228.813" fill="#1AA3DE" width="9.943" height="7.684"/>
			<polygon fill="#1AA3DE" points="259.315,228.844 256.672,228.841 245.044,228.83 245.037,236.514 256.664,236.524 
				259.307,236.527 270.111,236.538 270.119,228.854 			"/>
			<rect x="231.904" y="243.632" fill="#1AA3DE" width="9.33" height="7.684"/>
			<rect x="272.754" y="243.668" fill="#1AA3DE" width="9.33" height="7.684"/>
			<rect x="260.036" y="243.657" fill="#1AA3DE" width="9.943" height="7.684"/>
			<polygon fill="#1AA3DE" points="320.586,243.719 312.415,243.712 309.397,243.71 296.224,243.697 284.911,243.687 
				284.903,251.371 296.216,251.381 309.389,251.393 312.407,251.396 320.578,251.403 325.58,251.408 325.588,243.724 			"/>
			<rect x="340.812" y="243.729" fill="#1AA3DE" width="9.33" height="7.684"/>
			<rect x="328.094" y="243.718" fill="#1AA3DE" width="9.943" height="7.684"/>
			<polygon fill="#1AA3DE" points="384.54,243.779 382.832,243.777 378.371,243.773 368.428,243.764 352.433,243.75 
				352.425,251.434 368.42,251.448 378.363,251.457 382.824,251.461 384.533,251.463 392.154,251.47 392.162,243.786 			"/>
			<rect x="231.891" y="256.806" fill="#1AA3DE" width="13.447" height="7.684"/>
			<polygon fill="#1AA3DE" points="291.396,256.865 284.137,256.858 282.154,256.856 272.824,256.847 260.661,256.836 
				260.653,264.52 272.816,264.531 282.147,264.54 284.13,264.542 291.389,264.549 297.302,264.554 297.31,256.87 			"/>
			<rect x="247.949" y="256.819" fill="#1AA3DE" width="9.943" height="7.684"/>
			<rect x="328.724" y="257.165" fill="#1AA3DE" width="9.33" height="7.684"/>
			<rect x="316.007" y="257.154" fill="#1AA3DE" width="9.943" height="7.684"/>
			<rect x="340.351" y="257.177" fill="#1AA3DE" width="13.447" height="7.684"/>
			<polygon fill="#1AA3DE" points="378.389,257.22 377.057,257.219 369.058,257.212 369.051,264.896 377.049,264.904 
				378.381,264.904 392.142,264.917 392.15,257.233 			"/>
			<rect x="356.347" y="257.19" fill="#1AA3DE" width="9.943" height="7.684"/>
			<rect x="231.864" y="287.814" fill="#1AA3DE" width="9.33" height="7.684"/>
			<rect x="296.19" y="287.873" fill="#1AA3DE" width="13.172" height="7.684"/>
			<rect x="284.877" y="287.862" fill="#1AA3DE" width="9.33" height="7.684"/>
			<polygon fill="#1AA3DE" points="277.747,287.862 272.706,287.857 269.932,287.855 259.988,287.846 243.993,287.831 
				243.986,295.514 259.982,295.53 269.925,295.539 272.699,295.541 277.741,295.546 282.03,295.55 282.036,287.866 			"/>
			<polygon fill="#1AA3DE" points="347.5,288.202 340.763,288.195 337.989,288.193 328.046,288.184 312.373,288.169 
				312.367,295.853 328.039,295.868 337.982,295.877 340.756,295.879 347.493,295.886 350.087,295.888 350.094,288.204 			"/>
			<rect x="352.399" y="288.198" fill="#1AA3DE" width="13.447" height="7.684"/>
			<rect x="381.427" y="288.223" fill="#1AA3DE" width="10.703" height="7.684"/>
			<rect x="368.395" y="288.211" fill="#1AA3DE" width="9.943" height="7.684"/>
			<rect x="269.862" y="270.012" fill="#1AA3DE" width="13.172" height="7.684"/>
			<rect x="258.548" y="270.001" fill="#1AA3DE" width="9.33" height="7.684"/>
			<rect x="246.385" y="269.989" fill="#1AA3DE" width="9.33" height="7.684"/>
			<rect x="231.88" y="269.977" fill="#1AA3DE" width="9.943" height="7.684"/>
			<rect x="286.053" y="270.301" fill="#1AA3DE" width="13.172" height="7.684"/>
			<rect x="231.852" y="301.538" fill="#1AA3DE" width="13.172" height="7.684"/>
			<rect x="260.627" y="301.561" fill="#1AA3DE" width="9.33" height="7.684"/>
			<rect x="247.91" y="301.549" fill="#1AA3DE" width="9.943" height="7.684"/>
			<rect x="272.255" y="301.573" fill="#1AA3DE" width="13.447" height="7.684"/>
			<rect x="300.968" y="301.596" fill="#1AA3DE" width="9.33" height="7.684"/>
			<rect x="288.25" y="301.586" fill="#1AA3DE" width="9.943" height="7.684"/>
			<rect x="356.307" y="301.647" fill="#1AA3DE" width="9.943" height="7.684"/>
			<rect x="216.719" y="166.032" opacity="0.15" fill="#1AA3DE" enable-background="new    " width="189.889" height="7.684"/>
			<circle fill="#1AA3DE" cx="224.761" cy="169.582" r="2.804"/>
		</g>
	</g>
</g>
<g>
	<circle fill="#FFFFFF" cx="100.834" cy="315.556" r="27.185"/>
	<circle fill="#FFFFFF" cx="62.444" cy="324.614" r="27.185"/>
	<circle fill="#FFFFFF" cx="81.731" cy="298.316" r="19.238"/>
	<circle fill="#FFFFFF" cx="89.222" cy="346.451" r="21.623"/>
	<circle fill="#FFFFFF" cx="141.242" cy="331.634" r="41.198"/>
	<circle fill="#FFFFFF" cx="119.236" cy="283.974" r="29.092"/>
	<circle fill="#FFFFFF" cx="152.621" cy="299.067" r="20.669"/>
	<circle fill="#FFFFFF" cx="182.26" cy="319.199" r="25.417"/>
</g>
<text transform="matrix(1 0 0 1 65.0836 335.004)" display="none" fill="#5B5B5D" enable-background="new    " font-family="$RoyaMainFont" font-size="43">Java</text>
<g>
	<circle fill="#FFFFFF" cx="110.755" cy="154.666" r="27.185"/>
	<circle fill="#FFFFFF" cx="72.365" cy="163.724" r="27.185"/>
	<circle fill="#FFFFFF" cx="91.652" cy="137.426" r="19.238"/>
	<circle fill="#FFFFFF" cx="99.143" cy="185.56" r="21.623"/>
	<circle fill="#FFFFFF" cx="151.162" cy="170.744" r="41.198"/>
	<circle fill="#FFFFFF" cx="129.157" cy="123.084" r="29.092"/>
	<circle fill="#FFFFFF" cx="162.542" cy="138.177" r="20.669"/>
	<circle fill="#FFFFFF" cx="192.181" cy="158.309" r="25.417"/>
</g>
<text transform="matrix(1 0 0 1 63.9147 173.6302)" display="none" fill="#5B5B5D" enable-background="new    " font-family="$RoyaMainFont" font-size="36">Spring</text>
<g enable-background="new    ">
	<path fill="#5B5B5D" d="M72.975,327.4c0,1.47-0.334,2.802-1.004,3.996c-0.669,1.194-1.588,2.204-2.756,3.031
		c-1.168,0.827-2.553,1.463-4.153,1.909c-1.601,0.446-3.333,0.67-5.196,0.67c-1.129,0-2.251-0.139-3.366-0.418
		c-1.116-0.278-2.198-0.675-3.247-1.192c-1.05-0.516-2.041-1.151-2.972-1.905c-0.932-0.754-1.765-1.604-2.5-2.548l3.071-2.874
		c0.394,0.472,0.866,0.977,1.417,1.515c0.552,0.538,1.201,1.037,1.949,1.496s1.587,0.839,2.52,1.142
		c0.931,0.302,1.974,0.453,3.129,0.453c1.076,0,2.138-0.105,3.189-0.314c1.049-0.209,1.981-0.529,2.795-0.96
		c0.813-0.431,1.469-0.98,1.968-1.647c0.498-0.667,0.748-1.458,0.748-2.373c0-1.123-0.256-1.986-0.768-2.587
		c-0.511-0.601-1.175-1.039-1.988-1.313c-0.814-0.274-1.746-0.438-2.795-0.49c-1.05-0.052-2.1-0.079-3.149-0.079
		c-3.543,0-6.233-0.629-8.07-1.889c-1.837-1.26-2.756-3.162-2.756-5.708c0-1.181,0.269-2.329,0.807-3.445
		c0.538-1.115,1.286-2.099,2.244-2.953c0.957-0.852,2.099-1.534,3.425-2.047c1.325-0.512,2.775-0.768,4.35-0.768
		c2.23,0,4.317,0.342,6.259,1.024c1.942,0.682,3.792,1.889,5.55,3.621l-2.677,3.15c-0.788-0.63-1.529-1.168-2.224-1.615
		c-0.696-0.446-1.397-0.807-2.106-1.083c-0.709-0.276-1.451-0.472-2.224-0.591c-0.774-0.117-1.634-0.177-2.578-0.177
		c-0.84,0-1.627,0.132-2.362,0.394c-0.735,0.263-1.378,0.617-1.929,1.063c-0.552,0.447-0.985,0.965-1.299,1.556
		c-0.315,0.591-0.473,1.2-0.473,1.83c0,0.446,0.091,0.872,0.276,1.279c0.183,0.407,0.512,0.768,0.984,1.083
		c0.473,0.315,1.108,0.564,1.909,0.747c0.8,0.184,1.83,0.276,3.09,0.276c2.571,0,4.691,0.196,6.357,0.591
		c1.666,0.394,2.985,0.964,3.956,1.713c0.971,0.747,1.647,1.667,2.027,2.755C72.784,324.809,72.975,326.036,72.975,327.4z"/>
	<path fill="#5B5B5D" d="M79.666,336.336v-20.392h12.952c0.971,0,1.87,0.152,2.696,0.453c0.827,0.302,1.528,0.736,2.106,1.3
		c0.577,0.565,1.029,1.246,1.358,2.047c0.328,0.801,0.492,1.686,0.492,2.657c0,2.047-0.65,3.655-1.949,4.822
		c-1.3,1.168-3.104,1.751-5.413,1.751h-1.811c-0.944,0-1.726,0.02-2.342,0.06c-0.617,0.04-1.155,0.098-1.614,0.177
		c-0.46,0.078-0.874,0.196-1.241,0.353c-0.367,0.158-0.774,0.355-1.22,0.591v6.181H79.666z M83.682,326.101
		c0.892-0.524,1.89-0.852,2.992-0.983s2.244-0.198,3.425-0.198h1.811c0.971,0,1.752-0.151,2.343-0.452
		c0.591-0.302,0.885-1.005,0.885-2.107c0-0.498-0.092-0.906-0.276-1.221c-0.184-0.314-0.427-0.556-0.728-0.727
		c-0.302-0.171-0.644-0.282-1.024-0.335c-0.38-0.052-0.781-0.079-1.2-0.079h-8.227V326.101z"/>
	<path fill="#5B5B5D" d="M122.496,330.191c0.236,0.421,0.499,0.75,0.787,0.987c0.289,0.237,0.591,0.414,0.906,0.533
		s0.624,0.198,0.926,0.237c0.301,0.04,0.57,0.059,0.806,0.059h1.417v4.33h-1.771c-0.525,0-1.043-0.026-1.556-0.079
		c-0.511-0.052-1.017-0.183-1.515-0.393c-0.499-0.21-0.983-0.532-1.457-0.965c-0.472-0.432-0.945-1.029-1.417-1.791l-3.149-5.117
		h-0.276c-0.787,0-1.45,0.019-1.988,0.059c-0.538,0.04-1.01,0.112-1.417,0.217c-0.407,0.105-0.787,0.23-1.142,0.374
		c-0.355,0.144-0.742,0.321-1.161,0.532v7.164h-4.134v-20.392h13.149c0.944,0,1.804,0.152,2.578,0.455
		c0.774,0.302,1.45,0.729,2.028,1.281c0.577,0.553,1.023,1.205,1.338,1.954s0.472,1.572,0.472,2.467
		c0,1.578-0.407,2.854-1.219,3.827c-0.814,0.974-1.969,1.684-3.464,2.13L122.496,330.191z M119.505,323.936
		c0.603,0,1.134-0.163,1.593-0.492c0.459-0.328,0.69-0.82,0.69-1.476c0-0.446-0.093-0.801-0.276-1.064
		c-0.185-0.262-0.414-0.458-0.69-0.591c-0.276-0.13-0.597-0.216-0.964-0.255c-0.367-0.04-0.722-0.06-1.063-0.06h-8.306v5.118
		c0.787-0.446,1.659-0.754,2.617-0.926c0.958-0.17,1.988-0.255,3.09-0.255H119.505z"/>
	<path fill="#5B5B5D" d="M135.211,336.336v-20.392h4.015v20.392H135.211z"/>
	<path fill="#5B5B5D" d="M151.192,315.944l12.322,14.172v-14.172h4.055v20.392h-4.055l-11.337-13.266v13.266h-4.055v-17.36
		l-2.008-3.032H151.192z"/>
	<path fill="#5B5B5D" d="M194.692,334.053c-1.129,0.971-2.415,1.699-3.858,2.185c-1.444,0.485-2.953,0.728-4.527,0.728
		c-1.549,0-3.044-0.243-4.488-0.728c-1.444-0.486-2.723-1.194-3.838-2.126c-1.116-0.931-2.008-2.073-2.677-3.425
		c-0.668-1.351-1.004-2.893-1.004-4.626c0-1.732,0.341-3.267,1.024-4.606c0.681-1.338,1.587-2.466,2.716-3.385
		c1.129-0.918,2.414-1.614,3.858-2.087c1.443-0.472,2.926-0.708,4.449-0.708c1.495,0,2.952,0.217,4.37,0.649
		c1.417,0.434,2.689,1.07,3.818,1.909l-2.716,3.149c-0.761-0.524-1.621-0.925-2.579-1.2c-0.958-0.276-1.922-0.413-2.893-0.413
		c-0.998,0-1.955,0.138-2.874,0.413c-0.919,0.276-1.746,0.689-2.481,1.24s-1.319,1.254-1.751,2.106
		c-0.434,0.853-0.65,1.857-0.65,3.011c0,1.155,0.223,2.153,0.67,2.992c0.446,0.84,1.037,1.536,1.772,2.087
		c0.735,0.551,1.568,0.964,2.5,1.24c0.931,0.276,1.883,0.413,2.853,0.413c1.523,0,2.953-0.355,4.292-1.063v-3.268h-2.087
		l-1.732-3.819h7.834V334.053z"/>
</g>
<g>
	<circle fill="#FFFFFF" cx="448.811" cy="130.246" r="16.05"/>
	<circle fill="#FFFFFF" cx="426.145" cy="135.594" r="16.05"/>
	<circle fill="#FFFFFF" cx="437.533" cy="120.068" r="11.359"/>
	<circle fill="#FFFFFF" cx="441.955" cy="148.487" r="12.766"/>
	<circle fill="#FFFFFF" cx="472.669" cy="139.739" r="24.324"/>
	<circle fill="#FFFFFF" cx="459.676" cy="111.599" r="17.177"/>
	<circle fill="#FFFFFF" cx="479.387" cy="120.511" r="12.203"/>
	<circle fill="#FFFFFF" cx="496.887" cy="132.397" r="15.007"/>
</g>
<g>
	<circle fill="#FFFFFF" cx="447.04" cy="254.996" r="27.184"/>
	<circle fill="#FFFFFF" cx="408.652" cy="264.053" r="27.184"/>
	<circle fill="#FFFFFF" cx="427.938" cy="237.757" r="19.237"/>
	<circle fill="#FFFFFF" cx="435.429" cy="285.888" r="21.622"/>
	<circle fill="#FFFFFF" cx="487.445" cy="271.073" r="41.196"/>
	<circle fill="#FFFFFF" cx="465.441" cy="223.415" r="29.091"/>
	<circle fill="#FFFFFF" cx="498.824" cy="238.508" r="20.668"/>
	<circle fill="#FFFFFF" cx="528.462" cy="258.639" r="25.416"/>
</g>
<g>
	<circle fill="#FFFFFF" cx="293.861" cy="34.173" r="11.278"/>
	<circle fill="#FFFFFF" cx="277.934" cy="37.931" r="11.278"/>
	<circle fill="#FFFFFF" cx="285.936" cy="27.021" r="7.982"/>
	<circle fill="#FFFFFF" cx="289.044" cy="46.991" r="8.971"/>
	<circle fill="#FFFFFF" cx="310.626" cy="40.844" r="17.092"/>
	<circle fill="#FFFFFF" cx="301.496" cy="21.07" r="12.07"/>
	<circle fill="#FFFFFF" cx="315.347" cy="27.332" r="8.575"/>
	<circle fill="#FFFFFF" cx="327.644" cy="35.685" r="10.545"/>
</g>
<text transform="matrix(1 0 0 1 417.4515 271.6511)" display="none" fill="#5B5B5D" enable-background="new    " font-family="$RoyaMainFont" font-size="40">Html</text>
<g enable-background="new    ">
	<path fill="#5B5B5D" d="M416.992,275.991h-5.082v-35.272h5.082l-0.046,14.469c0.714-0.347,1.445-0.591,2.192-0.733
		c0.746-0.142,1.491-0.214,2.238-0.214c0.496,0,1.219,0.055,2.168,0.166c0.948,0.111,1.974,0.229,3.079,0.354
		c1.103,0.126,2.198,0.245,3.287,0.354c1.088,0.111,2.021,0.166,2.798,0.166c0.715,0,1.493-0.063,2.332-0.189
		c0.839-0.126,1.633-0.362,2.378-0.71v-13.664h5.084v35.272h-5.084v-16.407c-0.745,0.347-1.536,0.583-2.374,0.709
		c-0.838,0.127-1.612,0.189-2.325,0.189c-0.776,0-1.707-0.054-2.793-0.165c-1.085-0.111-2.178-0.229-3.28-0.354
		c-1.101-0.126-2.124-0.245-3.071-0.356c-0.946-0.11-1.667-0.165-2.163-0.165c-0.745,0-1.489,0.07-2.234,0.212
		c-0.745,0.142-1.473,0.387-2.187,0.733V275.991z"/>
	<path fill="#5B5B5D" d="M463.067,256.369v19.622h-4.803v-19.622h-8.768v-4.87h22.665v4.87H463.067z"/>
	<path fill="#5B5B5D" d="M506.575,255.422v20.568h-5.269v-14.327l-8.534,11.536l-8.534-11.536v14.327h-5.269v-20.568l-2.378-3.924
		h5.876l10.306,13.853l10.306-13.853h5.876L506.575,255.422z"/>
	<path fill="#5B5B5D" d="M517.114,275.991v-24.492h4.99v19.574h12.824v4.918H517.114z"/>
</g>
<g enable-background="new    ">
	<path fill="#5B5B5D" d="M92.63,164.696c0,2.956-0.478,5.456-1.432,7.5c-0.954,2.045-2.174,3.704-3.66,4.974
		c-1.486,1.273-3.105,2.192-4.858,2.758c-1.753,0.567-3.454,0.851-5.103,0.851c-1.134,0-2.303-0.104-3.506-0.31
		c-1.203-0.206-2.38-0.507-3.531-0.901c-1.152-0.395-2.243-0.868-3.273-1.418c-1.031-0.549-1.959-1.186-2.784-1.907l2.835-4.949
		c0.378,0.412,0.859,0.85,1.443,1.314c0.584,0.465,1.297,0.886,2.139,1.263c0.842,0.379,1.812,0.697,2.913,0.954
		c1.099,0.258,2.371,0.386,3.815,0.386c1.821,0,3.332-0.343,4.536-1.031c1.203-0.686,2.156-1.563,2.861-2.628
		c0.704-1.065,1.202-2.224,1.495-3.479c0.292-1.255,0.455-2.432,0.489-3.532v-17.423h-8.196l-2.474-5.671h16.29V164.696z"/>
	<path fill="#5B5B5D" d="M110.826,152.581h5.721l14.434,27.321h-5.825l-2.113-4.02h-3.196c-1.65,0-3.282,0.137-4.897,0.412
		s-3.085,0.61-4.408,1.004c-1.323,0.396-2.44,0.808-3.351,1.237c-0.911,0.431-1.469,0.782-1.675,1.057l-0.155,0.309h-5.567
		l12.784-23.97L110.826,152.581z M120.517,171.035l-5.207-9.897l-6.341,12.218c0.859-0.446,2.182-0.945,3.97-1.495
		c1.787-0.549,4.072-0.825,6.856-0.825H120.517z"/>
	<path fill="#5B5B5D" d="M151.033,179.902h-6.856l-11.598-26.703h5.979l9.022,21.291l9.228-21.291h6.03L151.033,179.902z"/>
	<path fill="#5B5B5D" d="M174.952,152.581h5.722l14.434,27.321h-5.825l-2.113-4.02h-3.196c-1.65,0-3.283,0.137-4.897,0.412
		c-1.617,0.275-3.085,0.61-4.408,1.004c-1.324,0.396-2.441,0.808-3.351,1.237c-0.911,0.431-1.469,0.782-1.675,1.057l-0.155,0.309
		h-5.568l12.784-23.97L174.952,152.581z M184.643,171.035l-5.206-9.897l-6.341,12.218c0.858-0.446,2.182-0.945,3.969-1.495
		c1.787-0.549,4.073-0.825,6.857-0.825H184.643z"/>
</g>
</svg>
