<?xml version="1.0" encoding="utf-8"?>
<!-- Generator: Adobe Illustrator 17.0.0, SVG Export Plug-In . SVG Version: 6.00 Build 0)  -->
<!DOCTYPE svg PUBLIC "-//W3C//DTD SVG 1.1//EN" "http://www.w3.org/Graphics/SVG/1.1/DTD/svg11.dtd">
<svg version="1.1" id="Calque_1" xmlns="http://www.w3.org/2000/svg" xmlns:xlink="http://www.w3.org/1999/xlink" x="0px" y="0px"
	 width="590px" height="590px" viewBox="0 0 590 590" enable-background="new 0 0 590 590" xml:space="preserve">
<circle fill="#FFFFFF" cx="441.452" cy="109.998" r="63.501"/>
<path fill="#4D5A69" d="M441.532,42.417c-37.324,0-67.581,30.257-67.581,67.581s30.257,67.581,67.581,67.581
	s67.581-30.257,67.581-67.581S478.856,42.417,441.532,42.417z M441.532,172.967c-34.777,0-62.969-28.192-62.969-62.969
	s28.192-62.969,62.969-62.969s62.969,28.192,62.969,62.969S476.309,172.967,441.532,172.967z"/>
<circle fill="#4D5A69" cx="441.532" cy="109.998" r="3.18"/>
<rect x="447.345" y="92.276" transform="matrix(-0.7358 -0.6772 0.6772 -0.7358 709.1571 481.5104)" fill="#4D5A69" width="2.325" height="20.284"/>
<rect x="456.164" y="98.16" transform="matrix(0.2683 -0.9633 0.9633 0.2683 224.4034 524.2528)" fill="#4D5A69" width="2.325" height="32.475"/>
<path fill="#E52629" d="M412.722,85.03l0.431-0.487c0.125-0.142,0.342-0.155,0.484-0.03l38.978,34.462
	c0.142,0.125,0.155,0.342,0.03,0.484l-0.431,0.487c-0.125,0.142-0.342,0.155-0.484,0.03l-38.978-34.462
	C412.61,85.389,412.597,85.172,412.722,85.03z"/>
<rect x="439.758" y="51.463" fill="#4D5A69" width="3.548" height="14.722"/>
<rect x="414.171" y="58.319" transform="matrix(0.866 -0.5 0.5 0.866 22.8861 216.772)" fill="#4D5A69" width="3.548" height="14.722"/>
<rect x="395.441" y="77.05" transform="matrix(0.5 -0.866 0.866 0.5 125.5052 386.2032)" fill="#4D5A69" width="3.548" height="14.722"/>
<rect x="382.997" y="108.224" fill="#4D5A69" width="14.722" height="3.548"/>
<rect x="395.441" y="128.223" transform="matrix(-0.5 -0.866 0.866 -0.5 478.402 547.3744)" fill="#4D5A69" width="3.548" height="14.722"/>
<rect x="414.171" y="146.954" transform="matrix(-0.866 -0.5 0.5 -0.866 699.0067 495.9288)" fill="#4D5A69" width="3.548" height="14.722"/>
<rect x="439.758" y="153.81" fill="#4D5A69" width="3.548" height="14.722"/>
<rect x="465.345" y="146.954" transform="matrix(-0.866 0.5 -0.5 -0.866 948.8131 54.3968)" fill="#4D5A69" width="3.548" height="14.722"/>
<rect x="484.076" y="128.223" transform="matrix(-0.5 0.866 -0.866 -0.5 846.194 -217.3814)" fill="#4D5A69" width="3.548" height="14.722"/>
<rect x="485.344" y="108.224" fill="#4D5A69" width="14.722" height="3.548"/>
<rect x="484.076" y="77.05" transform="matrix(0.5 0.866 -0.866 0.5 316.0268 -378.5526)" fill="#4D5A69" width="3.548" height="14.722"/>
<rect x="465.345" y="58.319" transform="matrix(0.866 0.5 -0.5 0.866 95.4221 -224.7599)" fill="#4D5A69" width="3.548" height="14.722"/>
<path fill="#4D5A69" d="M441.532,69.05"/>
<line fill="#4D5A69" x1="442.321" y1="122.929" x2="440.743" y2="122.929"/>
<path fill="#FFFFFF" stroke="#4D5A69" stroke-miterlimit="10" d="M465.084,452.325c-3.449,18.943-18.316,34.459-37.244,38.244
	c-0.122,0.024-0.224,0.066-0.333,0.102l-2.258-13.996l-33.365,21.523l38.613,11.007l-2.225-13.794
	c0.28,0.039,0.577,0.044,0.897-0.021c20.47-4.094,37.002-21.227,40.736-41.737C470.479,450.502,465.661,449.156,465.084,452.325z"/>
<path fill="#FFFFFF" stroke="#4D5A69" stroke-miterlimit="10" d="M223.279,506.57c-18.099,5.14-38.748-1.194-50.252-16.242
	c-0.186-0.243-0.399-0.427-0.622-0.582l11.668-8.26l-34.018-20.475l7.124,39.514l11.321-8.014c0.063,0.113,0.123,0.227,0.21,0.341
	c12.88,16.848,35.45,24.347,55.899,18.54C227.705,510.512,226.387,505.688,223.279,506.57z"/>
<path fill="#FFFFFF" stroke="#4D5A69" stroke-miterlimit="10" d="M103.445,166.514l-39.304,8.79l8.469,12.103
	c-0.318,0.101-0.633,0.272-0.931,0.53c-16.657,14.425-22.708,38.874-16.575,59.793c0.905,3.087,5.731,1.772,4.821-1.329
	c-5.667-19.329-0.084-41.615,15.289-54.928c0.054-0.047,0.09-0.098,0.138-0.146l8.555,12.226L103.445,166.514z"/>
<path fill="#FFFFFF" stroke="#4D5A69" stroke-miterlimit="10" d="M300.565,29.272c-0.232-0.22-0.51-0.411-0.85-0.549
	c-19.413-7.864-42.562-2.513-56.999,12.556c-2.23,2.327,1.301,5.867,3.536,3.536c13.327-13.91,34.28-18.502,52.134-11.27
	c0.078,0.032,0.15,0.043,0.225,0.066l-5.822,12.926l39.703,0.406l-26.171-30.45L300.565,29.272z"/>
<path fill="#FFFFFF" stroke="#4D5A69" stroke-miterlimit="10" d="M537.225,234.471c0.156-0.284,0.269-0.607,0.315-0.977
	c2.54-20.774-8.645-41.734-26.938-51.746c-2.829-1.549-5.352,2.769-2.524,4.317c16.911,9.256,26.802,28.292,24.462,47.429
	c-0.01,0.078-0.002,0.146-0.005,0.221l-13.996-2.258l9.939,38.441l22.592-33.192L537.225,234.471z"/>
<g>
	<g>
		<circle fill="#FBB934" cx="159.001" cy="108.621" r="65.277"/>
		<circle fill="#FDF1D0" cx="159.001" cy="108.621" r="52.222"/>
	</g>
	<text transform="matrix(1 0 0 1 123.3078 139.4015)" display="none" fill="#FBB934" font-family="'Arkhip'" font-size="78.8331">€</text>
	<g>
		<path fill="#FBB934" d="M170.503,101.657l-1.104,5.755h-31.77c-0.053,0.264-0.079,0.552-0.079,0.867s0,0.605,0,0.867
			c0,1.261,0.079,2.444,0.236,3.547h30.587l-1.104,5.676H139.6c0.946,1.933,2.155,3.683,3.626,5.25
			c1.471,1.567,3.14,2.9,5.006,3.996c1.865,1.096,3.863,1.945,5.991,2.546c2.129,0.601,4.322,0.9,6.583,0.9
			c3.836,0,7.357-0.82,10.564-2.462c3.205-1.641,5.913-3.869,8.12-6.682l5.282,7.174c-2.996,3.311-6.557,5.913-10.682,7.804
			c-4.126,1.892-8.581,2.838-13.362,2.838c-3.575,0-6.951-0.526-10.13-1.577c-3.181-1.051-6.07-2.509-8.672-4.375
			c-2.602-1.865-4.862-4.111-6.78-6.74c-1.919-2.627-3.403-5.518-4.454-8.671h-6.149l1.104-5.676h3.784
			c-0.106-0.735-0.185-1.484-0.236-2.247c-0.053-0.761-0.079-1.537-0.079-2.326v-0.709h-4.651l1.183-5.755h4.178
			c0.788-3.469,2.154-6.661,4.099-9.578c1.944-2.917,4.296-5.426,7.056-7.528c2.759-2.102,5.833-3.745,9.223-4.927
			c3.39-1.183,6.924-1.774,10.603-1.774c4.467,0,8.632,0.828,12.495,2.483s7.239,3.929,10.13,6.819l-5.519,6.464
			c-2.207-2.207-4.783-3.941-7.726-5.203c-2.944-1.262-6.097-1.892-9.46-1.892c-2.628,0-5.112,0.354-7.45,1.064
			c-2.339,0.709-4.468,1.734-6.385,3.075c-1.919,1.34-3.587,2.944-5.006,4.809c-1.419,1.866-2.497,3.93-3.232,6.188H170.503z"/>
	</g>
</g>
<circle fill="#F2F2F3" stroke="#4D5A69" stroke-miterlimit="10" cx="505.024" cy="377.158" r="61.912"/>
<circle fill="#FBB934" cx="505.024" cy="377.158" r="50.973"/>
<circle fill="#F8EF8E" cx="505.024" cy="377.158" r="38.633"/>
<circle fill="#FBB934" cx="505.024" cy="377.158" r="27.395"/>
<circle fill="#F2F2F3" cx="505.024" cy="377.158" r="17.546"/>
<g>
	<polygon fill="#00A4E3" points="574.455,332.306 561.929,326.898 561.924,326.903 557.719,313.643 542.633,330.171 
		540.165,346.021 540.083,346.093 540.155,346.094 540.145,346.163 540.224,346.094 555.907,346.118 	"/>
	<g>
		<path fill="#4D5A69" d="M504.677,374.913c-1.321,2.059,0.044,4.061,2.703,2.848l1.341-1.35
			c18.795-16.514,59.057-50.314,60.947-51.994c2.345-2.085-2.25-7.49-4.88-5.077"/>
	</g>
</g>
<path fill="none" stroke="#F39324" stroke-width="5" stroke-miterlimit="10" d="M302.249,411.922
	c-30.202,0-54.685,24.483-54.685,54.685c0,21.398,12.298,39.914,30.204,48.897v-0.199h48.961v0.199
	c17.907-8.983,30.204-27.499,30.204-48.897C356.934,436.406,332.451,411.922,302.249,411.922z"/>
<rect x="290.881" y="563.497" fill="#8C9AA9" width="23.67" height="10.284"/>
<circle fill="#FEDA5C" cx="302.716" cy="467.608" r="54.685"/>
<rect x="278.235" y="516.305" fill="#FEDA5C" width="48.961" height="22.311"/>
<rect x="276.44" y="532.495" fill="#8C9AA9" width="52.552" height="31.206"/>
<path fill="#4D5A69" d="M328.47,536.203h-51.494c-1.27,0-2.31,1.039-2.31,2.31l0,0c0,1.27,1.039,2.31,2.31,2.31h51.494
	c1.27,0,2.31-1.039,2.31-2.31l0,0C330.779,537.242,329.74,536.203,328.47,536.203z"/>
<path fill="#4D5A69" d="M328.47,555.877h-51.494c-1.27,0-2.31,1.039-2.31,2.31l0,0c0,1.27,1.039,2.31,2.31,2.31h51.494
	c1.27,0,2.31-1.039,2.31-2.31l0,0C330.779,556.916,329.74,555.877,328.47,555.877z"/>
<path fill="#4D5A69" d="M328.47,546.04h-51.494c-1.27,0-2.31,1.039-2.31,2.31l0,0c0,1.27,1.039,2.31,2.31,2.31h51.494
	c1.27,0,2.31-1.039,2.31-2.31l0,0C330.779,547.079,329.74,546.04,328.47,546.04z"/>
<path fill="#FFFFFF" d="M322.155,475.278h-37.131c-0.367,0-0.667-0.3-0.667-0.667v-2.023c0-0.367,0.3-0.667,0.667-0.667h37.131
	c0.367,0,0.667,0.3,0.667,0.667v2.023C322.821,474.978,322.521,475.278,322.155,475.278z"/>
<g>
	<path fill="#FFFFFF" stroke="#F8EF8E" stroke-width="2" stroke-miterlimit="10" d="M258.904,470.633
		c0.432-23.88,15.626-48.113,41.58-48.746c0.895-0.022,5.39-1.839,3.143-1.784c-28.841,0.704-48.985,23.299-49.501,51.811
		C254.116,472.476,258.881,471.888,258.904,470.633L258.904,470.633z"/>
</g>
<g>
	<g>
		<path fill="#FBB934" d="M339.05,456.422c5.446,17.646,3.438,36.469-12.522,47.771c-13.14,9.305-30.455,7.278-43.12-1.912
			c-1.327-0.963-5.333,0.939-3.458,2.299c13.648,9.904,32.1,11.577,46.722,2.867c18.953-11.29,22.991-32.078,16.779-52.205
			C342.912,453.494,338.522,454.711,339.05,456.422L339.05,456.422z"/>
	</g>
</g>
<path fill="#FFFFFF" d="M313.032,475.566c0-0.786-0.514-1.428-1.142-1.428c-0.628,0-1.142,0.643-1.142,1.428v56.93h2.283V475.566z"
	/>
<path fill="#FFFFFF" d="M294.923,475.566c0-0.786-0.514-1.428-1.142-1.428c-0.628,0-1.142,0.643-1.142,1.428v56.93h2.283V475.566z"
	/>
<ellipse fill="#F2F2F3" cx="304.777" cy="323.389" rx="21.42" ry="55.491"/>
<path fill="#8C9AA9" d="M210.915,336.2c0.48-9.62,3.633-17.746,9.37-24.154c4.965-5.545,11.889-9.944,21.169-13.448
	c2.284-0.863,4.579-1.658,6.734-2.399c8.988-3.088,18.342-6.736,25.274-14.309l0.38-0.414c0.847-0.919,1.489-1.667,1.961-2.298
	c-3.816-1.651-7.705-3.117-11.632-4.472c-5.275-1.82-9.669-4.912-13.642-8.769c-3.037-2.949-3.567-6.173-1.379-9.953
	c2.137-3.692,4.672-7.765,6.328-11.93c-2.414-6.332-4.71-12.9-4.732-20.147c-0.017-5.598,2.821-8.951,7.592-8.97
	c0.82-0.003,1.167-0.129,1.273-0.179c0.074-0.208,0.121-0.758-0.014-2.166c-0.065-0.677-0.132-1.354-0.198-2.032
	c-0.348-3.542-0.709-7.204-0.819-10.857c-0.145-4.796,0.347-9.44,1.46-13.909c-0.954-2.68-2.363-5.369-4.406-7.951
	c-9.459-10.768-15.671-11.848-26.062-11.848c-10.39,0-21.608,5.572-26.437,12.525c-4.707,6.777-6.923,14.185-6.675,22.399
	c0.098,3.263,0.461,6.52,0.773,9.773c0.212,2.211,0.168,3.883-2.818,3.895c-2.98,0.012-3.981,2.287-3.973,4.977
	c0.019,6.261,2.417,11.905,4.582,17.596c0.189,0.498,0.605,1.052,1.059,1.277c8.176,4.044,8.777,13.55,13.695,19.966
	c1.947,2.541-0.567,5.015-2.391,7.008c-5.523,6.034-12.755,8.944-20.182,11.496c-1.713,0.589-3.425,1.184-5.121,1.824
	c-12.497,4.719-21.504,12.426-22.241,27.192c0,5.973,0,11.945,0,17.918c1.636,8.188,7.393,11.414,14.693,13.064
	c8.877,2.007,17.888,2.563,26.912,2.897c3.155,0.117,6.311,0.222,9.466,0.313L210.915,336.2z"/>
<path fill="#8C9AA9" d="M443.355,297.212c-1.305-7.589-5.774-12.324-12.19-15.654c-6.09-3.161-12.439-5.68-18.889-7.904
	c-5.275-1.82-9.669-4.912-13.642-8.769c-3.037-2.949-3.567-6.173-1.379-9.953c2.612-4.513,5.822-9.597,7.29-14.721
	c0.212-0.74,0.82-1.599,1.474-1.935c8.573-4.4,7.596-13.271,9.164-20.817c0.473-2.275-1.432-4.496-4.039-4.523
	c-3.541-0.036-3.344-2.144-2.94-4.563c0.75-4.501,5.28-19.264-4.465-31.581c-9.459-10.768-15.671-11.848-26.062-11.848
	s-21.608,5.572-26.438,12.525c-0.773,1.113-1.472,2.244-2.11,3.392c3.464,11.44,1.2,22.443,0.05,28.014
	c-0.184,0.891-0.343,1.66-0.44,2.243c-0.097,0.583-0.393,2.357-0.16,2.769c0.008,0,0.359,0.26,1.617,0.273
	c2.458,0.025,4.715,1.119,6.192,3.002c1.327,1.691,1.844,3.836,1.419,5.884c-0.412,1.986-0.682,4.036-0.968,6.207
	c-0.725,5.514-1.52,11.521-4.985,16.417c1.992,3.903,3.389,8.237,6.029,11.682c1.947,2.541-0.567,5.015-2.391,7.008
	c-5.523,6.034-12.755,8.944-20.182,11.496c-0.838,0.288-1.676,0.578-2.512,0.873c-0.088,2.016,0.818,3.854,2.761,5.741
	c5.425,5.268,10.941,8.821,16.863,10.864c9.804,3.382,17.721,6.695,24.914,10.429c9.864,5.119,15.478,12.369,17.162,22.163
	c0.805,4.677,1.401,9.039,1.799,13.175c9.14-0.315,18.273-0.921,27.395-1.94c3.704-0.414,7.404-1.343,10.969-2.483
	c7.045-2.253,9.904-6.132,10.367-13.73C445.516,312.969,444.71,305.086,443.355,297.212z"/>
<path fill="#4D5A69" d="M214.679,359.583c0-7.786,0-15.572,0-23.358c0.961-19.249,12.703-29.296,28.995-35.448
	c2.21-0.835,4.442-1.61,6.676-2.377c9.682-3.327,19.11-7.121,26.31-14.987c2.378-2.598,5.655-5.823,3.116-9.136
	c-6.411-8.365-7.195-20.757-17.853-26.029c-0.592-0.293-1.134-1.016-1.381-1.665c-2.822-7.418-5.949-14.776-5.974-22.939
	c-0.011-3.507,1.295-6.473,5.179-6.488c3.893-0.015,3.949-2.195,3.673-5.077c-0.406-4.241-0.88-8.487-1.008-12.741
	c-0.323-10.708,2.566-20.366,8.702-29.201c6.296-9.064,20.92-16.329,34.465-16.329c13.545,0,21.644,1.409,33.975,15.446
	c12.703,16.057,6.797,35.303,5.82,41.171c-0.525,3.154-0.783,5.902,3.833,5.949c3.399,0.035,5.881,2.93,5.265,5.896
	c-2.043,9.838-0.77,21.403-11.946,27.138c-0.853,0.438-1.645,1.557-1.922,2.522c-1.914,6.68-6.099,13.307-9.504,19.191
	c-2.852,4.928-2.162,9.131,1.798,12.975c5.179,5.028,10.908,9.06,17.785,11.432c8.408,2.9,16.686,6.184,24.624,10.304
	c8.365,4.341,14.19,10.514,15.892,20.408c1.766,10.264,2.818,20.542,2.184,30.943c-0.604,9.906-4.331,14.963-13.515,17.9
	c-4.647,1.486-9.47,2.697-14.299,3.236c-32.15,3.592-64.401,3.265-96.654,2.071c-11.763-0.435-23.51-1.161-35.083-3.777
	C224.317,374.462,216.813,370.257,214.679,359.583z M317.236,363.635c-2.774-12.328-5.485-24.56-8.312-36.763
	c-0.475-2.052-0.723-4.717-3.675-4.728c-3.246-0.012-3.434,2.837-3.927,5.092c-2.127,9.723-3.634,19.624-6.364,29.162
	c-2.063,7.21-0.803,12.042,5.815,15.417c2.168,1.105,4.005,3.849,6.679,1.511C310.864,370.342,315.973,369.032,317.236,363.635z
	 M304.651,297.598c-11.312,0.161-11.767-1.141-5.666,10.126c1.356,2.504,2.222,5.78,5.787,5.938
	c3.721,0.165,4.516-3.259,5.876-5.705C316.45,297.519,316.401,297.49,304.651,297.598z"/>
<polyline fill="#F2F2F3" stroke="#4D5A69" stroke-miterlimit="10" points="144.529,290.984 144.529,429.33 16.815,429.33 
	16.815,265.628 116.28,265.628 "/>
<g>
	<rect x="30.403" y="412.825" fill="#2CAAE2" width="79.211" height="5.271"/>
</g>
<g>
	<rect x="30.403" y="402.46" fill="#2CAAE2" width="101.766" height="5.271"/>
</g>
<g>
	<rect x="30.403" y="392.095" fill="#2CAAE2" width="101.766" height="5.271"/>
</g>
<g>
	<rect x="30.403" y="381.73" fill="#2CAAE2" width="62.08" height="5.271"/>
</g>
<g>
	<rect x="30.403" y="371.365" fill="#2CAAE2" width="101.766" height="5.271"/>
</g>
<g>
	<rect x="30.403" y="361" fill="#2CAAE2" width="101.766" height="5.271"/>
</g>
<g>
	<rect x="30.403" y="350.635" fill="#2CAAE2" width="84.343" height="5.271"/>
</g>
<g>
	<rect x="30.403" y="341.125" fill="#2CAAE2" width="101.766" height="5.271"/>
</g>
<g>
	<rect x="30.403" y="329.905" fill="#2CAAE2" width="101.766" height="5.271"/>
</g>
<g>
	<rect x="30.403" y="319.54" fill="#2CAAE2" width="101.766" height="5.271"/>
</g>
<g>
	<rect x="30.403" y="309.175" fill="#2CAAE2" width="63.102" height="5.271"/>
</g>
<g>
	<rect x="30.403" y="298.81" fill="#2CAAE2" width="89.206" height="5.271"/>
</g>
<g>
	<rect x="30.403" y="288.445" fill="#2CAAE2" width="101.766" height="5.271"/>
</g>
<g>
	<rect x="30.403" y="278.08" fill="#2CAAE2" width="101.766" height="5.271"/>
</g>
<polyline fill="#D1D3D4" points="144.895,290.321 116.646,290.321 116.646,265.262 "/>
<g>
	<circle opacity="0.58" fill="#C7E8F9" cx="116.713" cy="342.222" r="41.321"/>
	<g>
		<defs>
			<circle id="XMLID_1_" cx="116.713" cy="342.222" r="37.813"/>
		</defs>
		<use xlink:href="#XMLID_1_"  overflow="visible" fill="#F2F2F3"/>
		<clipPath id="XMLID_3_">
			<use xlink:href="#XMLID_1_"  overflow="visible"/>
		</clipPath>
		<rect x="66.164" y="312.022" clip-path="url(#XMLID_3_)" fill="#00A4E3" width="79.006" height="11.57"/>
		<rect x="65.857" y="334.875" clip-path="url(#XMLID_3_)" fill="#00A4E3" width="79.313" height="11.57"/>
		<rect x="66.363" y="357.134" clip-path="url(#XMLID_3_)" fill="#00A4E3" width="78.807" height="11.57"/>
	</g>
	<path opacity="0.78" fill="#C7E8F9" d="M80.08,344.38c0.066,1.1,0.179,2.207,0.347,3.318c3.024,20.041,21.722,33.835,41.763,30.811
		c1.523-0.23,3.009-0.551,4.456-0.956C104.567,378.535,84.937,364.652,80.08,344.38z"/>
	<g>
		<path fill="#4D5A69" d="M116.713,385.402c-23.81,0-43.18-19.371-43.18-43.18c0-23.81,19.371-43.18,43.18-43.18
			s43.18,19.371,43.18,43.18C159.894,366.031,140.523,385.402,116.713,385.402z M116.713,302.76
			c-21.759,0-39.462,17.702-39.462,39.462c0,21.759,17.702,39.462,39.462,39.462s39.462-17.702,39.462-39.462
			C156.175,320.463,138.472,302.76,116.713,302.76z"/>
	</g>
	
		<rect x="129.638" y="380.779" transform="matrix(0.9405 -0.3397 0.3397 0.9405 -124.7861 68.8602)" fill="#4D5A69" width="9.247" height="20.044"/>
	<path fill="#4D5A69" d="M156.294,448.785l-1.924,0.695c-2.76,0.997-5.833-0.445-6.83-3.205l-16.656-46.109
		c-0.997-2.76,0.445-5.833,3.205-6.83l1.924-0.695c2.76-0.997,5.833,0.445,6.83,3.205l16.656,46.109
		C160.496,444.715,159.054,447.788,156.294,448.785z"/>
</g>
<path fill="#F39992" d="M336.043,196.863c-0.088-0.26-0.176-0.52-0.264-0.78C335.868,196.342,335.955,196.602,336.043,196.863z"/>
</svg>
