<?xml version="1.0" encoding="utf-8"?>
<!-- Generator: Adobe Illustrator 17.0.0, SVG Export Plug-In . SVG Version: 6.00 Build 0)  -->
<!DOCTYPE svg PUBLIC "-//W3C//DTD SVG 1.1//EN" "http://www.w3.org/Graphics/SVG/1.1/DTD/svg11.dtd">
<svg version="1.1" xmlns="http://www.w3.org/2000/svg" xmlns:xlink="http://www.w3.org/1999/xlink" x="0px" y="0px" width="590px"
	 height="590px" viewBox="0 0 590 590" enable-background="new 0 0 590 590" xml:space="preserve">
<g id="Background" display="none">
	<circle display="inline" fill="#C3E4F8" cx="294.987" cy="293.629" r="286.41"/>
</g>
<g id="Cloud">
	<g>
		<ellipse fill="#FFFFFF" cx="170.822" cy="171.517" rx="71.759" ry="70.837"/>
		<circle fill="#FFFFFF" cx="196.87" cy="94.738" r="37.315"/>
		<circle fill="#FFFFFF" cx="287.373" cy="87.892" r="81.892"/>
		<circle fill="#FFFFFF" cx="393.628" cy="97.91" r="42.825"/>
		<circle fill="#FFFFFF" cx="439.33" cy="176.967" r="65.301"/>
		<rect x="174.41" y="119.646" fill="#FFFFFF" width="267.662" height="122.708"/>
	</g>
</g>
<g id="Terminals">
	<rect x="89.102" y="437.73" fill="#00A4E3" width="106.365" height="77.614"/>
	<path fill="#4D5A69" d="M82.918,431.112v90.851h121.867v-90.851H82.918z M89.102,515.344V437.73h106.365v77.614H89.102z"/>
	<g>
		<rect x="137.053" y="454.007" fill="#E8ECEF" width="52.985" height="34.735"/>
		<rect x="95.293" y="443.46" fill="#E8ECEF" width="49.095" height="7.594"/>
		<rect x="149.201" y="443.46" fill="#E8ECEF" width="40.496" height="7.594"/>
		<rect x="95.802" y="493.228" fill="#E8ECEF" width="93.895" height="3.339"/>
		<rect x="95.784" y="499.289" fill="#E8ECEF" width="93.913" height="3.339"/>
		<rect x="95.965" y="505.349" fill="#E8ECEF" width="33.387" height="3.339"/>
		<rect x="95.59" y="454.247" fill="#E8ECEF" width="35.84" height="12.157"/>
		<rect x="95.59" y="468.673" fill="#E8ECEF" width="35.84" height="8.851"/>
		<rect x="95.59" y="480.394" fill="#E8ECEF" width="35.84" height="8.851"/>
	</g>
	<circle fill="#C5D3E2" cx="200.057" cy="476.537" r="3.348"/>
	<rect x="191.818" y="274.911" fill="#00A4E3" width="216.764" height="148.299"/>
	<path fill="#4D5A69" d="M413.028,427.658H187.371V270.465h225.657V427.658z M196.264,418.764h207.87V279.358h-207.87V418.764z"/>
	<g>
		<rect x="203.616" y="304.96" fill="#E8ECEF" width="60.914" height="50.067"/>
		<rect x="269.671" y="304.96" fill="#E8ECEF" width="59.343" height="50.067"/>
		<rect x="334.429" y="304.96" fill="#E8ECEF" width="60.622" height="50.067"/>
		<rect x="203.21" y="290.549" fill="#E8ECEF" width="90.585" height="10.376"/>
		<rect x="300.373" y="290.549" fill="#E8ECEF" width="94.678" height="10.376"/>
		<rect x="203.108" y="386.975" fill="#E8ECEF" width="191.943" height="10.376"/>
		<rect x="298.816" y="358.65" fill="#E8ECEF" width="95.897" height="4.563"/>
		<rect x="298.798" y="366.932" fill="#E8ECEF" width="95.916" height="4.563"/>
		<rect x="299.045" y="375.213" fill="#E8ECEF" width="45.62" height="4.563"/>
		<rect x="264.184" y="401.593" fill="#E8ECEF" width="131.175" height="10.376"/>
		<rect x="203.108" y="401.593" fill="#E8ECEF" width="57.218" height="10.376"/>
		<rect x="203.616" y="358.65" fill="#E8ECEF" width="90.179" height="21.126"/>
	</g>
	<path fill="#8C9AA9" d="M187.484,427.658c-0.074,0.362-0.113,0.736-0.113,1.12v25.394c0,3.075,2.492,5.567,5.567,5.567h214.523
		c3.074,0,5.567-2.492,5.567-5.567v-25.394c0-0.384-0.039-0.758-0.113-1.12H187.484z"/>
	<path fill="#C5D3E2" d="M274.572,443.698h51.254c0.751,0,1.361,0.609,1.361,1.361v1.543c0,0.751-0.609,1.361-1.361,1.361h-51.254
		c-0.751,0-1.361-0.609-1.361-1.361v-1.543C273.212,444.307,273.821,443.698,274.572,443.698z"/>
	<rect x="281.627" y="459.873" fill="#4D5A69" width="37.144" height="16.243"/>
	<rect x="263.801" y="477.741" fill="#C5D3E2" width="72.797" height="4.061"/>
	<rect x="263.801" y="475.304" fill="#4D5A69" width="72.797" height="4.061"/>
	<rect x="389.859" y="388.635" fill="#00A4E3" width="155.944" height="106.689"/>
	<path fill="#4D5A69" d="M549.001,498.523H386.66V385.435h162.342V498.523z M393.058,492.125h149.545V391.834H393.058V492.125z"/>
	<path fill="#C5D3E2" d="M362.734,503.11v2.415c0,3.14,2.726,5.709,6.059,5.709h198.075c3.332,0,6.059-2.569,6.059-5.709v-2.415
		H362.734z"/>
	<path fill="#8C9AA9" d="M360.958,500.537v2.607c0,3.389,2.773,6.161,6.161,6.161h201.423c3.389,0,6.161-2.773,6.161-6.161v-2.607
		H360.958z"/>
	<path fill="#C5D3E2" d="M489.854,506.817h-44.047c-0.665,0-1.21-0.544-1.21-1.21v-1.372c0-0.665,0.544-1.21,1.21-1.21h44.047
		c0.665,0,1.21,0.544,1.21,1.21v1.372C491.064,506.272,490.52,506.817,489.854,506.817z"/>
	<g>
		<rect x="398.347" y="410.252" fill="#E8ECEF" width="56.399" height="36.019"/>
		<rect x="458.06" y="410.252" fill="#E8ECEF" width="78.009" height="36.019"/>
		<rect x="398.055" y="399.884" fill="#E8ECEF" width="41.797" height="7.465"/>
		<rect x="443.086" y="399.884" fill="#E8ECEF" width="92.983" height="7.465"/>
		<rect x="397.982" y="473.345" fill="#E8ECEF" width="138.087" height="7.465"/>
		<rect x="398.055" y="448.878" fill="#E8ECEF" width="137.771" height="3.98"/>
		<rect x="398.055" y="456.101" fill="#E8ECEF" width="137.771" height="3.98"/>
		<rect x="398.055" y="463.324" fill="#E8ECEF" width="108.387" height="3.98"/>
	</g>
	<rect x="45.663" y="356.262" fill="#00A4E3" width="42.125" height="66.646"/>
	<path fill="#4D5A69" d="M41.046,349.643v79.883h51.36v-79.883H41.046z M45.663,422.908v-66.646h42.125v66.646H45.663z"/>
	<g>
		<rect x="48.72" y="358.858" fill="#E8ECEF" width="36.221" height="7.594"/>
		<rect x="49.218" y="397.658" fill="#E8ECEF" width="35.772" height="3.339"/>
		<rect x="49.212" y="403.719" fill="#E8ECEF" width="35.779" height="3.339"/>
		<rect x="49.392" y="409.78" fill="#E8ECEF" width="17.019" height="3.339"/>
		<rect x="49.392" y="416.047" fill="#E8ECEF" width="4.224" height="3.339"/>
		<rect x="57.227" y="416.047" fill="#E8ECEF" width="4.224" height="3.339"/>
		<rect x="65.061" y="416.047" fill="#E8ECEF" width="4.224" height="3.339"/>
		<rect x="72.895" y="416.047" fill="#E8ECEF" width="4.224" height="3.339"/>
		<rect x="80.729" y="416.047" fill="#E8ECEF" width="4.224" height="3.339"/>
		<rect x="49.017" y="369.646" fill="#E8ECEF" width="35.84" height="12.157"/>
		<rect x="49.017" y="385.638" fill="#E8ECEF" width="35.84" height="8.851"/>
	</g>
	<path fill="#8C9AA9" d="M75.527,429.526H57.924H41.046v1.045c0,6.528,6.006,8.095,15.929,8.095h0.949h17.603h0.949
		c9.923,0,15.929-1.567,15.929-8.095v-1.045H75.527z"/>
	<circle fill="#C5D3E2" cx="66.831" cy="434.096" r="2.92"/>
	<rect x="49.392" y="432.221" fill="#C5D3E2" width="9.946" height="3.134"/>
	<rect x="74.462" y="432.221" fill="#C5D3E2" width="9.946" height="3.134"/>
	<g>
		<g>
			<circle fill="#4D5A69" cx="50.736" cy="344.466" r="3.981"/>
		</g>
		<path fill="#4D5A69" d="M50.736,324.5c-6.143,0-11.682,2.621-15.567,6.8l3.656,3.682c2.943-3.248,7.193-5.292,11.911-5.292
			c4.828,0,9.162,2.142,12.111,5.523l3.665-3.69C62.617,327.213,56.987,324.5,50.736,324.5z"/>
		<path fill="#4D5A69" d="M50.736,322.392c6.83,0,12.985,2.946,17.262,7.633l3.656-3.681c-5.219-5.618-12.663-9.142-20.918-9.142
			c-8.146,0-15.5,3.433-20.708,8.921l3.656,3.681C37.951,325.248,44.014,322.392,50.736,322.392z"/>
		<path fill="#4D5A69" d="M50.736,337.089c2.798,0,5.284,1.337,6.872,3.4l3.676-3.702c-2.545-2.986-6.326-4.888-10.548-4.888
			c-4.112,0-7.801,1.81-10.343,4.663l3.656,3.682C45.641,338.318,48.048,337.089,50.736,337.089z"/>
	</g>
	<g>
		<g>
			<circle fill="#4D5A69" cx="118.159" cy="426.299" r="3.981"/>
		</g>
		<path fill="#4D5A69" d="M118.158,406.333c-6.143,0-11.682,2.621-15.567,6.8l3.656,3.682c2.943-3.248,7.193-5.292,11.911-5.292
			c4.828,0,9.162,2.142,12.111,5.523l3.665-3.69C130.039,409.046,124.41,406.333,118.158,406.333z"/>
		<path fill="#4D5A69" d="M118.158,404.225c6.83,0,12.985,2.946,17.262,7.633l3.656-3.681c-5.219-5.618-12.663-9.142-20.918-9.142
			c-8.146,0-15.5,3.433-20.708,8.921l3.656,3.681C105.374,407.081,111.437,404.225,118.158,404.225z"/>
		<path fill="#4D5A69" d="M118.158,418.922c2.798,0,5.284,1.337,6.872,3.4l3.676-3.702c-2.545-2.986-6.326-4.888-10.548-4.888
			c-4.112,0-7.801,1.81-10.343,4.663l3.656,3.682C113.064,420.151,115.47,418.922,118.158,418.922z"/>
	</g>
	<g>
		<g>
			<circle fill="#4D5A69" cx="527.15" cy="380.136" r="3.981"/>
		</g>
		<path fill="#4D5A69" d="M527.15,360.17c-6.143,0-11.682,2.621-15.567,6.8l3.656,3.682c2.943-3.248,7.193-5.292,11.911-5.292
			c4.828,0,9.162,2.142,12.111,5.523l3.664-3.69C539.031,362.883,533.402,360.17,527.15,360.17z"/>
		<path fill="#4D5A69" d="M527.15,358.062c6.83,0,12.985,2.946,17.262,7.633l3.656-3.681c-5.219-5.618-12.663-9.142-20.918-9.142
			c-8.146,0-15.5,3.433-20.708,8.921l3.656,3.681C514.365,360.918,520.429,358.062,527.15,358.062z"/>
		<path fill="#4D5A69" d="M527.15,372.759c2.798,0,5.284,1.337,6.872,3.4l3.676-3.702c-2.545-2.986-6.326-4.888-10.548-4.888
			c-4.112,0-7.801,1.81-10.343,4.663l3.656,3.682C522.056,373.988,524.462,372.759,527.15,372.759z"/>
	</g>
	<g>
		<g>
			<circle fill="#4D5A69" cx="395.254" cy="264.853" r="3.981"/>
		</g>
		<path fill="#4D5A69" d="M395.254,244.887c-6.143,0-11.682,2.621-15.567,6.8l3.656,3.682c2.943-3.248,7.193-5.292,11.911-5.292
			c4.828,0,9.162,2.142,12.111,5.523l3.665-3.69C407.135,247.6,401.506,244.887,395.254,244.887z"/>
		<path fill="#4D5A69" d="M395.254,242.779c6.83,0,12.985,2.946,17.262,7.633l3.656-3.681c-5.219-5.618-12.663-9.142-20.918-9.142
			c-8.146,0-15.5,3.433-20.708,8.921l3.656,3.681C382.469,245.635,388.533,242.779,395.254,242.779z"/>
		<path fill="#4D5A69" d="M395.254,257.476c2.798,0,5.284,1.337,6.872,3.4l3.676-3.702c-2.545-2.986-6.326-4.888-10.548-4.888
			c-4.112,0-7.801,1.81-10.343,4.663l3.656,3.682C390.16,258.705,392.566,257.476,395.254,257.476z"/>
	</g>
</g>
<g id="Server">
	<g>
		<path fill="#00A4E3" d="M275.097,228.251h-41.508c-1.205,0-2.191-0.986-2.191-2.191v-0.535c0-1.205,0.986-2.191,2.191-2.191
			h41.508c1.205,0,2.191,0.986,2.191,2.191v0.535C277.288,227.265,276.302,228.251,275.097,228.251z"/>
		<path fill="#00A4E3" d="M342.566,228.251h-41.781c-1.205,0-2.191-0.986-2.191-2.191v-0.535c0-1.205,0.986-2.191,2.191-2.191
			h41.781c1.205,0,2.191,0.986,2.191,2.191v0.535C344.757,227.265,343.771,228.251,342.566,228.251z"/>
		<path fill="#00A4E3" d="M288.18,215.95h-0.479c-1.079,0-1.962-0.883-1.962-1.962v-14.816c0-1.079,0.883-1.962,1.962-1.962h0.479
			c1.079,0,1.962,0.883,1.962,1.962v14.816C290.142,215.067,289.259,215.95,288.18,215.95z"/>
		<path fill="#00A4E3" d="M294.482,216.942H281.4c-1.494,0-2.717,1.223-2.717,2.717v12.267c0,1.494,1.223,2.717,2.717,2.717h13.081
			c1.494,0,2.717-1.223,2.717-2.717v-12.267C297.199,218.164,295.976,216.942,294.482,216.942z"/>
		<g>
			<g>
				<path fill="#00A4E3" d="M348.513,195.873H227.642c-2.222,0-4.029-1.807-4.029-4.029v-26.022c0-2.222,1.807-4.029,4.029-4.029
					h120.871c2.221,0,4.028,1.807,4.028,4.029v26.022C352.542,194.066,350.735,195.873,348.513,195.873z M227.71,191.776h120.734
					V165.89H227.71V191.776z"/>
			</g>
			<g>
				<path fill="#00A4E3" d="M331.974,180.303h-18.139c-0.721,0-1.31-0.59-1.31-1.31v-0.32c0-0.721,0.59-1.31,1.31-1.31h18.139
					c0.721,0,1.31,0.59,1.31,1.31v0.32C333.285,179.714,332.695,180.303,331.974,180.303z"/>
			</g>
			<g>
				<circle fill="#00A4E3" cx="340.387" cy="178.833" r="5.364"/>
			</g>
			<g>
				<circle fill="#00A4E3" cx="301.872" cy="178.833" r="2.203"/>
			</g>
			<g>
				<circle fill="#00A4E3" cx="308.427" cy="178.833" r="2.203"/>
			</g>
		</g>
		<g>
			<g>
				<path fill="#00A4E3" d="M348.513,157.875H227.642c-2.222,0-4.029-1.807-4.029-4.029v-26.022c0-2.222,1.807-4.029,4.029-4.029
					h120.871c2.221,0,4.028,1.807,4.028,4.029v26.022C352.542,156.068,350.735,157.875,348.513,157.875z M227.71,153.778h120.734
					v-25.885H227.71V153.778z"/>
			</g>
			<g>
				<path fill="#00A4E3" d="M331.974,142.305h-18.139c-0.721,0-1.31-0.59-1.31-1.31v-0.32c0-0.721,0.59-1.31,1.31-1.31h18.139
					c0.721,0,1.31,0.59,1.31,1.31v0.32C333.285,141.716,332.695,142.305,331.974,142.305z"/>
			</g>
			<g>
				<circle fill="#00A4E3" cx="340.387" cy="140.835" r="5.364"/>
			</g>
			<g>
				<circle fill="#00A4E3" cx="301.872" cy="140.835" r="2.203"/>
			</g>
			<g>
				<circle fill="#00A4E3" cx="308.427" cy="140.835" r="2.203"/>
			</g>
		</g>
	</g>
</g>
<g id="Dos">
	<path fill="#4D5A69" d="M337.544,112.14h-97.897c-3.437,0-6.223-2.786-6.223-6.223V57.254c0-3.437,2.786-6.223,6.223-6.223h97.897
		c3.437,0,6.223,2.786,6.223,6.223v48.663C343.767,109.354,340.981,112.14,337.544,112.14z"/>
	<text transform="matrix(1.0453 0 0 1 246.4251 90.5398)" fill="#F2F2F3" font-family="'MyriadPro-Regular'" font-size="40">&gt;_</text>
</g>
<g id="Lock">
	<path fill="#EB5C2C" d="M199.646,161.047h-5.408v-17.083c0-14.22-11.568-25.788-25.788-25.788
		c-14.22,0-25.788,11.568-25.788,25.788v17.083h-5.408c-1.798,0-3.27,1.471-3.27,3.27v55.917c0,1.798,1.471,3.27,3.27,3.27h62.393
		c1.798,0,3.27-1.471,3.27-3.27v-55.917C202.916,162.519,201.444,161.047,199.646,161.047z M172.168,193.259l1.235,10.593
		c0,1.147-0.915,1.807-2.085,2.085c-1.171,0.278-4.392,0.186-5.737,0c-1.345-0.186-2.085-0.938-2.085-2.085l1.235-10.593
		c-3.459-1.454-5.889-4.873-5.889-8.861c0-5.307,4.302-9.608,9.608-9.608c5.307,0,9.608,4.302,9.608,9.608
		C178.058,188.386,175.628,191.806,172.168,193.259z M184.779,161.047h-32.66v-17.083c0-9.004,7.326-16.33,16.33-16.33
		s16.33,7.325,16.33,16.33V161.047z"/>
	<g>
		<polygon fill="#4D5A69" points="425.546,176.967 448.093,137.133 456.883,143.795 461.937,149.593 		"/>
	</g>
	<g>
		<polygon fill="#F9B041" points="425.546,176.967 446.917,216.62 438.723,220.044 428.343,222.564 415.896,220.965 
			399.669,213.831 		"/>
	</g>
	<g>
		<polygon fill="#8FC045" points="425.546,176.967 386.383,154.712 381.893,165.84 380.508,176.967 		"/>
	</g>
	<g>
		<polygon fill="#D5DA30" points="425.546,176.967 469.197,165.84 470.584,176.967 469.799,185.365 		"/>
	</g>
	<g>
		<path fill="#4D5A69" d="M425.546,224.103c-25.991,0-47.136-21.145-47.136-47.136s21.145-47.136,47.136-47.136
			s47.136,21.145,47.136,47.136S451.537,224.103,425.546,224.103z M425.546,134.027c-23.677,0-42.94,19.263-42.94,42.94
			s19.263,42.94,42.94,42.94s42.94-19.263,42.94-42.94S449.223,134.027,425.546,134.027z"/>
	</g>
</g>
</svg>
