<?xml version="1.0" encoding="utf-8"?>
<!-- Generator: Adobe Illustrator 17.0.0, SVG Export Plug-In . SVG Version: 6.00 Build 0)  -->
<!DOCTYPE svg PUBLIC "-//W3C//DTD SVG 1.1//EN" "http://www.w3.org/Graphics/SVG/1.1/DTD/svg11.dtd">
<svg version="1.1" id="Capa_1" xmlns="http://www.w3.org/2000/svg" xmlns:xlink="http://www.w3.org/1999/xlink" x="0px" y="0px"
	 width="590px" height="590px" viewBox="0 0 590 590" enable-background="new 0 0 590 590" xml:space="preserve">
<path fill="#D75A4A" d="M438.697,25.958c34.61-34.61,90.735-34.61,125.345,0c34.61,34.61,34.61,90.735,0,125.345L438.697,25.958z"/>
<g>
	<polygon fill="#ED8A19" points="470.028,198.299 182.933,485.405 177.061,538.284 493.537,221.797 493.537,221.797 	"/>
	<polygon fill="#ED8A19" points="114.388,475.612 167.267,469.74 454.363,182.634 407.366,135.637 120.26,422.733 	"/>
	<polygon fill="#ED8A19" points="391.701,119.972 368.192,96.463 368.192,96.463 51.716,412.939 104.595,407.067 	"/>
</g>
<polygon fill="#C7CAC7" points="540.533,174.801 540.533,174.801 564.042,151.303 438.697,25.958 415.188,49.467 415.199,49.467 "/>
<polygon fill="#C7CAC7" points="399.523,65.132 399.523,65.132 383.857,80.797 383.857,80.797 509.203,206.132 509.203,206.132 
	524.868,190.466 524.868,190.466 "/>
<path fill="#FBCE9D" d="M159.8,492.872l-56.745,6.304c-0.399,0.044-0.809,0.066-1.208,0.066h-0.011h0l0,0c-0.011,0-0.011,0-0.011,0
	c-0.399,0-0.809-0.022-1.208-0.066c-0.432-0.044-0.787-0.288-1.197-0.388c-0.798-0.188-1.562-0.388-2.293-0.742
	c-0.554-0.266-1.03-0.587-1.529-0.931c-0.631-0.443-1.208-0.92-1.739-1.485c-0.421-0.443-0.764-0.897-1.108-1.407
	c-0.421-0.631-0.764-1.285-1.052-2.005c-0.244-0.598-0.421-1.185-0.554-1.828c-0.078-0.355-0.266-0.654-0.31-1.019
	c-0.044-0.421,0.111-0.809,0.111-1.219c0-0.421-0.155-0.798-0.111-1.219l6.304-56.745l-56.745,6.304
	c-0.41,0.044-0.831,0.066-1.23,0.066c-0.875,0-1.684-0.266-2.515-0.465L4.897,569.438l23.332-23.332
	c4.332-4.332,11.334-4.332,15.665,0s4.332,11.334,0,15.665l-23.332,23.332l133.278-31.73c-0.288-1.208-0.476-2.46-0.332-3.756
	L159.8,492.872z"/>
<path fill="#38454F" d="M43.894,546.106c-4.332-4.332-11.334-4.332-15.665,0L4.897,569.438L0,590l20.562-4.897l23.332-23.332
	C48.215,557.44,48.215,550.438,43.894,546.106z"/>
<polygon fill="#F2ECBF" points="540.533,174.801 415.199,49.467 415.188,49.467 399.523,65.132 399.523,65.132 524.868,190.466 
	524.868,190.466 "/>
<path fill="#E56A17" d="M454.363,182.634L167.267,469.74l-52.879,5.872l5.872-52.879l287.106-287.095l-15.665-15.665
	L104.595,407.067l-52.879,5.872l-12.552,12.552l-2.526,10.602c0.831,0.199,1.629,0.465,2.515,0.465c0.399,0,0.82-0.022,1.23-0.066
	l56.745-6.304l-6.304,56.745c-0.044,0.421,0.111,0.809,0.111,1.219c0,0.421-0.155,0.798-0.111,1.219
	c0.044,0.366,0.233,0.665,0.31,1.019c0.133,0.631,0.321,1.241,0.554,1.828c0.288,0.709,0.631,1.374,1.052,2.005
	c0.332,0.499,0.698,0.975,1.108,1.407c0.521,0.554,1.108,1.041,1.739,1.485c0.487,0.343,0.986,0.676,1.529,0.931
	c0.72,0.343,1.496,0.554,2.293,0.742c0.421,0.1,0.764,0.332,1.197,0.388c0.399,0.044,0.798,0.066,1.208,0.066h0.011l0,0h0.011h0.011
	h0.011l0,0c0.388,0,0.798-0.022,1.208-0.066l56.745-6.304l-6.304,56.745c-0.144,1.307,0.044,2.548,0.332,3.756l10.669-2.537
	l12.552-12.541l5.872-52.879L470.028,198.31L454.363,182.634z"/>
<polygon fill="#F2ECBF" points="509.203,206.132 383.857,80.797 383.857,80.797 368.192,96.463 368.192,96.463 391.701,119.972 
	407.366,135.637 454.363,182.634 470.028,198.299 493.537,221.797 493.537,221.797 "/>
</svg>
