<svg xmlns="http://www.w3.org/2000/svg" width="590" height="590" viewBox="0 0 590 590"><path fill="#D8DCE1" d="M0 154.414v377.969c0 25.415 20.679 46.094 46.094 46.094h497.813c25.415 0 46.094-20.679 46.094-46.094V154.414H0z"/><path fill="#FF4F19" d="M543.906 25.352H46.094C20.679 25.352 0 46.03 0 71.445v82.969h590V71.445c0-25.415-20.68-46.093-46.094-46.093zM73.75 117.539c-15.274 0-27.656-12.382-27.656-27.656S58.476 62.227 73.75 62.227s27.656 12.382 27.656 27.656-12.382 27.656-27.656 27.656zm442.5 0c-15.274 0-27.656-12.382-27.656-27.656s12.382-27.656 27.656-27.656 27.656 12.382 27.656 27.656-12.382 27.656-27.656 27.656z"/><path fill="#FFF" d="M295 230.629c-21.401 0-38.805 17.404-38.805 38.805s17.404 38.805 38.805 38.805 38.805-17.404 38.805-38.805-17.404-38.805-38.805-38.805zm-97.012 0c-21.401 0-38.805 17.404-38.805 38.805s17.404 38.805 38.805 38.805 38.805-17.404 38.805-38.805-17.404-38.805-38.805-38.805zm-97.011 0c-21.401 0-38.805 17.404-38.805 38.805s17.404 38.805 38.805 38.805 38.805-17.404 38.805-38.805-17.405-38.805-38.805-38.805zm291.035 0c-21.401 0-38.805 17.404-38.805 38.805s17.404 38.805 38.805 38.805 38.805-17.404 38.805-38.805-17.404-38.805-38.805-38.805zm97.011 77.609c21.401 0 38.805-17.404 38.805-38.805s-17.404-38.805-38.805-38.805-38.805 17.404-38.805 38.805 17.403 38.805 38.805 38.805zM295 327.641c-21.401 0-38.805 17.404-38.805 38.805S273.599 405.25 295 405.25s38.805-17.404 38.805-38.805-17.404-38.804-38.805-38.804zm-97.012 0c-21.401 0-38.805 17.404-38.805 38.805s17.404 38.805 38.805 38.805 38.805-17.404 38.805-38.805-17.404-38.805-38.805-38.805zm-97.011 0c-21.401 0-38.805 17.404-38.805 38.805s17.404 38.805 38.805 38.805 38.805-17.404 38.805-38.805-17.405-38.805-38.805-38.805zm291.035 0c-21.401 0-38.805 17.404-38.805 38.805s17.404 38.805 38.805 38.805 38.805-17.404 38.805-38.805-17.404-38.805-38.805-38.805z"/><path fill="#FF4F19" d="M489.023 327.641c-21.401 0-38.805 17.404-38.805 38.805s17.404 38.805 38.805 38.805 38.805-17.404 38.805-38.805-17.404-38.805-38.805-38.805z"/><path fill="#FFF" d="M295 424.652c-21.401 0-38.805 17.404-38.805 38.805s17.404 38.805 38.805 38.805 38.805-17.404 38.805-38.805c0-21.402-17.404-38.805-38.805-38.805zm-97.012 0c-21.401 0-38.805 17.404-38.805 38.805s17.404 38.805 38.805 38.805 38.805-17.404 38.805-38.805c0-21.402-17.404-38.805-38.805-38.805zm-97.011 0c-21.401 0-38.805 17.404-38.805 38.805s17.404 38.805 38.805 38.805 38.805-17.404 38.805-38.805c-.001-21.402-17.405-38.805-38.805-38.805zm291.035 0c-21.401 0-38.805 17.404-38.805 38.805s17.404 38.805 38.805 38.805 38.805-17.404 38.805-38.805c-.001-21.402-17.404-38.805-38.805-38.805zm97.011 0c-21.401 0-38.805 17.404-38.805 38.805s17.404 38.805 38.805 38.805 38.805-17.404 38.805-38.805c0-21.402-17.404-38.805-38.805-38.805z"/><path fill="#5C546A" d="M516.25 94.323c-9.38 0-16.99-6.214-16.99-13.884V15.645c0-7.67 7.61-13.884 16.99-13.884 9.38 0 16.99 6.214 16.99 13.884v64.794c0 7.67-7.61 13.884-16.99 13.884z"/><circle fill="#FF4F19" cx="100.977" cy="269.434" r="38.805"/><circle fill="#FF9600" cx="295" cy="463.457" r="38.805"/><circle fill="#FF4F19" cx="392.012" cy="366.445" r="38.805"/><path fill="#5C546A" d="M73.162 94.323c-9.38 0-16.99-6.214-16.99-13.884V15.645c0-7.67 7.61-13.884 16.99-13.884s16.99 6.214 16.99 13.884v64.794c0 7.67-7.61 13.884-16.99 13.884z"/></svg>