<svg xmlns="http://www.w3.org/2000/svg" width="590" height="590" viewBox="0 0 590 590"><path fill="#D75A4A" d="M438.697 25.958c34.61-34.61 90.735-34.61 125.345 0s34.61 90.735 0 125.345L438.697 25.958z"/><path d="M470.028 198.299L182.933 485.405l-5.872 52.879 316.476-316.487zm-355.64 277.313l52.879-5.872 287.096-287.106-46.997-46.997L120.26 422.733zm277.313-355.64l-23.509-23.509L51.716 412.939l52.879-5.872z" fill="#ED8A19"/><path fill="#C7CAC7" d="M540.533 174.801l23.509-23.498L438.697 25.958l-23.509 23.509h.011zM399.523 65.132l-15.666 15.665 125.346 125.335 15.665-15.666z"/><path fill="#FBCE9D" d="M159.8 492.872l-56.745 6.304c-.399.044-.809.066-1.208.066h-.022c-.399 0-.809-.022-1.208-.066-.432-.044-.787-.288-1.197-.388-.798-.188-1.562-.388-2.293-.742-.554-.266-1.03-.587-1.529-.931a11.082 11.082 0 0 1-1.739-1.485 10.506 10.506 0 0 1-1.108-1.407 10.769 10.769 0 0 1-1.052-2.005 10.218 10.218 0 0 1-.554-1.828c-.078-.355-.266-.654-.31-1.019-.044-.421.111-.809.111-1.219 0-.421-.155-.798-.111-1.219l6.304-56.745-56.745 6.304c-.41.044-.831.066-1.23.066-.875 0-1.684-.266-2.515-.465L4.897 569.438l23.332-23.332c4.332-4.332 11.334-4.332 15.665 0s4.332 11.334 0 15.665l-23.332 23.332 133.278-31.73c-.288-1.208-.476-2.46-.332-3.756l6.292-56.745z"/><path fill="#38454F" d="M43.894 546.106a11.066 11.066 0 0 0-15.665 0L4.897 569.438 0 590l20.562-4.897 23.332-23.332c4.321-4.331 4.321-11.333 0-15.665z"/><path fill="#F2ECBF" d="M540.533 174.801L415.199 49.467h-.011l-15.665 15.665 125.345 125.334z"/><path fill="#E56A17" d="M454.363 182.634L167.267 469.74l-52.879 5.872 5.872-52.879 287.106-287.095-15.665-15.665-287.106 287.094-52.879 5.872-12.552 12.552-2.526 10.602c.831.199 1.629.465 2.515.465.399 0 .82-.022 1.23-.066l56.745-6.304-6.304 56.745c-.044.421.111.809.111 1.219 0 .421-.155.798-.111 1.219.044.366.233.665.31 1.019a11.125 11.125 0 0 0 2.714 5.24 11.269 11.269 0 0 0 1.739 1.485c.487.343.986.676 1.529.931.72.343 1.496.554 2.293.742.421.1.764.332 1.197.388.399.044.798.066 1.208.066h.044c.388 0 .798-.022 1.208-.066l56.745-6.304-6.304 56.745c-.144 1.307.044 2.548.332 3.756l10.669-2.537 12.552-12.541 5.872-52.879L470.028 198.31l-15.665-15.676z"/><path fill="#F2ECBF" d="M509.203 206.132L383.857 80.797l-15.665 15.666 23.509 23.509 15.665 15.665 46.997 46.997 15.665 15.665 23.509 23.498z"/></svg>