<?xml version="1.0" encoding="utf-8"?>
<!-- Generator: Adobe Illustrator 17.0.0, SVG Export Plug-In . SVG Version: 6.00 Build 0)  -->
<!DOCTYPE svg PUBLIC "-//W3C//DTD SVG 1.1//EN" "http://www.w3.org/Graphics/SVG/1.1/DTD/svg11.dtd">
<svg version="1.1" id="Calque_1" xmlns="http://www.w3.org/2000/svg" xmlns:xlink="http://www.w3.org/1999/xlink" x="0px" y="0px"
	 width="590px" height="590px" viewBox="0 0 590 590" enable-background="new 0 0 590 590" xml:space="preserve">
<g id="Layer_7" display="none">
	<circle display="inline" fill="#C3E4F8" cx="295.788" cy="296.129" r="286.41"/>
</g>
<g id="Laptop">
	<path fill="#A7A9AB" d="M440.068,579.328H146.495c-2.143,0-3.881-1.738-3.881-3.881V386.005c0-2.143,1.738-3.881,3.881-3.881
		h293.573c2.143,0,3.881,1.738,3.881,3.881v189.442C443.949,577.59,442.211,579.328,440.068,579.328z"/>
	<path fill="#6E7072" d="M148.283,382.124c-2.774,0-5.022,2.249-5.022,5.022v187.16c0,2.774,2.249,5.022,5.022,5.022h76.222
		l211.854-197.204L148.283,382.124L148.283,382.124z"/>
	
		<radialGradient id="SVGID_1_" cx="-1946.0486" cy="546.9271" r="184.6773" gradientTransform="matrix(1 0 0 1 2239.3301 -251.5701)" gradientUnits="userSpaceOnUse">
		<stop  offset="0" style="stop-color:#FFFFFF"/>
		<stop  offset="0.3148" style="stop-color:#FEFFFF"/>
		<stop  offset="0.4653" style="stop-color:#F8FCFE"/>
		<stop  offset="0.5809" style="stop-color:#ECF5FD"/>
		<stop  offset="0.6786" style="stop-color:#DEECFA"/>
		<stop  offset="0.7651" style="stop-color:#C8E1F5"/>
		<stop  offset="0.8437" style="stop-color:#AAD1F1"/>
		<stop  offset="0.9164" style="stop-color:#84C2EB"/>
		<stop  offset="0.9823" style="stop-color:#49AFE4"/>
		<stop  offset="1" style="stop-color:#30A9E1"/>
	</radialGradient>
	
		<rect x="146.461" y="213.413" fill="url(#SVGID_1_)" stroke="#6E7072" stroke-width="6" stroke-linejoin="round" stroke-miterlimit="10" width="293.641" height="163.888"/>
	<g>
		<g>
			<rect x="407.506" y="399.282" fill="#FFFFFF" width="18.921" height="12.94"/>
		</g>
		<g>
			<rect x="382.919" y="399.282" fill="#FFFFFF" width="18.921" height="12.94"/>
		</g>
		<g>
			<rect x="358.333" y="399.282" fill="#FFFFFF" width="18.921" height="12.94"/>
		</g>
		<g>
			<rect x="333.746" y="399.282" fill="#FFFFFF" width="18.921" height="12.94"/>
		</g>
		<g>
			<rect x="309.16" y="399.282" fill="#FFFFFF" width="18.921" height="12.94"/>
		</g>
		<g>
			<rect x="284.574" y="399.282" fill="#FFFFFF" width="18.921" height="12.94"/>
		</g>
		<g>
			<rect x="259.987" y="399.282" fill="#FFFFFF" width="18.921" height="12.94"/>
		</g>
		<g>
			<rect x="235.401" y="399.282" fill="#FFFFFF" width="18.921" height="12.94"/>
		</g>
		<g>
			<rect x="210.814" y="399.282" fill="#FFFFFF" width="18.921" height="12.94"/>
		</g>
		<g>
			<rect x="186.228" y="399.282" fill="#FFFFFF" width="18.921" height="12.94"/>
		</g>
		<g>
			<rect x="161.641" y="399.282" fill="#FFFFFF" width="18.921" height="12.94"/>
		</g>
	</g>
	<g>
		<rect x="407.506" y="493.745" fill="#FFFFFF" width="18.921" height="16.822"/>
	</g>
	<g>
		<rect x="382.919" y="493.745" fill="#FFFFFF" width="18.921" height="16.822"/>
	</g>
	<g>
		<rect x="358.333" y="493.745" fill="#FFFFFF" width="18.921" height="16.822"/>
	</g>
	<g>
		<rect x="333.746" y="493.745" fill="#FFFFFF" width="18.921" height="16.822"/>
	</g>
	<g>
		<rect x="309.16" y="493.745" fill="#FFFFFF" width="18.921" height="16.822"/>
	</g>
	<g>
		<rect x="284.574" y="493.745" fill="#FFFFFF" width="18.921" height="16.822"/>
	</g>
	<g>
		<rect x="259.987" y="493.745" fill="#FFFFFF" width="18.921" height="16.822"/>
	</g>
	<g>
		<rect x="235.401" y="493.745" fill="#FFFFFF" width="108.208" height="16.822"/>
	</g>
	<g>
		<rect x="210.814" y="493.745" fill="#FFFFFF" width="18.921" height="16.822"/>
	</g>
	<g>
		<rect x="186.228" y="493.745" fill="#FFFFFF" width="18.921" height="16.822"/>
	</g>
	<g>
		<rect x="161.641" y="493.745" fill="#FFFFFF" width="18.921" height="16.822"/>
	</g>
	<g>
		<rect x="407.506" y="469.159" fill="#FFFFFF" width="18.921" height="16.822"/>
	</g>
	<g>
		<rect x="398.448" y="469.159" fill="#FFFFFF" width="25.391" height="16.822"/>
	</g>
	<g>
		<rect x="373.861" y="469.159" fill="#FFFFFF" width="18.921" height="16.822"/>
	</g>
	<g>
		<rect x="349.275" y="469.159" fill="#FFFFFF" width="18.921" height="16.822"/>
	</g>
	<g>
		<rect x="324.688" y="469.159" fill="#FFFFFF" width="18.921" height="16.822"/>
	</g>
	<g>
		<rect x="300.102" y="469.159" fill="#FFFFFF" width="18.921" height="16.822"/>
	</g>
	<g>
		<rect x="275.515" y="469.159" fill="#FFFFFF" width="18.921" height="16.822"/>
	</g>
	<g>
		<rect x="250.929" y="469.159" fill="#FFFFFF" width="18.921" height="16.822"/>
	</g>
	<g>
		<rect x="226.343" y="469.159" fill="#FFFFFF" width="18.921" height="16.822"/>
	</g>
	<g>
		<rect x="201.756" y="469.159" fill="#FFFFFF" width="18.921" height="16.822"/>
	</g>
	<g>
		<rect x="161.641" y="469.159" fill="#FFFFFF" width="34.449" height="16.822"/>
	</g>
	<g>
		<rect x="385.076" y="444.572" fill="#FFFFFF" width="41.35" height="16.822"/>
	</g>
	<g>
		<rect x="246.184" y="517.9" fill="#FFFFFF" width="96.562" height="53.055"/>
	</g>
	<g>
		<rect x="359.627" y="444.572" fill="#FFFFFF" width="18.921" height="16.822"/>
	</g>
	<g>
		<rect x="335.04" y="444.572" fill="#FFFFFF" width="18.921" height="16.822"/>
	</g>
	<g>
		<rect x="310.454" y="444.572" fill="#FFFFFF" width="18.921" height="16.822"/>
	</g>
	<g>
		<rect x="285.868" y="444.572" fill="#FFFFFF" width="18.921" height="16.822"/>
	</g>
	<g>
		<rect x="261.281" y="444.572" fill="#FFFFFF" width="18.921" height="16.822"/>
	</g>
	<g>
		<rect x="236.695" y="444.572" fill="#FFFFFF" width="18.921" height="16.822"/>
	</g>
	<g>
		<rect x="212.108" y="444.572" fill="#FFFFFF" width="18.921" height="16.822"/>
	</g>
	<g>
		<rect x="187.522" y="444.572" fill="#FFFFFF" width="18.921" height="16.822"/>
	</g>
	<g>
		<rect x="161.641" y="444.572" fill="#FFFFFF" width="18.921" height="16.822"/>
	</g>
	<g>
		<rect x="407.506" y="419.986" fill="#FFFFFF" width="18.921" height="16.822"/>
	</g>
	<g>
		<rect x="394.565" y="419.986" fill="#FFFFFF" width="26.253" height="16.822"/>
	</g>
	<g>
		<rect x="369.979" y="419.986" fill="#FFFFFF" width="18.921" height="16.822"/>
	</g>
	<g>
		<rect x="345.393" y="419.986" fill="#FFFFFF" width="18.921" height="16.822"/>
	</g>
	<g>
		<rect x="320.806" y="419.986" fill="#FFFFFF" width="18.921" height="16.822"/>
	</g>
	<g>
		<rect x="296.22" y="419.986" fill="#FFFFFF" width="18.921" height="16.822"/>
	</g>
	<g>
		<rect x="271.633" y="419.986" fill="#FFFFFF" width="18.921" height="16.822"/>
	</g>
	<g>
		<rect x="247.047" y="419.986" fill="#FFFFFF" width="18.921" height="16.822"/>
	</g>
	<g>
		<rect x="222.461" y="419.986" fill="#FFFFFF" width="18.921" height="16.822"/>
	</g>
	<g>
		<rect x="197.874" y="419.986" fill="#FFFFFF" width="18.921" height="16.822"/>
	</g>
	<g>
		<rect x="161.641" y="419.986" fill="#FFFFFF" width="30.567" height="16.822"/>
	</g>
</g>
<g id="Mouse">
	<path fill="#A7A9AB" d="M492.745,454.334c-0.056,0-0.111,0.004-0.167,0.004v88.049c0.056,0,0.111,0.004,0.167,0.004
		c14.829,0,26.851-12.022,26.851-26.851v-34.356C519.596,466.355,507.574,454.334,492.745,454.334z"/>
	<path fill="#6E7072" d="M492.745,454.334c0.056,0,0.111,0.004,0.167,0.004v88.049c-0.056,0-0.111,0.004-0.167,0.004
		c-14.829,0-26.851-12.022-26.851-26.851v-34.356C465.894,466.355,477.916,454.334,492.745,454.334z"/>
	<circle fill="#FFFFFF" cx="492.912" cy="472.512" r="9.339"/>
</g>
<g id="Document">
	<g>
		<path opacity="0.12" fill="#010202" enable-background="new    " d="M383.281,87.832l-161.99-0.151
			c-7.6-0.007-13.825,6.206-13.831,13.806l-0.205,218.796c-0.007,7.6,6.206,13.825,13.806,13.831l161.99,0.151
			c7.6,0.007,13.825-6.206,13.832-13.806l0.205-218.796C397.093,94.063,390.881,87.84,383.281,87.832z"/>
		<path fill="#FFFFFF" d="M393.808,324.103l-165.628-0.155c-6.6-0.007-11.995-5.412-11.988-12.012L216.4,89.503
			c0.007-6.6,5.412-11.995,12.012-11.988l165.628,0.155c6.6,0.007,11.995,5.412,11.988,12.012l-0.208,222.434
			C405.813,318.715,400.408,324.11,393.808,324.103z"/>
		<rect x="366.058" y="138.648" fill="#F39425" width="13.511" height="7.684"/>
		<rect x="343.538" y="138.63" fill="#F39425" width="20.033" height="7.684"/>
		<polygon fill="#F39425" points="267.133,179.728 265.274,179.727 257.803,179.72 257.795,187.404 265.266,187.411 
			267.125,187.412 283.104,187.427 283.112,179.744 		"/>
		<polygon fill="#E84239" points="330.246,199.546 326.302,199.542 323.528,199.54 313.584,199.531 297.589,199.516 297.581,207.2 
			313.576,207.215 323.52,207.224 326.294,207.226 330.238,207.23 335.624,207.235 335.632,199.551 		"/>
		<rect x="244.041" y="243.644" fill="#F39425" width="13.447" height="7.684"/>
		<rect x="300.335" y="257.141" fill="#F39425" width="13.172" height="7.684"/>
		<polygon fill="#E84239" points="347.7,301.649 340.627,301.642 337.608,301.64 324.436,301.627 313.122,301.617 313.115,309.301 
			324.428,309.311 337.6,309.324 340.619,309.326 347.692,309.333 353.792,309.338 353.799,301.654 		"/>
		<g>
			<rect x="232.038" y="92.976" fill="#1AA3DE" width="20.033" height="7.684"/>
			<rect x="343.477" y="93.078" fill="#1AA3DE" width="22.503" height="7.684"/>
			<rect x="304.323" y="93.039" fill="#1AA3DE" width="13.172" height="7.684"/>
			<rect x="331.889" y="93.061" fill="#1AA3DE" width="9.33" height="7.684"/>
			<rect x="293.01" y="93.027" fill="#1AA3DE" width="9.33" height="7.684"/>
			<rect x="368.322" y="93.101" fill="#1AA3DE" width="23.981" height="7.684"/>
			<rect x="319.995" y="93.051" fill="#1AA3DE" width="9.943" height="7.684"/>
			<rect x="254.603" y="92.994" fill="#1AA3DE" width="13.447" height="7.684"/>
			<rect x="270.308" y="93.011" fill="#1AA3DE" width="20.033" height="7.684"/>
			<rect x="308.614" y="106.493" fill="#1AA3DE" width="22.503" height="7.684"/>
			<rect x="334.074" y="106.51" fill="#1AA3DE" width="9.33" height="7.684"/>
			<rect x="346.236" y="106.52" fill="#1AA3DE" width="9.33" height="7.684"/>
			<polygon fill="#1AA3DE" points="372.367,106.555 368.309,106.551 359.195,106.543 359.188,114.227 368.302,114.235 
				372.361,114.239 392.283,114.257 392.29,106.574 			"/>
			<rect x="292.541" y="106.474" fill="#1AA3DE" width="13.511" height="7.684"/>
			<polygon fill="#1AA3DE" points="261.938,106.452 254.316,106.445 232.026,106.424 232.019,114.108 254.309,114.129 
				261.931,114.136 267.756,114.141 267.763,106.457 			"/>
			<rect x="270.022" y="106.457" fill="#1AA3DE" width="20.033" height="7.684"/>
			<rect x="266.615" y="119.627" fill="#1AA3DE" width="22.503" height="7.684"/>
			<rect x="255.027" y="119.612" fill="#1AA3DE" width="9.33" height="7.684"/>
			<rect x="232.015" y="119.596" fill="#1AA3DE" width="20.033" height="7.684"/>
			<rect x="272.024" y="138.562" fill="#1AA3DE" width="9.33" height="7.684"/>
			<rect x="311.904" y="138.6" fill="#1AA3DE" width="12.898" height="7.684"/>
			<rect x="284.581" y="138.58" fill="#1AA3DE" width="23.981" height="7.684"/>
			<rect x="255.19" y="138.55" fill="#1AA3DE" width="13.511" height="7.684"/>
			<rect x="231.997" y="138.532" fill="#1AA3DE" width="20.033" height="7.684"/>
			<rect x="327.834" y="138.614" fill="#1AA3DE" width="13.447" height="7.684"/>
			<rect x="382.931" y="138.661" fill="#1AA3DE" width="9.33" height="7.684"/>
			<rect x="314.822" y="152.322" fill="#1AA3DE" width="9.33" height="7.684"/>
			<rect x="302.105" y="152.311" fill="#1AA3DE" width="9.943" height="7.684"/>
			<rect x="231.986" y="152.25" fill="#1AA3DE" width="13.996" height="7.684"/>
			<rect x="379.078" y="152.381" fill="#1AA3DE" width="13.172" height="7.684"/>
			<polygon fill="#1AA3DE" points="292.866,152.31 286.43,152.304 283.624,152.302 274.293,152.293 261.856,152.281 
				261.849,159.965 274.286,159.977 283.617,159.985 286.423,159.988 292.859,159.994 299.596,160.001 299.602,152.317 			"/>
			<rect x="367.326" y="152.368" fill="#1AA3DE" width="9.33" height="7.684"/>
			<rect x="249.141" y="152.263" fill="#1AA3DE" width="9.943" height="7.684"/>
			<rect x="326.45" y="152.334" fill="#1AA3DE" width="13.447" height="7.684"/>
			<rect x="355.163" y="152.358" fill="#1AA3DE" width="9.33" height="7.684"/>
			<rect x="342.445" y="152.346" fill="#1AA3DE" width="9.943" height="7.684"/>
			<rect x="244.433" y="165.707" fill="#1AA3DE" width="13.172" height="7.684"/>
			<rect x="272.823" y="165.73" fill="#1AA3DE" width="9.33" height="7.684"/>
			<rect x="231.973" y="165.695" fill="#1AA3DE" width="9.33" height="7.684"/>
			<rect x="260.105" y="165.72" fill="#1AA3DE" width="9.943" height="7.684"/>
			<rect x="336.64" y="165.789" fill="#1AA3DE" width="13.172" height="7.684"/>
			<rect x="284.451" y="165.743" fill="#1AA3DE" width="13.447" height="7.684"/>
			<polygon fill="#1AA3DE" points="322.491,165.785 313.161,165.776 310.387,165.773 308.859,165.772 300.443,165.764 
				300.436,173.448 308.851,173.456 310.379,173.457 313.153,173.46 322.484,173.469 334.647,173.48 334.655,165.796 			"/>
			<rect x="352.831" y="166.079" fill="#1AA3DE" width="13.172" height="7.684"/>
			<rect x="381.809" y="166.104" fill="#1AA3DE" width="10.428" height="7.684"/>
			<rect x="368.503" y="166.091" fill="#1AA3DE" width="9.943" height="7.684"/>
			<rect x="298.333" y="179.749" fill="#1AA3DE" width="9.33" height="7.684"/>
			<rect x="285.615" y="179.739" fill="#1AA3DE" width="9.943" height="7.684"/>
			<rect x="245.369" y="179.702" fill="#1AA3DE" width="9.33" height="7.684"/>
			<rect x="231.961" y="179.691" fill="#1AA3DE" width="9.943" height="7.684"/>
			<rect x="309.96" y="179.762" fill="#1AA3DE" width="13.447" height="7.684"/>
			<rect x="325.955" y="179.775" fill="#1AA3DE" width="9.943" height="7.684"/>
			<rect x="257.576" y="199.474" fill="#1AA3DE" width="13.172" height="7.684"/>
			<rect x="285.966" y="199.498" fill="#1AA3DE" width="9.33" height="7.684"/>
			<rect x="245.439" y="199.461" fill="#1AA3DE" width="9.33" height="7.684"/>
			<rect x="273.248" y="199.486" fill="#1AA3DE" width="9.943" height="7.684"/>
			<rect x="349.783" y="199.557" fill="#1AA3DE" width="13.172" height="7.684"/>
			<rect x="231.944" y="199.449" fill="#1AA3DE" width="9.33" height="7.684"/>
			<rect x="338.47" y="199.544" fill="#1AA3DE" width="9.33" height="7.684"/>
			<rect x="365.974" y="199.845" fill="#1AA3DE" width="13.172" height="7.684"/>
			<rect x="382.265" y="199.858" fill="#1AA3DE" width="9.943" height="7.684"/>
			<rect x="231.93" y="214.545" fill="#1AA3DE" width="13.172" height="7.684"/>
			<polygon fill="#1AA3DE" points="257.926,214.572 254.937,214.569 247.982,214.562 247.975,222.246 254.929,222.253 
				257.918,222.256 270.023,222.268 270.03,214.584 			"/>
			<rect x="324.522" y="214.626" fill="#1AA3DE" width="13.172" height="7.684"/>
			<polygon fill="#1AA3DE" points="322.534,214.633 310.371,214.621 301.04,214.612 298.266,214.61 288.323,214.601 
				285.774,214.598 280.822,214.593 272.328,214.585 272.32,222.269 280.814,222.277 285.767,222.282 288.315,222.284 
				288.315,222.284 298.258,222.294 298.258,222.294 301.033,222.296 301.033,222.296 310.363,222.305 310.363,222.305 
				322.526,222.316 			"/>
			<rect x="340.712" y="214.915" fill="#1AA3DE" width="13.172" height="7.684"/>
			<rect x="369.102" y="214.938" fill="#1AA3DE" width="9.33" height="7.684"/>
			<rect x="356.385" y="214.928" fill="#1AA3DE" width="9.943" height="7.684"/>
			<rect x="381.491" y="214.951" fill="#1AA3DE" width="10.703" height="7.684"/>
			<rect x="231.917" y="228.813" fill="#1AA3DE" width="9.943" height="7.684"/>
			<polygon fill="#1AA3DE" points="259.315,228.844 256.672,228.841 245.044,228.83 245.037,236.514 256.664,236.524 
				259.307,236.527 270.111,236.538 270.119,228.854 			"/>
			<rect x="231.904" y="243.632" fill="#1AA3DE" width="9.33" height="7.684"/>
			<rect x="272.754" y="243.668" fill="#1AA3DE" width="9.33" height="7.684"/>
			<rect x="260.036" y="243.657" fill="#1AA3DE" width="9.943" height="7.684"/>
			<polygon fill="#1AA3DE" points="320.586,243.719 312.415,243.712 309.397,243.71 296.224,243.697 284.911,243.687 
				284.903,251.371 296.216,251.381 309.389,251.393 312.407,251.396 320.578,251.403 325.58,251.408 325.588,243.724 			"/>
			<rect x="340.812" y="243.729" fill="#1AA3DE" width="9.33" height="7.684"/>
			<rect x="328.094" y="243.718" fill="#1AA3DE" width="9.943" height="7.684"/>
			<polygon fill="#1AA3DE" points="384.54,243.779 382.832,243.777 378.371,243.773 368.428,243.764 352.433,243.75 
				352.425,251.434 368.42,251.448 378.363,251.457 382.824,251.461 384.533,251.463 392.154,251.47 392.162,243.786 			"/>
			<rect x="231.891" y="256.806" fill="#1AA3DE" width="13.447" height="7.684"/>
			<polygon fill="#1AA3DE" points="291.396,256.865 284.137,256.858 282.154,256.856 272.824,256.847 260.661,256.836 
				260.653,264.52 272.816,264.531 282.147,264.54 284.13,264.542 291.389,264.549 297.302,264.554 297.31,256.87 			"/>
			<rect x="247.949" y="256.819" fill="#1AA3DE" width="9.943" height="7.684"/>
			<rect x="328.724" y="257.165" fill="#1AA3DE" width="9.33" height="7.684"/>
			<rect x="316.007" y="257.154" fill="#1AA3DE" width="9.943" height="7.684"/>
			<rect x="340.351" y="257.177" fill="#1AA3DE" width="13.447" height="7.684"/>
			<polygon fill="#1AA3DE" points="378.389,257.22 377.057,257.219 369.058,257.212 369.051,264.896 377.049,264.904 
				378.381,264.904 392.142,264.917 392.15,257.233 			"/>
			<rect x="356.347" y="257.19" fill="#1AA3DE" width="9.943" height="7.684"/>
			<rect x="231.864" y="287.814" fill="#1AA3DE" width="9.33" height="7.684"/>
			<rect x="296.19" y="287.873" fill="#1AA3DE" width="13.172" height="7.684"/>
			<rect x="284.877" y="287.862" fill="#1AA3DE" width="9.33" height="7.684"/>
			<polygon fill="#1AA3DE" points="277.747,287.862 272.706,287.857 269.932,287.855 259.988,287.846 243.993,287.831 
				243.986,295.514 259.982,295.53 269.925,295.539 272.699,295.541 277.741,295.546 282.03,295.55 282.036,287.866 			"/>
			<polygon fill="#1AA3DE" points="347.5,288.202 340.763,288.195 337.989,288.193 328.046,288.184 312.373,288.169 
				312.367,295.853 328.039,295.868 337.982,295.877 340.756,295.879 347.493,295.886 350.087,295.888 350.094,288.204 			"/>
			<rect x="352.399" y="288.198" fill="#1AA3DE" width="13.447" height="7.684"/>
			<rect x="381.427" y="288.223" fill="#1AA3DE" width="10.703" height="7.684"/>
			<rect x="368.395" y="288.211" fill="#1AA3DE" width="9.943" height="7.684"/>
			<rect x="269.862" y="270.012" fill="#1AA3DE" width="13.172" height="7.684"/>
			<rect x="258.548" y="270.001" fill="#1AA3DE" width="9.33" height="7.684"/>
			<rect x="246.385" y="269.989" fill="#1AA3DE" width="9.33" height="7.684"/>
			<rect x="231.88" y="269.977" fill="#1AA3DE" width="9.943" height="7.684"/>
			<rect x="286.053" y="270.301" fill="#1AA3DE" width="13.172" height="7.684"/>
			<rect x="231.852" y="301.538" fill="#1AA3DE" width="13.172" height="7.684"/>
			<rect x="260.627" y="301.561" fill="#1AA3DE" width="9.33" height="7.684"/>
			<rect x="247.91" y="301.549" fill="#1AA3DE" width="9.943" height="7.684"/>
			<rect x="272.255" y="301.573" fill="#1AA3DE" width="13.447" height="7.684"/>
			<rect x="300.968" y="301.596" fill="#1AA3DE" width="9.33" height="7.684"/>
			<rect x="288.25" y="301.586" fill="#1AA3DE" width="9.943" height="7.684"/>
			<rect x="356.307" y="301.647" fill="#1AA3DE" width="9.943" height="7.684"/>
			<rect x="216.719" y="166.032" opacity="0.15" fill="#1AA3DE" enable-background="new    " width="189.889" height="7.684"/>
			<circle fill="#1AA3DE" cx="224.761" cy="169.582" r="2.804"/>
		</g>
	</g>
</g>
<g id="Clouds">
	<g>
		<circle fill="#FFFFFF" cx="100.834" cy="315.556" r="27.185"/>
		<circle fill="#FFFFFF" cx="62.444" cy="324.614" r="27.185"/>
		<circle fill="#FFFFFF" cx="81.731" cy="298.316" r="19.238"/>
		<circle fill="#FFFFFF" cx="89.222" cy="346.451" r="21.623"/>
		<circle fill="#FFFFFF" cx="141.242" cy="331.634" r="41.198"/>
		<circle fill="#FFFFFF" cx="119.236" cy="283.974" r="29.092"/>
		<circle fill="#FFFFFF" cx="152.621" cy="299.067" r="20.669"/>
		<circle fill="#FFFFFF" cx="182.26" cy="319.199" r="25.417"/>
	</g>
	
		<text transform="matrix(1 0 0 1 65.0836 335.004)" display="none" fill="#5B5B5D" enable-background="new    " font-family="'Arkhip'" font-size="43">Java</text>
	<g enable-background="new    ">
		<path fill="#5B5B5D" d="M89.016,321.725c0,2.466-0.398,4.551-1.194,6.256c-0.795,1.706-1.813,3.09-3.053,4.149
			c-1.24,1.062-2.59,1.828-4.052,2.301s-2.881,0.71-4.257,0.71c-0.946,0-1.921-0.087-2.924-0.259
			c-1.004-0.172-1.985-0.423-2.945-0.752c-0.961-0.329-1.871-0.724-2.73-1.183c-0.86-0.458-1.634-0.989-2.322-1.591l2.365-4.128
			c0.315,0.344,0.716,0.709,1.204,1.096c0.487,0.388,1.082,0.739,1.784,1.054c0.702,0.316,1.512,0.581,2.43,0.796
			c0.917,0.215,1.978,0.322,3.182,0.322c1.519,0,2.78-0.286,3.784-0.86c1.003-0.572,1.799-1.304,2.387-2.192
			c0.587-0.889,1.003-1.855,1.247-2.902c0.243-1.047,0.379-2.028,0.408-2.946v-14.533h-6.837l-2.064-4.73h13.588V321.725z"/>
		<path fill="#5B5B5D" d="M104.195,311.619h4.772l12.04,22.79h-4.859l-1.763-3.354h-2.666c-1.376,0-2.737,0.114-4.085,0.344
			s-2.573,0.509-3.677,0.838c-1.104,0.33-2.035,0.674-2.795,1.032c-0.76,0.359-1.226,0.652-1.397,0.882l-0.129,0.258h-4.644
			l10.664-19.995L104.195,311.619z M112.279,327.013l-4.344-8.256l-5.289,10.191c0.717-0.372,1.82-0.788,3.312-1.247
			c1.49-0.458,3.396-0.688,5.719-0.688H112.279z"/>
		<path fill="#5B5B5D" d="M137.734,334.409h-5.719l-9.675-22.274h4.987l7.525,17.76l7.697-17.76h5.03L137.734,334.409z"/>
		<path fill="#5B5B5D" d="M157.686,311.619h4.773l12.04,22.79h-4.859l-1.763-3.354h-2.666c-1.376,0-2.738,0.114-4.085,0.344
			c-1.349,0.229-2.573,0.509-3.677,0.838c-1.104,0.33-2.036,0.674-2.795,1.032c-0.76,0.359-1.226,0.652-1.397,0.882l-0.129,0.258
			h-4.645l10.664-19.995L157.686,311.619z M165.77,327.013l-4.343-8.256l-5.289,10.191c0.716-0.372,1.82-0.788,3.311-1.247
			c1.49-0.458,3.397-0.688,5.72-0.688H165.77z"/>
	</g>
	<g>
		<circle fill="#FFFFFF" cx="110.755" cy="154.666" r="27.185"/>
		<circle fill="#FFFFFF" cx="72.365" cy="163.724" r="27.185"/>
		<circle fill="#FFFFFF" cx="91.652" cy="137.426" r="19.238"/>
		<circle fill="#FFFFFF" cx="99.143" cy="185.56" r="21.623"/>
		<circle fill="#FFFFFF" cx="151.162" cy="170.744" r="41.198"/>
		<circle fill="#FFFFFF" cx="129.157" cy="123.084" r="29.092"/>
		<circle fill="#FFFFFF" cx="162.542" cy="138.177" r="20.669"/>
		<circle fill="#FFFFFF" cx="192.181" cy="158.309" r="25.417"/>
	</g>
	
		<text transform="matrix(1 0 0 1 63.9147 173.6302)" display="none" fill="#5B5B5D" enable-background="new    " font-family="'Arkhip'" font-size="36">Spring</text>
	<g enable-background="new    ">
		<path fill="#5B5B5D" d="M88.022,165.655c0,1.345-0.306,2.563-0.918,3.654c-0.612,1.092-1.452,2.016-2.52,2.771
			s-2.334,1.338-3.798,1.746c-1.464,0.408-3.048,0.612-4.752,0.612c-1.032,0-2.058-0.127-3.078-0.382
			c-1.021-0.254-2.01-0.617-2.97-1.09c-0.96-0.472-1.867-1.053-2.718-1.742c-0.852-0.689-1.614-1.467-2.286-2.33l2.808-2.628
			c0.36,0.432,0.792,0.894,1.296,1.386c0.504,0.492,1.098,0.948,1.782,1.368s1.452,0.768,2.304,1.044
			c0.852,0.276,1.805,0.414,2.862,0.414c0.984,0,1.956-0.096,2.916-0.287c0.959-0.191,1.812-0.483,2.556-0.878
			c0.743-0.395,1.344-0.896,1.8-1.506c0.456-0.61,0.684-1.333,0.684-2.17c0-1.027-0.234-1.816-0.702-2.366
			c-0.468-0.55-1.074-0.95-1.818-1.201c-0.744-0.251-1.597-0.4-2.556-0.448c-0.96-0.048-1.92-0.072-2.88-0.072
			c-3.24,0-5.7-0.575-7.38-1.728c-1.68-1.152-2.52-2.892-2.52-5.22c0-1.08,0.246-2.13,0.738-3.15c0.492-1.02,1.176-1.92,2.052-2.7
			c0.875-0.779,1.919-1.403,3.132-1.872c1.211-0.468,2.538-0.702,3.978-0.702c2.04,0,3.948,0.313,5.724,0.937
			c1.776,0.624,3.468,1.728,5.076,3.312l-2.448,2.881c-0.72-0.576-1.398-1.068-2.034-1.477c-0.636-0.408-1.278-0.738-1.926-0.99
			s-1.327-0.432-2.034-0.54c-0.708-0.107-1.494-0.162-2.358-0.162c-0.769,0-1.488,0.121-2.16,0.36
			c-0.672,0.24-1.26,0.564-1.764,0.972c-0.504,0.409-0.9,0.883-1.188,1.423c-0.288,0.54-0.432,1.098-0.432,1.674
			c0,0.408,0.083,0.798,0.252,1.17c0.167,0.372,0.468,0.702,0.9,0.99s1.014,0.516,1.746,0.684c0.732,0.168,1.674,0.252,2.826,0.252
			c2.352,0,4.29,0.18,5.814,0.54c1.523,0.36,2.729,0.882,3.618,1.566c0.888,0.684,1.506,1.524,1.854,2.52
			C87.847,163.285,88.022,164.407,88.022,165.655z"/>
		<path fill="#5B5B5D" d="M94.141,173.827v-18.648h11.845c0.888,0,1.71,0.139,2.466,0.414c0.756,0.276,1.397,0.673,1.926,1.188
			c0.527,0.517,0.941,1.14,1.242,1.872c0.3,0.732,0.45,1.542,0.45,2.43c0,1.872-0.595,3.343-1.782,4.41
			c-1.188,1.068-2.839,1.602-4.95,1.602h-1.656c-0.863,0-1.578,0.019-2.142,0.055c-0.564,0.036-1.057,0.09-1.476,0.162
			c-0.421,0.071-0.799,0.18-1.135,0.323c-0.336,0.145-0.708,0.324-1.116,0.54v5.652H94.141z M97.814,164.467
			c0.816-0.479,1.728-0.779,2.736-0.899s2.052-0.181,3.132-0.181h1.656c0.888,0,1.603-0.138,2.143-0.413
			c0.54-0.276,0.81-0.919,0.81-1.927c0-0.455-0.084-0.828-0.252-1.116c-0.168-0.287-0.391-0.509-0.666-0.665
			c-0.276-0.156-0.589-0.258-0.937-0.307c-0.348-0.048-0.714-0.072-1.098-0.072h-7.524V164.467z"/>
		<path fill="#5B5B5D" d="M133.309,168.207c0.216,0.385,0.456,0.686,0.72,0.902c0.265,0.217,0.54,0.379,0.828,0.487
			s0.57,0.181,0.847,0.217c0.275,0.036,0.521,0.054,0.737,0.054h1.296v3.96h-1.619c-0.48,0-0.954-0.023-1.423-0.072
			c-0.468-0.048-0.93-0.167-1.386-0.359s-0.899-0.486-1.332-0.883c-0.432-0.396-0.864-0.941-1.296-1.638l-2.88-4.68h-0.252
			c-0.72,0-1.326,0.018-1.818,0.054s-0.924,0.103-1.296,0.198s-0.72,0.21-1.044,0.342s-0.679,0.294-1.062,0.486v6.552h-3.78v-18.648
			h12.024c0.863,0,1.649,0.139,2.357,0.416c0.708,0.276,1.326,0.667,1.854,1.172c0.527,0.506,0.936,1.102,1.224,1.787
			s0.432,1.438,0.432,2.256c0,1.443-0.372,2.61-1.115,3.5c-0.744,0.891-1.801,1.54-3.168,1.948L133.309,168.207z M130.574,162.487
			c0.552,0,1.037-0.149,1.457-0.45c0.42-0.3,0.631-0.75,0.631-1.35c0-0.408-0.085-0.732-0.252-0.973
			c-0.169-0.239-0.379-0.419-0.631-0.54c-0.252-0.119-0.546-0.197-0.882-0.233s-0.66-0.055-0.972-0.055h-7.596v4.681
			c0.72-0.408,1.518-0.689,2.394-0.847c0.876-0.155,1.818-0.233,2.826-0.233H130.574z"/>
		<path fill="#5B5B5D" d="M144.937,173.827v-18.648h3.672v18.648H144.937z"/>
		<path fill="#5B5B5D" d="M159.552,155.179l11.269,12.96v-12.96h3.708v18.648h-3.708l-10.368-12.132v12.132h-3.708v-15.876
			l-1.836-2.772H159.552z"/>
		<path fill="#5B5B5D" d="M199.333,171.739c-1.032,0.888-2.209,1.554-3.528,1.998c-1.32,0.443-2.7,0.666-4.14,0.666
			c-1.417,0-2.784-0.223-4.104-0.666c-1.32-0.444-2.49-1.092-3.51-1.944c-1.021-0.852-1.836-1.896-2.448-3.132
			c-0.611-1.235-0.918-2.646-0.918-4.23c0-1.584,0.312-2.987,0.937-4.212c0.623-1.224,1.451-2.255,2.483-3.096
			c1.032-0.84,2.208-1.476,3.528-1.908c1.319-0.432,2.676-0.647,4.068-0.647c1.367,0,2.699,0.198,3.996,0.594
			c1.296,0.396,2.459,0.979,3.491,1.746l-2.483,2.88c-0.696-0.479-1.482-0.846-2.358-1.098s-1.758-0.378-2.646-0.378
			c-0.913,0-1.788,0.126-2.628,0.378c-0.841,0.252-1.597,0.63-2.269,1.134s-1.206,1.146-1.602,1.926
			c-0.396,0.78-0.595,1.698-0.595,2.754c0,1.057,0.204,1.969,0.612,2.736c0.408,0.769,0.948,1.404,1.62,1.908
			s1.434,0.882,2.286,1.134c0.852,0.252,1.722,0.378,2.609,0.378c1.393,0,2.7-0.324,3.925-0.972v-2.988h-1.908l-1.584-3.492h7.164
			V171.739z"/>
	</g>
	<g>
		<circle fill="#FFFFFF" cx="448.811" cy="130.246" r="16.05"/>
		<circle fill="#FFFFFF" cx="426.145" cy="135.594" r="16.05"/>
		<circle fill="#FFFFFF" cx="437.533" cy="120.068" r="11.359"/>
		<circle fill="#FFFFFF" cx="441.955" cy="148.487" r="12.766"/>
		<circle fill="#FFFFFF" cx="472.669" cy="139.739" r="24.324"/>
		<circle fill="#FFFFFF" cx="459.676" cy="111.599" r="17.177"/>
		<circle fill="#FFFFFF" cx="479.387" cy="120.511" r="12.203"/>
		<circle fill="#FFFFFF" cx="496.887" cy="132.397" r="15.007"/>
	</g>
	<g>
		<circle fill="#FFFFFF" cx="447.04" cy="254.996" r="27.184"/>
		<circle fill="#FFFFFF" cx="408.652" cy="264.053" r="27.184"/>
		<circle fill="#FFFFFF" cx="427.938" cy="237.757" r="19.237"/>
		<circle fill="#FFFFFF" cx="435.429" cy="285.888" r="21.622"/>
		<circle fill="#FFFFFF" cx="487.445" cy="271.073" r="41.196"/>
		<circle fill="#FFFFFF" cx="465.441" cy="223.415" r="29.091"/>
		<circle fill="#FFFFFF" cx="498.824" cy="238.508" r="20.668"/>
		<circle fill="#FFFFFF" cx="528.462" cy="258.639" r="25.416"/>
	</g>
	<g>
		<circle fill="#FFFFFF" cx="293.861" cy="34.173" r="11.278"/>
		<circle fill="#FFFFFF" cx="277.934" cy="37.931" r="11.278"/>
		<circle fill="#FFFFFF" cx="285.936" cy="27.021" r="7.982"/>
		<circle fill="#FFFFFF" cx="289.044" cy="46.991" r="8.971"/>
		<circle fill="#FFFFFF" cx="310.626" cy="40.844" r="17.092"/>
		<circle fill="#FFFFFF" cx="301.496" cy="21.07" r="12.07"/>
		<circle fill="#FFFFFF" cx="315.347" cy="27.332" r="8.575"/>
		<circle fill="#FFFFFF" cx="327.644" cy="35.685" r="10.545"/>
	</g>
	
		<text transform="matrix(1 0 0 1 417.4515 271.6511)" display="none" fill="#5B5B5D" enable-background="new    " font-family="'Arkhip'" font-size="40">Html</text>
	<g enable-background="new    ">
		<path fill="#5B5B5D" d="M426.269,272.558h-4.359v-29.84h4.359l-0.039,12.24c0.612-0.294,1.239-0.5,1.88-0.62
			c0.64-0.12,1.279-0.181,1.92-0.181c0.426,0,1.046,0.047,1.859,0.141s1.693,0.193,2.641,0.3c0.946,0.106,1.886,0.207,2.819,0.3
			c0.934,0.094,1.733,0.141,2.4,0.141c0.613,0,1.28-0.054,2-0.16s1.4-0.307,2.04-0.601v-11.56h4.36v29.84h-4.36v-13.88
			c-0.639,0.294-1.317,0.493-2.036,0.6c-0.719,0.107-1.383,0.16-1.994,0.16c-0.666,0-1.464-0.046-2.396-0.14
			c-0.931-0.094-1.868-0.193-2.813-0.3c-0.944-0.106-1.822-0.207-2.634-0.301c-0.812-0.093-1.43-0.14-1.855-0.14
			c-0.639,0-1.277,0.06-1.916,0.18s-1.264,0.327-1.876,0.62V272.558z"/>
		<path fill="#5B5B5D" d="M465.79,255.959v16.6h-4.12v-16.6h-7.521v-4.12h19.44v4.12H465.79z"/>
		<path fill="#5B5B5D" d="M503.109,255.158v17.4h-4.52v-12.12l-7.32,9.76l-7.32-9.76v12.12h-4.52v-17.4l-2.04-3.319h5.04l8.84,11.72
			l8.84-11.72h5.04L503.109,255.158z"/>
		<path fill="#5B5B5D" d="M512.148,272.558v-20.72h4.28v16.56h11v4.16H512.148z"/>
	</g>
</g>
</svg>
