<?xml version="1.0" encoding="utf-8"?>
<!-- Generator: Adobe Illustrator 17.0.0, SVG Export Plug-In . SVG Version: 6.00 Build 0)  -->
<!DOCTYPE svg PUBLIC "-//W3C//DTD SVG 1.1//EN" "http://www.w3.org/Graphics/SVG/1.1/DTD/svg11.dtd">
<svg version="1.1" id="Calque_1" xmlns="http://www.w3.org/2000/svg" xmlns:xlink="http://www.w3.org/1999/xlink" x="0px" y="0px"
	 width="590px" height="590px" viewBox="0 0 590 590" enable-background="new 0 0 590 590" xml:space="preserve">
<g id="Layer_7" display="none">
	<circle display="inline" fill="#C3E4F8" cx="295.788" cy="296.129" r="286.41"/>
</g>
<g id="Laptop">
	<path fill="#8C9AA9" d="M440.068,579.328H146.495c-2.143,0-3.881-1.738-3.881-3.881V386.005c0-2.143,1.738-3.881,3.881-3.881
		h293.573c2.143,0,3.881,1.738,3.881,3.881v189.442C443.949,577.59,442.211,579.328,440.068,579.328z"/>
	<path fill="#5D6A79" d="M148.283,382.124c-2.774,0-5.022,2.249-5.022,5.022v187.16c0,2.774,2.249,5.022,5.022,5.022h76.222
		l211.854-197.204L148.283,382.124L148.283,382.124z"/>
	
		<radialGradient id="SVGID_1_" cx="-1946.0486" cy="546.9271" r="184.6773" gradientTransform="matrix(1 0 0 1 2239.3301 -251.5701)" gradientUnits="userSpaceOnUse">
		<stop  offset="0" style="stop-color:#FFFFFF"/>
		<stop  offset="0.3148" style="stop-color:#FEFFFF"/>
		<stop  offset="0.4653" style="stop-color:#F8FCFE"/>
		<stop  offset="0.5809" style="stop-color:#ECF5FD"/>
		<stop  offset="0.6786" style="stop-color:#DEECFA"/>
		<stop  offset="0.7651" style="stop-color:#C8E1F5"/>
		<stop  offset="0.8437" style="stop-color:#AAD1F1"/>
		<stop  offset="0.9164" style="stop-color:#84C2EB"/>
		<stop  offset="0.9823" style="stop-color:#49AFE4"/>
		<stop  offset="1" style="stop-color:#30A9E1"/>
	</radialGradient>
	
		<rect x="146.461" y="213.413" fill="url(#SVGID_1_)" stroke="#5D6A79" stroke-width="6" stroke-linejoin="round" stroke-miterlimit="10" width="293.641" height="163.888"/>
	<g>
		<g>
			<rect x="407.506" y="399.282" fill="#FFFFFF" width="18.921" height="12.94"/>
		</g>
		<g>
			<rect x="382.919" y="399.282" fill="#FFFFFF" width="18.921" height="12.94"/>
		</g>
		<g>
			<rect x="358.333" y="399.282" fill="#FFFFFF" width="18.921" height="12.94"/>
		</g>
		<g>
			<rect x="333.746" y="399.282" fill="#FFFFFF" width="18.921" height="12.94"/>
		</g>
		<g>
			<rect x="309.16" y="399.282" fill="#FFFFFF" width="18.921" height="12.94"/>
		</g>
		<g>
			<rect x="284.574" y="399.282" fill="#FFFFFF" width="18.921" height="12.94"/>
		</g>
		<g>
			<rect x="259.987" y="399.282" fill="#FFFFFF" width="18.921" height="12.94"/>
		</g>
		<g>
			<rect x="235.401" y="399.282" fill="#FFFFFF" width="18.921" height="12.94"/>
		</g>
		<g>
			<rect x="210.814" y="399.282" fill="#FFFFFF" width="18.921" height="12.94"/>
		</g>
		<g>
			<rect x="186.228" y="399.282" fill="#FFFFFF" width="18.921" height="12.94"/>
		</g>
		<g>
			<rect x="161.641" y="399.282" fill="#FFFFFF" width="18.921" height="12.94"/>
		</g>
	</g>
	<g>
		<rect x="407.506" y="493.745" fill="#FFFFFF" width="18.921" height="16.822"/>
	</g>
	<g>
		<rect x="382.919" y="493.745" fill="#FFFFFF" width="18.921" height="16.822"/>
	</g>
	<g>
		<rect x="358.333" y="493.745" fill="#FFFFFF" width="18.921" height="16.822"/>
	</g>
	<g>
		<rect x="333.746" y="493.745" fill="#FFFFFF" width="18.921" height="16.822"/>
	</g>
	<g>
		<rect x="309.16" y="493.745" fill="#FFFFFF" width="18.921" height="16.822"/>
	</g>
	<g>
		<rect x="284.574" y="493.745" fill="#FFFFFF" width="18.921" height="16.822"/>
	</g>
	<g>
		<rect x="259.987" y="493.745" fill="#FFFFFF" width="18.921" height="16.822"/>
	</g>
	<g>
		<rect x="235.401" y="493.745" fill="#FFFFFF" width="108.208" height="16.822"/>
	</g>
	<g>
		<rect x="210.814" y="493.745" fill="#FFFFFF" width="18.921" height="16.822"/>
	</g>
	<g>
		<rect x="186.228" y="493.745" fill="#FFFFFF" width="18.921" height="16.822"/>
	</g>
	<g>
		<rect x="161.641" y="493.745" fill="#FFFFFF" width="18.921" height="16.822"/>
	</g>
	<g>
		<rect x="407.506" y="469.159" fill="#FFFFFF" width="18.921" height="16.822"/>
	</g>
	<g>
		<rect x="398.448" y="469.159" fill="#FFFFFF" width="25.391" height="16.822"/>
	</g>
	<g>
		<rect x="373.861" y="469.159" fill="#FFFFFF" width="18.921" height="16.822"/>
	</g>
	<g>
		<rect x="349.275" y="469.159" fill="#FFFFFF" width="18.921" height="16.822"/>
	</g>
	<g>
		<rect x="324.688" y="469.159" fill="#FFFFFF" width="18.921" height="16.822"/>
	</g>
	<g>
		<rect x="300.102" y="469.159" fill="#FFFFFF" width="18.921" height="16.822"/>
	</g>
	<g>
		<rect x="275.515" y="469.159" fill="#FFFFFF" width="18.921" height="16.822"/>
	</g>
	<g>
		<rect x="250.929" y="469.159" fill="#FFFFFF" width="18.921" height="16.822"/>
	</g>
	<g>
		<rect x="226.343" y="469.159" fill="#FFFFFF" width="18.921" height="16.822"/>
	</g>
	<g>
		<rect x="201.756" y="469.159" fill="#FFFFFF" width="18.921" height="16.822"/>
	</g>
	<g>
		<rect x="161.641" y="469.159" fill="#FFFFFF" width="34.449" height="16.822"/>
	</g>
	<g>
		<rect x="385.076" y="444.572" fill="#FFFFFF" width="41.35" height="16.822"/>
	</g>
	<g>
		<rect x="246.184" y="517.9" fill="#FFFFFF" width="96.562" height="53.055"/>
	</g>
	<g>
		<rect x="359.627" y="444.572" fill="#FFFFFF" width="18.921" height="16.822"/>
	</g>
	<g>
		<rect x="335.04" y="444.572" fill="#FFFFFF" width="18.921" height="16.822"/>
	</g>
	<g>
		<rect x="310.454" y="444.572" fill="#FFFFFF" width="18.921" height="16.822"/>
	</g>
	<g>
		<rect x="285.868" y="444.572" fill="#FFFFFF" width="18.921" height="16.822"/>
	</g>
	<g>
		<rect x="261.281" y="444.572" fill="#FFFFFF" width="18.921" height="16.822"/>
	</g>
	<g>
		<rect x="236.695" y="444.572" fill="#FFFFFF" width="18.921" height="16.822"/>
	</g>
	<g>
		<rect x="212.108" y="444.572" fill="#FFFFFF" width="18.921" height="16.822"/>
	</g>
	<g>
		<rect x="187.522" y="444.572" fill="#FFFFFF" width="18.921" height="16.822"/>
	</g>
	<g>
		<rect x="161.641" y="444.572" fill="#FFFFFF" width="18.921" height="16.822"/>
	</g>
	<g>
		<rect x="407.506" y="419.986" fill="#FFFFFF" width="18.921" height="16.822"/>
	</g>
	<g>
		<rect x="394.565" y="419.986" fill="#FFFFFF" width="26.253" height="16.822"/>
	</g>
	<g>
		<rect x="369.979" y="419.986" fill="#FFFFFF" width="18.921" height="16.822"/>
	</g>
	<g>
		<rect x="345.393" y="419.986" fill="#FFFFFF" width="18.921" height="16.822"/>
	</g>
	<g>
		<rect x="320.806" y="419.986" fill="#FFFFFF" width="18.921" height="16.822"/>
	</g>
	<g>
		<rect x="296.22" y="419.986" fill="#FFFFFF" width="18.921" height="16.822"/>
	</g>
	<g>
		<rect x="271.633" y="419.986" fill="#FFFFFF" width="18.921" height="16.822"/>
	</g>
	<g>
		<rect x="247.047" y="419.986" fill="#FFFFFF" width="18.921" height="16.822"/>
	</g>
	<g>
		<rect x="222.461" y="419.986" fill="#FFFFFF" width="18.921" height="16.822"/>
	</g>
	<g>
		<rect x="197.874" y="419.986" fill="#FFFFFF" width="18.921" height="16.822"/>
	</g>
	<g>
		<rect x="161.641" y="419.986" fill="#FFFFFF" width="30.567" height="16.822"/>
	</g>
</g>
<g id="Mouse">
	<path fill="#8C9AA9" d="M492.745,454.334c-0.056,0-0.111,0.004-0.167,0.004v88.049c0.056,0,0.111,0.004,0.167,0.004
		c14.829,0,26.851-12.022,26.851-26.851v-34.356C519.596,466.355,507.574,454.334,492.745,454.334z"/>
	<path fill="#5D6A79" d="M492.745,454.334c0.056,0,0.111,0.004,0.167,0.004v88.049c-0.056,0-0.111,0.004-0.167,0.004
		c-14.829,0-26.851-12.022-26.851-26.851v-34.356C465.894,466.355,477.916,454.334,492.745,454.334z"/>
	<circle fill="#FFFFFF" cx="492.912" cy="472.512" r="9.339"/>
</g>
<g id="Document">
	<g>
		<path opacity="0.12" fill="#010202" enable-background="new    " d="M383.281,87.832l-161.99-0.151
			c-7.6-0.007-13.825,6.206-13.831,13.806l-0.205,218.796c-0.007,7.6,6.206,13.825,13.806,13.831l161.99,0.151
			c7.6,0.007,13.825-6.206,13.832-13.806l0.205-218.796C397.093,94.063,390.881,87.84,383.281,87.832z"/>
		<path fill="#FFFFFF" d="M393.808,324.103l-165.628-0.155c-6.6-0.007-11.995-5.412-11.988-12.012L216.4,89.503
			c0.007-6.6,5.412-11.995,12.012-11.988l165.628,0.155c6.6,0.007,11.995,5.412,11.988,12.012l-0.208,222.434
			C405.813,318.715,400.408,324.11,393.808,324.103z"/>
		<rect x="366.058" y="138.648" fill="#F39425" width="13.511" height="7.684"/>
		<rect x="343.538" y="138.63" fill="#F39425" width="20.033" height="7.684"/>
		<polygon fill="#F39425" points="267.133,179.728 265.274,179.727 257.803,179.72 257.795,187.404 265.266,187.411 
			267.125,187.412 283.104,187.427 283.112,179.744 		"/>
		<polygon fill="#E84239" points="330.246,199.546 326.302,199.542 323.528,199.54 313.584,199.531 297.589,199.516 297.581,207.2 
			313.576,207.215 323.52,207.224 326.294,207.226 330.238,207.23 335.624,207.235 335.632,199.551 		"/>
		<rect x="244.041" y="243.644" fill="#F39425" width="13.447" height="7.684"/>
		<rect x="300.335" y="257.141" fill="#F39425" width="13.172" height="7.684"/>
		<polygon fill="#E84239" points="347.7,301.649 340.627,301.642 337.608,301.64 324.436,301.627 313.122,301.617 313.115,309.301 
			324.428,309.311 337.6,309.324 340.619,309.326 347.692,309.333 353.792,309.338 353.799,301.654 		"/>
		<g>
			<rect x="232.038" y="92.976" fill="#1AA3DE" width="20.033" height="7.684"/>
			<rect x="343.477" y="93.078" fill="#1AA3DE" width="22.503" height="7.684"/>
			<rect x="304.323" y="93.039" fill="#1AA3DE" width="13.172" height="7.684"/>
			<rect x="331.889" y="93.061" fill="#1AA3DE" width="9.33" height="7.684"/>
			<rect x="293.01" y="93.027" fill="#1AA3DE" width="9.33" height="7.684"/>
			<rect x="368.322" y="93.101" fill="#1AA3DE" width="23.981" height="7.684"/>
			<rect x="319.995" y="93.051" fill="#1AA3DE" width="9.943" height="7.684"/>
			<rect x="254.603" y="92.994" fill="#1AA3DE" width="13.447" height="7.684"/>
			<rect x="270.308" y="93.011" fill="#1AA3DE" width="20.033" height="7.684"/>
			<rect x="308.614" y="106.493" fill="#1AA3DE" width="22.503" height="7.684"/>
			<rect x="334.074" y="106.51" fill="#1AA3DE" width="9.33" height="7.684"/>
			<rect x="346.236" y="106.52" fill="#1AA3DE" width="9.33" height="7.684"/>
			<polygon fill="#1AA3DE" points="372.367,106.555 368.309,106.551 359.195,106.543 359.188,114.227 368.302,114.235 
				372.361,114.239 392.283,114.257 392.29,106.574 			"/>
			<rect x="292.541" y="106.474" fill="#1AA3DE" width="13.511" height="7.684"/>
			<polygon fill="#1AA3DE" points="261.938,106.452 254.316,106.445 232.026,106.424 232.019,114.108 254.309,114.129 
				261.931,114.136 267.756,114.141 267.763,106.457 			"/>
			<rect x="270.022" y="106.457" fill="#1AA3DE" width="20.033" height="7.684"/>
			<rect x="266.615" y="119.627" fill="#1AA3DE" width="22.503" height="7.684"/>
			<rect x="255.027" y="119.612" fill="#1AA3DE" width="9.33" height="7.684"/>
			<rect x="232.015" y="119.596" fill="#1AA3DE" width="20.033" height="7.684"/>
			<rect x="272.024" y="138.562" fill="#1AA3DE" width="9.33" height="7.684"/>
			<rect x="311.904" y="138.6" fill="#1AA3DE" width="12.898" height="7.684"/>
			<rect x="284.581" y="138.58" fill="#1AA3DE" width="23.981" height="7.684"/>
			<rect x="255.19" y="138.55" fill="#1AA3DE" width="13.511" height="7.684"/>
			<rect x="231.997" y="138.532" fill="#1AA3DE" width="20.033" height="7.684"/>
			<rect x="327.834" y="138.614" fill="#1AA3DE" width="13.447" height="7.684"/>
			<rect x="382.931" y="138.661" fill="#1AA3DE" width="9.33" height="7.684"/>
			<rect x="314.822" y="152.322" fill="#1AA3DE" width="9.33" height="7.684"/>
			<rect x="302.105" y="152.311" fill="#1AA3DE" width="9.943" height="7.684"/>
			<rect x="231.986" y="152.25" fill="#1AA3DE" width="13.996" height="7.684"/>
			<rect x="379.078" y="152.381" fill="#1AA3DE" width="13.172" height="7.684"/>
			<polygon fill="#1AA3DE" points="292.866,152.31 286.43,152.304 283.624,152.302 274.293,152.293 261.856,152.281 
				261.849,159.965 274.286,159.977 283.617,159.985 286.423,159.988 292.859,159.994 299.596,160.001 299.602,152.317 			"/>
			<rect x="367.326" y="152.368" fill="#1AA3DE" width="9.33" height="7.684"/>
			<rect x="249.141" y="152.263" fill="#1AA3DE" width="9.943" height="7.684"/>
			<rect x="326.45" y="152.334" fill="#1AA3DE" width="13.447" height="7.684"/>
			<rect x="355.163" y="152.358" fill="#1AA3DE" width="9.33" height="7.684"/>
			<rect x="342.445" y="152.346" fill="#1AA3DE" width="9.943" height="7.684"/>
			<rect x="244.433" y="165.707" fill="#1AA3DE" width="13.172" height="7.684"/>
			<rect x="272.823" y="165.73" fill="#1AA3DE" width="9.33" height="7.684"/>
			<rect x="231.973" y="165.695" fill="#1AA3DE" width="9.33" height="7.684"/>
			<rect x="260.105" y="165.72" fill="#1AA3DE" width="9.943" height="7.684"/>
			<rect x="336.64" y="165.789" fill="#1AA3DE" width="13.172" height="7.684"/>
			<rect x="284.451" y="165.743" fill="#1AA3DE" width="13.447" height="7.684"/>
			<polygon fill="#1AA3DE" points="322.491,165.785 313.161,165.776 310.387,165.773 308.859,165.772 300.443,165.764 
				300.436,173.448 308.851,173.456 310.379,173.457 313.153,173.46 322.484,173.469 334.647,173.48 334.655,165.796 			"/>
			<rect x="352.831" y="166.079" fill="#1AA3DE" width="13.172" height="7.684"/>
			<rect x="381.809" y="166.104" fill="#1AA3DE" width="10.428" height="7.684"/>
			<rect x="368.503" y="166.091" fill="#1AA3DE" width="9.943" height="7.684"/>
			<rect x="298.333" y="179.749" fill="#1AA3DE" width="9.33" height="7.684"/>
			<rect x="285.615" y="179.739" fill="#1AA3DE" width="9.943" height="7.684"/>
			<rect x="245.369" y="179.702" fill="#1AA3DE" width="9.33" height="7.684"/>
			<rect x="231.961" y="179.691" fill="#1AA3DE" width="9.943" height="7.684"/>
			<rect x="309.96" y="179.762" fill="#1AA3DE" width="13.447" height="7.684"/>
			<rect x="325.955" y="179.775" fill="#1AA3DE" width="9.943" height="7.684"/>
			<rect x="257.576" y="199.474" fill="#1AA3DE" width="13.172" height="7.684"/>
			<rect x="285.966" y="199.498" fill="#1AA3DE" width="9.33" height="7.684"/>
			<rect x="245.439" y="199.461" fill="#1AA3DE" width="9.33" height="7.684"/>
			<rect x="273.248" y="199.486" fill="#1AA3DE" width="9.943" height="7.684"/>
			<rect x="349.783" y="199.557" fill="#1AA3DE" width="13.172" height="7.684"/>
			<rect x="231.944" y="199.449" fill="#1AA3DE" width="9.33" height="7.684"/>
			<rect x="338.47" y="199.544" fill="#1AA3DE" width="9.33" height="7.684"/>
			<rect x="365.974" y="199.845" fill="#1AA3DE" width="13.172" height="7.684"/>
			<rect x="382.265" y="199.858" fill="#1AA3DE" width="9.943" height="7.684"/>
			<rect x="231.93" y="214.545" fill="#1AA3DE" width="13.172" height="7.684"/>
			<polygon fill="#1AA3DE" points="257.926,214.572 254.937,214.569 247.982,214.562 247.975,222.246 254.929,222.253 
				257.918,222.256 270.023,222.268 270.03,214.584 			"/>
			<rect x="324.522" y="214.626" fill="#1AA3DE" width="13.172" height="7.684"/>
			<polygon fill="#1AA3DE" points="322.534,214.633 310.371,214.621 301.04,214.612 298.266,214.61 288.323,214.601 
				285.774,214.598 280.822,214.593 272.328,214.585 272.32,222.269 280.814,222.277 285.767,222.282 288.315,222.284 
				288.315,222.284 298.258,222.294 298.258,222.294 301.033,222.296 301.033,222.296 310.363,222.305 310.363,222.305 
				322.526,222.316 			"/>
			<rect x="340.712" y="214.915" fill="#1AA3DE" width="13.172" height="7.684"/>
			<rect x="369.102" y="214.938" fill="#1AA3DE" width="9.33" height="7.684"/>
			<rect x="356.385" y="214.928" fill="#1AA3DE" width="9.943" height="7.684"/>
			<rect x="381.491" y="214.951" fill="#1AA3DE" width="10.703" height="7.684"/>
			<rect x="231.917" y="228.813" fill="#1AA3DE" width="9.943" height="7.684"/>
			<polygon fill="#1AA3DE" points="259.315,228.844 256.672,228.841 245.044,228.83 245.037,236.514 256.664,236.524 
				259.307,236.527 270.111,236.538 270.119,228.854 			"/>
			<rect x="231.904" y="243.632" fill="#1AA3DE" width="9.33" height="7.684"/>
			<rect x="272.754" y="243.668" fill="#1AA3DE" width="9.33" height="7.684"/>
			<rect x="260.036" y="243.657" fill="#1AA3DE" width="9.943" height="7.684"/>
			<polygon fill="#1AA3DE" points="320.586,243.719 312.415,243.712 309.397,243.71 296.224,243.697 284.911,243.687 
				284.903,251.371 296.216,251.381 309.389,251.393 312.407,251.396 320.578,251.403 325.58,251.408 325.588,243.724 			"/>
			<rect x="340.812" y="243.729" fill="#1AA3DE" width="9.33" height="7.684"/>
			<rect x="328.094" y="243.718" fill="#1AA3DE" width="9.943" height="7.684"/>
			<polygon fill="#1AA3DE" points="384.54,243.779 382.832,243.777 378.371,243.773 368.428,243.764 352.433,243.75 
				352.425,251.434 368.42,251.448 378.363,251.457 382.824,251.461 384.533,251.463 392.154,251.47 392.162,243.786 			"/>
			<rect x="231.891" y="256.806" fill="#1AA3DE" width="13.447" height="7.684"/>
			<polygon fill="#1AA3DE" points="291.396,256.865 284.137,256.858 282.154,256.856 272.824,256.847 260.661,256.836 
				260.653,264.52 272.816,264.531 282.147,264.54 284.13,264.542 291.389,264.549 297.302,264.554 297.31,256.87 			"/>
			<rect x="247.949" y="256.819" fill="#1AA3DE" width="9.943" height="7.684"/>
			<rect x="328.724" y="257.165" fill="#1AA3DE" width="9.33" height="7.684"/>
			<rect x="316.007" y="257.154" fill="#1AA3DE" width="9.943" height="7.684"/>
			<rect x="340.351" y="257.177" fill="#1AA3DE" width="13.447" height="7.684"/>
			<polygon fill="#1AA3DE" points="378.389,257.22 377.057,257.219 369.058,257.212 369.051,264.896 377.049,264.904 
				378.381,264.904 392.142,264.917 392.15,257.233 			"/>
			<rect x="356.347" y="257.19" fill="#1AA3DE" width="9.943" height="7.684"/>
			<rect x="231.864" y="287.814" fill="#1AA3DE" width="9.33" height="7.684"/>
			<rect x="296.19" y="287.873" fill="#1AA3DE" width="13.172" height="7.684"/>
			<rect x="284.877" y="287.862" fill="#1AA3DE" width="9.33" height="7.684"/>
			<polygon fill="#1AA3DE" points="277.747,287.862 272.706,287.857 269.932,287.855 259.988,287.846 243.993,287.831 
				243.986,295.514 259.982,295.53 269.925,295.539 272.699,295.541 277.741,295.546 282.03,295.55 282.036,287.866 			"/>
			<polygon fill="#1AA3DE" points="347.5,288.202 340.763,288.195 337.989,288.193 328.046,288.184 312.373,288.169 
				312.367,295.853 328.039,295.868 337.982,295.877 340.756,295.879 347.493,295.886 350.087,295.888 350.094,288.204 			"/>
			<rect x="352.399" y="288.198" fill="#1AA3DE" width="13.447" height="7.684"/>
			<rect x="381.427" y="288.223" fill="#1AA3DE" width="10.703" height="7.684"/>
			<rect x="368.395" y="288.211" fill="#1AA3DE" width="9.943" height="7.684"/>
			<rect x="269.862" y="270.012" fill="#1AA3DE" width="13.172" height="7.684"/>
			<rect x="258.548" y="270.001" fill="#1AA3DE" width="9.33" height="7.684"/>
			<rect x="246.385" y="269.989" fill="#1AA3DE" width="9.33" height="7.684"/>
			<rect x="231.88" y="269.977" fill="#1AA3DE" width="9.943" height="7.684"/>
			<rect x="286.053" y="270.301" fill="#1AA3DE" width="13.172" height="7.684"/>
			<rect x="231.852" y="301.538" fill="#1AA3DE" width="13.172" height="7.684"/>
			<rect x="260.627" y="301.561" fill="#1AA3DE" width="9.33" height="7.684"/>
			<rect x="247.91" y="301.549" fill="#1AA3DE" width="9.943" height="7.684"/>
			<rect x="272.255" y="301.573" fill="#1AA3DE" width="13.447" height="7.684"/>
			<rect x="300.968" y="301.596" fill="#1AA3DE" width="9.33" height="7.684"/>
			<rect x="288.25" y="301.586" fill="#1AA3DE" width="9.943" height="7.684"/>
			<rect x="356.307" y="301.647" fill="#1AA3DE" width="9.943" height="7.684"/>
			<rect x="216.719" y="166.032" opacity="0.15" fill="#1AA3DE" enable-background="new    " width="189.889" height="7.684"/>
			<circle fill="#1AA3DE" cx="224.761" cy="169.582" r="2.804"/>
		</g>
	</g>
</g>
<g>
	<circle fill="#FFFFFF" cx="100.834" cy="315.556" r="27.185"/>
	<circle fill="#FFFFFF" cx="62.444" cy="324.614" r="27.185"/>
	<circle fill="#FFFFFF" cx="81.731" cy="298.316" r="19.238"/>
	<circle fill="#FFFFFF" cx="89.222" cy="346.451" r="21.623"/>
	<circle fill="#FFFFFF" cx="141.242" cy="331.634" r="41.198"/>
	<circle fill="#FFFFFF" cx="119.236" cy="283.974" r="29.092"/>
	<circle fill="#FFFFFF" cx="152.621" cy="299.067" r="20.669"/>
	<circle fill="#FFFFFF" cx="182.26" cy="319.199" r="25.417"/>
</g>
<text transform="matrix(1 0 0 1 65.0836 335.004)" display="none" fill="#5B5B5D" enable-background="new    " font-family="'Arkhip'" font-size="43">Java</text>
<g>
	<circle fill="#FFFFFF" cx="110.755" cy="154.666" r="27.185"/>
	<circle fill="#FFFFFF" cx="72.365" cy="163.724" r="27.185"/>
	<circle fill="#FFFFFF" cx="91.652" cy="137.426" r="19.238"/>
	<circle fill="#FFFFFF" cx="99.143" cy="185.56" r="21.623"/>
	<circle fill="#FFFFFF" cx="151.162" cy="170.744" r="41.198"/>
	<circle fill="#FFFFFF" cx="129.157" cy="123.084" r="29.092"/>
	<circle fill="#FFFFFF" cx="162.542" cy="138.177" r="20.669"/>
	<circle fill="#FFFFFF" cx="192.181" cy="158.309" r="25.417"/>
</g>
<text transform="matrix(1 0 0 1 63.9147 173.6302)" display="none" fill="#5B5B5D" enable-background="new    " font-family="'Arkhip'" font-size="36">Spring</text>
<g>
	<circle fill="#FFFFFF" cx="448.811" cy="130.246" r="16.05"/>
	<circle fill="#FFFFFF" cx="426.145" cy="135.594" r="16.05"/>
	<circle fill="#FFFFFF" cx="437.533" cy="120.068" r="11.359"/>
	<circle fill="#FFFFFF" cx="441.955" cy="148.487" r="12.766"/>
	<circle fill="#FFFFFF" cx="472.669" cy="139.739" r="24.324"/>
	<circle fill="#FFFFFF" cx="459.676" cy="111.599" r="17.177"/>
	<circle fill="#FFFFFF" cx="479.387" cy="120.511" r="12.203"/>
	<circle fill="#FFFFFF" cx="496.887" cy="132.397" r="15.007"/>
</g>
<g>
	<circle fill="#FFFFFF" cx="447.04" cy="254.996" r="27.184"/>
	<circle fill="#FFFFFF" cx="408.652" cy="264.053" r="27.184"/>
	<circle fill="#FFFFFF" cx="427.938" cy="237.757" r="19.237"/>
	<circle fill="#FFFFFF" cx="435.429" cy="285.888" r="21.622"/>
	<circle fill="#FFFFFF" cx="487.445" cy="271.073" r="41.196"/>
	<circle fill="#FFFFFF" cx="465.441" cy="223.415" r="29.091"/>
	<circle fill="#FFFFFF" cx="498.824" cy="238.508" r="20.668"/>
	<circle fill="#FFFFFF" cx="528.462" cy="258.639" r="25.416"/>
</g>
<g>
	<circle fill="#FFFFFF" cx="293.861" cy="34.173" r="11.278"/>
	<circle fill="#FFFFFF" cx="277.934" cy="37.931" r="11.278"/>
	<circle fill="#FFFFFF" cx="285.936" cy="27.021" r="7.982"/>
	<circle fill="#FFFFFF" cx="289.044" cy="46.991" r="8.971"/>
	<circle fill="#FFFFFF" cx="310.626" cy="40.844" r="17.092"/>
	<circle fill="#FFFFFF" cx="301.496" cy="21.07" r="12.07"/>
	<circle fill="#FFFFFF" cx="315.347" cy="27.332" r="8.575"/>
	<circle fill="#FFFFFF" cx="327.644" cy="35.685" r="10.545"/>
</g>
<text transform="matrix(1 0 0 1 417.4515 271.6511)" display="none" fill="#5B5B5D" enable-background="new    " font-family="'Arkhip'" font-size="40">Html</text>
<g>
	<path fill="#4D5A69" d="M75.743,170.955c0,1.539,0.406,2.844,1.219,3.913c0.812,1.069,1.892,1.603,3.239,1.603
		c1.347,0,2.458-0.203,3.335-0.61c0.876-0.406,1.613-1.047,2.213-1.924c0.598-0.876,1.111-1.849,1.539-2.918
		c0.427-1.068,0.77-2.427,1.026-4.073c0.257-1.646,0.459-3.281,0.61-4.906c0.149-1.625,0.278-3.581,0.385-5.869
		c0.106-2.287,0.182-4.436,0.224-6.446c0.213-5.729,0.47-10.732,0.77-15.008c-1.882,0.086-3.079,0.128-3.592,0.128
		c-2.437,0-3.656-1.24-3.656-3.72c0-1.026,0.128-2.052,0.385-3.078c2.95,0.684,6.359,1.026,10.23,1.026
		c3.869,0,8.049-0.683,12.539-2.052c-0.215,2.052-1.016,3.646-2.405,4.778c-1.39,1.133-2.79,1.806-4.201,2.02
		c-0.813,0.172-1.561,0.279-2.245,0.321c-0.898,8.937-1.529,16.141-1.892,21.614c-0.364,5.474-0.994,9.781-1.892,12.924
		c-0.898,3.143-2.053,5.515-3.464,7.119s-2.876,2.726-4.393,3.367c-1.518,0.641-3.218,0.962-5.099,0.962
		c-3.763,0-6.606-1.059-8.53-3.175c-1.924-2.117-2.886-4.65-2.886-7.6c0-2.052,0.61-3.837,1.828-5.356
		c1.219-1.517,2.918-2.277,5.099-2.277c1.111,0,2.159,0.343,3.143,1.026c-1.112,0.941-1.978,2.16-2.597,3.656
		C76.052,167.898,75.743,169.416,75.743,170.955z"/>
	<path fill="#4D5A69" d="M104.941,175.701c0-0.609,0.882-2.878,2.646-6.807c1.763-3.928,3.808-8.434,6.133-13.517
		c2.325-5.082,3.904-8.714,4.738-10.895l1.059-2.742c-0.514-0.77-1.075-1.459-1.684-2.068c0.994-0.385,1.94-0.577,2.838-0.577
		c2.02,0,3.591,1.283,4.714,3.848c0.705,1.635,1.651,5.292,2.838,10.967c0.031,0.065,0.079,0.273,0.144,0.626
		c0.064,0.353,0.393,1.98,0.986,4.882c0.593,2.903,1.002,4.827,1.227,5.772c0.224,0.946,0.609,2.398,1.155,4.353
		c0.866,3.303,1.956,5.869,3.271,7.697c-1.507,0.897-2.75,1.347-3.728,1.347c-0.979,0-1.684-0.297-2.117-0.89
		c-0.433-0.593-0.835-1.507-1.203-2.742c-0.369-1.234-1.147-4.673-2.333-10.318c-0.706,1.091-2.117,1.668-4.233,1.732l-8.563,0.337
		c-1.828,4.939-3.159,9.172-3.992,12.699C106.24,178.314,104.941,177.08,104.941,175.701z M121.2,146.021
		c-3.688,8.755-6.045,14.448-7.071,17.077h11.16C123.781,155.754,122.419,150.062,121.2,146.021z"/>
	<path fill="#4D5A69" d="M148.546,178.226c-0.786,0.176-1.507,0.265-2.165,0.265c-0.658,0-1.034-0.241-1.131-0.721
		c-0.577-1.988-1.443-5.876-2.597-11.665c-1.155-5.788-2.317-11.04-3.488-15.754c-1.171-4.714-2.301-7.841-3.391-9.381
		c1.347-0.834,2.469-1.251,3.367-1.251c1.667,0,2.83,0.946,3.488,2.838c0.657,1.893,1.739,7.055,3.247,15.489
		c0.096,0.77,0.569,3.183,1.419,7.239c0.849,4.057,1.371,6.614,1.563,7.673c2.117-4.682,4.474-10.927,7.071-18.736
		c2.598-7.809,3.896-12.884,3.896-15.225c3.143,0.577,4.714,1.764,4.714,3.56c0,1.315-0.907,4.097-2.718,8.346
		c-1.812,4.25-3.993,9.14-6.542,14.672c-2.55,5.532-4.305,9.613-5.268,12.242C149.821,177.913,149.331,178.05,148.546,178.226z"/>
	<path fill="#4D5A69" d="M163.915,175.701c0-0.609,0.882-2.878,2.646-6.807c1.763-3.928,3.808-8.434,6.133-13.517
		c2.325-5.082,3.904-8.714,4.738-10.895l1.059-2.742c-0.514-0.77-1.075-1.459-1.684-2.068c0.994-0.385,1.94-0.577,2.838-0.577
		c2.02,0,3.591,1.283,4.714,3.848c0.705,1.635,1.651,5.292,2.838,10.967c0.031,0.065,0.079,0.273,0.144,0.626
		c0.064,0.353,0.393,1.98,0.986,4.882c0.593,2.903,1.002,4.827,1.227,5.772c0.224,0.946,0.609,2.398,1.155,4.353
		c0.866,3.303,1.956,5.869,3.271,7.697c-1.507,0.897-2.75,1.347-3.728,1.347c-0.979,0-1.684-0.297-2.117-0.89
		c-0.433-0.593-0.835-1.507-1.203-2.742c-0.369-1.234-1.147-4.673-2.333-10.318c-0.706,1.091-2.117,1.668-4.233,1.732l-8.563,0.337
		c-1.828,4.939-3.159,9.172-3.992,12.699C165.214,178.314,163.915,177.08,163.915,175.701z M180.174,146.021
		c-3.688,8.755-6.045,14.448-7.071,17.077h11.16C182.755,155.754,181.392,150.062,180.174,146.021z"/>
</g>
<g>
	<path fill="#4D5A69" d="M437.666,133.607l-4.884-0.067c-1.033,0-2.055,0.034-3.065,0.101c-0.561,4.02-0.842,6.994-0.842,8.925
		c0,1.931,0.157,3.267,0.471,4.008c-1.392-0.494-2.374-1.162-2.947-2.004c-0.572-0.842-0.858-1.83-0.858-2.964
		c0-1.133,0.118-2.593,0.354-4.378c0.236-1.785,0.375-2.812,0.421-3.082c-0.764,0.18-1.336,0.337-1.718,0.471
		c-0.045-0.404-0.067-0.83-0.067-1.28c0-1.28,0.741-2.032,2.223-2.257c0.494-3.817,0.741-7.084,0.741-9.801
		c0-0.673-0.045-1.594-0.135-2.762c1.706,0.09,2.773,0.494,3.2,1.213c0.224,0.404,0.371,0.792,0.438,1.162
		c0.067,0.371,0.101,1.005,0.101,1.903c0,0.898-0.163,2.437-0.488,4.614c-0.326,2.178-0.5,3.368-0.522,3.57
		c3.996,0,7.589-0.034,10.778-0.101c0.493-3.75,0.741-6.949,0.741-9.599c0-0.673-0.045-1.594-0.134-2.762
		c1.706,0.09,2.773,0.494,3.199,1.213c0.224,0.404,0.371,0.792,0.438,1.162c0.067,0.371,0.101,1.005,0.101,1.903
		c0,0.898-0.371,3.885-1.112,8.959c-0.741,5.075-1.112,8.628-1.112,10.66c0,2.032,0.157,3.418,0.472,4.159
		c-1.393-0.494-2.375-1.162-2.947-2.004c-0.573-0.842-0.859-1.83-0.859-2.964c0-1.133,0.236-3.44,0.707-6.921l0.471-3.435
		C440.495,132.822,439.439,133.607,437.666,133.607z"/>
	<path fill="#4D5A69" d="M449.378,127.115c0-0.37,0.059-0.732,0.177-1.086c1.768,0.219,3.789,0.329,6.062,0.329
		c2.274,0,4.614-0.219,7.023-0.657c-0.236,1.566-1.213,2.417-2.931,2.552c-0.892,0.084-1.793,0.152-2.703,0.202
		c-0.017,0.657-0.299,2.93-0.846,6.82s-0.821,6.564-0.821,8.02c0,1.457,0.117,2.463,0.354,3.019
		c-1.044-0.371-1.781-0.872-2.21-1.503c-0.43-0.632-0.644-1.389-0.644-2.273s0.223-2.939,0.669-6.163
		c0.446-3.225,0.703-5.822,0.77-7.793c-1.465,0.05-2.728,0.076-3.789,0.076C449.748,128.656,449.378,128.143,449.378,127.115z"/>
	<path fill="#4D5A69" d="M482.519,126.143c0.404,0.497,0.606,1.179,0.606,2.046c0,0.867-0.278,3.204-0.834,7.01
		c-0.556,3.806-0.834,6.471-0.834,7.995c0,1.524,0.118,2.564,0.354,3.12c-1.111-0.371-1.882-0.867-2.311-1.49
		s-0.644-1.364-0.644-2.223c0-0.859,0.19-2.669,0.568-5.431c0.379-2.762,0.627-4.866,0.745-6.315
		c-0.691,1.33-1.84,3.217-3.448,5.658c-1.608,2.442-2.539,3.865-2.791,4.269c-0.404,0.236-0.825,0.354-1.263,0.354
		c-0.792,0-1.237-0.143-1.339-0.43c-0.185-0.471-0.476-1.225-0.872-2.261c-0.396-1.036-0.72-1.882-0.972-2.539
		c-0.741-1.852-1.406-3.41-1.995-4.673c-0.017,0.118-0.223,1.739-0.619,4.863c-0.396,3.124-0.594,5.612-0.594,7.465
		c0,0.522,0.033,1.221,0.101,2.097c-1.752,0-2.627-0.531-2.627-1.591c0-0.152,0.324-2.438,0.972-6.858
		c0.648-4.421,0.972-7.498,0.972-9.232v-0.126c-0.488-0.791-1.002-1.44-1.54-1.945c0.404-0.438,0.901-0.657,1.49-0.657
		c1.145,0,2.067,0.644,2.766,1.932c0.698,1.288,2.252,5.107,4.661,11.455c0.05,0.101,0.084,0.177,0.101,0.227
		c0.152-0.236,0.564-0.842,1.238-1.819c0.673-0.976,1.183-1.73,1.528-2.261c0.345-0.53,0.821-1.288,1.427-2.273
		c0.606-0.985,1.078-1.831,1.415-2.539c0.943-1.92,1.516-3.486,1.717-4.698C481.441,125.356,482.114,125.646,482.519,126.143z"/>
	<path fill="#4D5A69" d="M488.051,144.014c-0.152-0.404-0.227-0.968-0.227-1.692c0-0.724,0.244-2.863,0.732-6.416
		c0.488-3.553,0.732-6.407,0.732-8.563c0-0.505-0.033-1.196-0.101-2.071c1.279,0.067,2.08,0.371,2.4,0.909
		c0.168,0.303,0.278,0.594,0.328,0.872c0.05,0.278,0.076,0.716,0.076,1.313c0,0.598-0.274,2.846-0.821,6.745
		c-0.547,3.899-0.829,6.673-0.846,8.323c0.084-0.017,0.236-0.025,0.454-0.025c3.638,0,6.348-0.253,8.134-0.758
		c-0.118,0.977-0.451,1.735-0.998,2.273c-0.548,0.539-1.234,0.808-2.059,0.808c-0.236,0-0.964-0.055-2.185-0.164
		s-2.404-0.164-3.549-0.164c-1.145,0-2.29,0.11-3.435,0.328C486.905,144.991,487.36,144.419,488.051,144.014z"/>
</g>
<g>
	<path fill="#4D5A69" d="M58.151,316.117c0.908,0.817,1.915,1.628,3.02,2.43c1.105,0.802,2.21,1.612,3.315,2.43
		c1.105,0.818,2.112,1.651,3.02,2.498c2.059,1.907,3.088,4.012,3.088,6.312c0,2.846-1.082,5.223-3.247,7.13
		c-2.165,1.908-5.018,2.861-8.56,2.861c-3.542,0-6.267-0.803-8.175-2.407c-1.907-1.604-2.861-3.512-2.861-5.722
		c0-1.635,0.484-2.959,1.453-3.974c0.969-1.014,2.225-1.521,3.769-1.521c0.424,0,0.832,0.061,1.226,0.182
		c-0.939,1.423-1.408,2.945-1.408,4.564c0,1.62,0.56,3.005,1.68,4.156c1.12,1.151,2.8,1.726,5.041,1.726
		c1.604,0,3.035-0.492,4.292-1.476c1.256-0.984,1.884-2.353,1.884-4.11c0-1.151-0.379-2.278-1.135-3.384
		c-0.757-1.104-1.696-2.081-2.815-2.929c-1.121-0.847-2.347-1.793-3.678-2.838c-1.333-1.044-2.559-2.05-3.679-3.019
		c-1.12-0.969-2.059-2.149-2.815-3.543c-0.757-1.392-1.135-2.845-1.135-4.359c0-2.876,0.976-5.154,2.929-6.835
		c1.952-1.68,4.775-2.521,8.47-2.521c2.997,0,5.351,0.795,7.061,2.385c1.71,1.589,2.566,3.24,2.566,4.95
		c0,1.711-0.462,3.111-1.385,4.201c-0.924,1.09-2.188,1.635-3.792,1.635c-0.545,0-1.075-0.061-1.59-0.182
		c1.483-1.574,2.225-3.239,2.225-4.995c0-1.755-0.545-3.08-1.635-3.974c-1.09-0.893-2.475-1.34-4.156-1.34
		c-1.68,0-3.111,0.485-4.292,1.454c-1.181,0.969-1.771,2.437-1.771,4.405C55.063,312.272,56.092,314.209,58.151,316.117z"/>
	<path fill="#4D5A69" d="M83.287,314.97l0.034,0.409c0,0.863-0.323,3.685-0.971,8.464c-0.647,4.78-0.971,8.771-0.971,11.972
		c0,1.43,0.068,2.543,0.204,3.338c-0.545,0.045-0.84,0.068-0.886,0.068c-1.022,0-1.783-0.233-2.282-0.698
		c-0.5-0.465-0.749-1.226-0.749-2.282c0-1.056,0.38-4.28,1.141-9.673c0.761-5.392,1.141-9.241,1.141-11.546
		c0-2.304-0.159-3.809-0.477-4.513c0.727,0.091,1.402,0.369,2.027,0.835c0.624,0.466,1.095,1.084,1.413,1.856
		c1.726-0.931,3.65-1.396,5.773-1.396c2.123,0,3.792,0.653,5.007,1.958c1.214,1.306,1.822,2.912,1.822,4.82
		c0,2.43-0.886,4.615-2.657,6.556c-1.771,1.942-4.156,2.912-7.153,2.912c-0.681,0-1.306-0.045-1.873-0.136l-0.102-1.09
		c1.521,0,2.849-0.227,3.985-0.682c1.135-0.454,1.998-1.056,2.589-1.805c1.158-1.452,1.737-3.155,1.737-5.109
		c0-1.407-0.449-2.583-1.345-3.525c-0.897-0.942-2.197-1.413-3.9-1.413C85.774,314.289,84.604,314.516,83.287,314.97z"/>
	<path fill="#4D5A69" d="M99.397,338.522c-0.5-0.465-0.749-1.226-0.749-2.282c0-1.056,0.38-4.28,1.141-9.673
		c0.761-5.392,1.141-9.241,1.141-11.546c0-2.304-0.159-3.809-0.477-4.513c1.816,0.182,2.997,1.078,3.542,2.69
		c1.68-0.908,3.519-1.362,5.518-1.362c1.998,0,3.621,0.642,4.871,1.924c1.248,1.283,1.873,2.771,1.873,4.462
		c0,1.692-0.506,3.258-1.516,4.7c-1.01,1.442-2.549,2.504-4.615,3.184l0.477,1.465c0.818,2.475,1.998,4.933,3.542,7.374
		c1.544,2.441,2.804,4.104,3.78,4.99c-0.477,0.227-1.164,0.341-2.06,0.341c-0.897,0-1.828-0.398-2.793-1.192
		c-0.965-0.795-1.845-1.919-2.64-3.372c-1.362-2.543-2.589-5.518-3.678-8.924c-0.818,0.046-1.442,0.068-1.873,0.068l-0.102-1.226
		c2.543-0.09,4.513-0.829,5.909-2.214c1.397-1.384,2.095-3.019,2.095-4.905c0-1.203-0.403-2.202-1.209-2.997
		c-0.806-0.795-1.89-1.191-3.253-1.191c-1.362,0-2.702,0.238-4.019,0.715c0,0.885-0.323,3.759-0.971,8.618
		s-0.971,8.912-0.971,12.159c0,1.43,0.068,2.543,0.204,3.338c-0.545,0.045-0.84,0.068-0.886,0.068
		C100.657,339.221,99.896,338.988,99.397,338.522z"/>
	<path fill="#4D5A69" d="M127.156,313.727c0.068,0.375,0.102,1.016,0.102,1.925s-0.375,3.929-1.124,9.06
		c-0.749,5.132-1.124,8.725-1.124,10.78c0,2.056,0.159,3.457,0.477,4.207c-1.408-0.5-2.401-1.175-2.98-2.027
		s-0.869-1.85-0.869-2.997c0-1.146,0.238-3.479,0.715-6.999c0.84-5.836,1.26-10.354,1.26-13.556c0-0.681-0.046-1.612-0.136-2.793
		c1.726,0.091,2.804,0.5,3.236,1.225C126.94,312.96,127.087,313.352,127.156,313.727z"/>
	<path fill="#4D5A69" d="M136.522,335.985c0,0.704,0.045,1.646,0.136,2.827c-2.362,0-3.542-0.715-3.542-2.146
		c0-0.227,0.437-3.315,1.311-9.265c0.874-5.949,1.311-10.081,1.311-12.398l-0.204-0.306c-0.409-0.613-0.801-1.056-1.175-1.329
		c-0.374-0.272-0.721-0.505-1.038-0.698c-0.319-0.193-0.5-0.312-0.545-0.358c0.931-0.659,1.839-0.987,2.725-0.987
		c1.589,0,2.838,0.681,3.746,2.043c1.294,1.976,3.485,6.143,6.574,12.501c1.998,4.11,3.531,6.948,4.598,8.515
		c0.045-1.408,0.363-4.45,0.954-9.129c0.59-4.677,0.886-8.389,0.886-11.138c0-0.704-0.046-1.623-0.136-2.759
		c2.338,0,3.508,0.693,3.508,2.078c0,0.25-0.431,3.417-1.294,9.503s-1.294,10.298-1.294,12.637c0,0.84,0.023,1.453,0.068,1.839
		c0.181,0.159,0.477,0.353,0.886,0.579c-1.181,0.908-2.271,1.362-3.27,1.362c-0.999,0-1.885-0.67-2.657-2.009
		c-0.387-0.568-1.124-1.885-2.214-3.952c-3.837-7.334-6.392-12.113-7.664-14.339c-0.045,0.545-0.335,2.872-0.868,6.982
		C136.789,330.15,136.522,333.465,136.522,335.985z"/>
	<path fill="#4D5A69" d="M174.533,327.947l-0.034-0.852l-0.068-0.852c0.409-0.046,0.829-0.069,1.26-0.069
		c1.044,0,1.771,0.222,2.18,0.664c0.409,0.443,0.613,1.198,0.613,2.265c0,6.926-1.17,12.33-3.508,16.213
		c-0.817,1.34-1.879,2.43-3.185,3.27c-1.306,0.84-2.788,1.26-4.445,1.26c-2.248,0-3.94-0.608-5.075-1.822
		c-1.136-1.215-1.703-2.566-1.703-4.053s0.335-2.657,1.005-3.508c0.669-0.852,1.504-1.277,2.504-1.277
		c0.635,0,1.226,0.193,1.771,0.579c-0.976,1.34-1.465,2.668-1.465,3.986c0,2.747,1.101,4.121,3.304,4.121
		c2.202,0,3.871-1.294,5.007-3.883c1.135-2.589,1.805-6.199,2.01-10.831c-0.818,1.476-1.839,2.594-3.066,3.355
		c-1.226,0.761-2.509,1.141-3.849,1.141c-2.135,0-3.957-0.886-5.467-2.657c-1.51-1.771-2.265-4.235-2.265-7.391
		c0-4.36,1.056-8.128,3.168-11.308c1.044-1.566,2.389-2.81,4.036-3.729c1.646-0.92,3.525-1.38,5.637-1.38
		c2.112,0,3.718,0.574,4.82,1.72c1.101,1.147,1.652,2.532,1.652,4.156c0,1.624-0.472,2.895-1.414,3.815
		c-0.942,0.92-2.061,1.379-3.355,1.379c-1.885,0-3.304-0.658-4.258-1.975c0.613,0.159,1.192,0.238,1.737,0.238
		c1.294,0,2.31-0.386,3.049-1.158c0.737-0.772,1.107-1.663,1.107-2.674c0-1.01-0.341-1.85-1.022-2.521
		c-0.681-0.669-1.646-1.005-2.895-1.005c-1.658,0-3.162,0.761-4.513,2.282c-1.351,1.522-2.373,3.361-3.065,5.518
		c-0.693,2.158-1.039,4.411-1.039,6.761c0,2.35,0.505,4.195,1.516,5.535c1.01,1.34,2.253,2.01,3.73,2.01
		c1.476,0,2.776-0.664,3.9-1.993C173.971,331.949,174.533,330.173,174.533,327.947z"/>
</g>
<g>
	<path fill="#4D5A69" d="M412.489,276.829c-0.769-0.716-1.153-1.887-1.153-3.512c0-1.624,0.585-6.585,1.755-14.883
		c1.17-8.297,1.756-14.219,1.756-17.765c0-3.546-0.245-5.861-0.734-6.944c2.794,0.281,4.611,1.66,5.45,4.14
		c2.585-1.397,5.415-2.097,8.49-2.097c3.073,0,5.572,0.988,7.494,2.961c1.921,1.974,2.882,4.263,2.882,6.865
		c0,2.603-0.778,5.015-2.332,7.232c-1.555,2.219-3.923,3.852-7.101,4.9l0.734,2.253c1.257,3.808,3.074,7.59,5.45,11.346
		c2.375,3.756,4.315,6.314,5.817,7.677c-0.734,0.349-1.79,0.525-3.17,0.525c-1.38,0-2.812-0.612-4.297-1.835
		c-1.485-1.222-2.839-2.951-4.062-5.188c-2.096-3.913-3.982-8.489-5.659-13.73c-1.258,0.07-2.219,0.105-2.882,0.105l-0.158-1.887
		c3.913-0.14,6.944-1.275,9.092-3.407c2.149-2.131,3.223-4.646,3.223-7.546c0-1.852-0.621-3.389-1.86-4.612
		c-1.241-1.222-2.909-1.834-5.005-1.834c-2.096,0-4.158,0.367-6.184,1.1c0,1.362-0.497,5.782-1.494,13.258
		c-0.995,7.477-1.493,13.713-1.493,18.709c0,2.201,0.105,3.913,0.315,5.136c-0.838,0.07-1.293,0.105-1.363,0.105
		C414.428,277.903,413.257,277.544,412.489,276.829z"/>
	<path fill="#4D5A69" d="M457.61,263.649l-3.498-0.04c-1.284,0-2.266,0.026-2.948,0.079c-0.42,3.721-0.629,7.062-0.629,10.022
		c6.053,0,10.428-0.393,13.128-1.179c-0.184,1.52-0.702,2.699-1.553,3.537c-0.851,0.838-1.919,1.257-3.203,1.257
		c-0.368,0-1.5-0.085-3.4-0.255c-1.9-0.171-3.741-0.256-5.522-0.256c-1.783,0-3.564,0.171-5.345,0.511
		c0.209-0.864,0.707-1.611,1.494-2.24c-0.026-0.157-0.039-0.655-0.039-1.493c0-0.838,0.38-3.943,1.14-9.315
		c-0.734,0.183-1.363,0.38-1.887,0.589c-0.053-0.472-0.078-0.851-0.078-1.14c0-1.598,0.812-2.595,2.437-2.987
		c0.602-4.402,0.93-7.914,0.983-10.534c-0.682-0.052-1.159-0.222-1.435-0.511c-0.275-0.288-0.413-0.805-0.413-1.552
		s0.105-1.408,0.315-1.985c2.699,0.368,5.634,0.55,8.804,0.55c3.17,0,6.197-0.288,9.079-0.865c-0.157,0.996-0.518,1.802-1.081,2.417
		c-0.564,0.616-1.461,1.055-2.692,1.317c-1.233,0.262-2.254,0.42-3.066,0.472c-1.467,0.131-3.275,0.196-5.424,0.196
		c-0.026,0.943-0.432,4.389-1.218,10.337c1.624,0.053,2.804,0.078,3.537,0.078c2.306,0,3.943-0.379,4.913-1.14
		c0.052,0.42,0.078,0.761,0.078,1.022C460.086,262.613,459.261,263.649,457.61,263.649z"/>
	<path fill="#4D5A69" d="M466.492,275.282c0-0.497,0.721-2.352,2.162-5.561c1.441-3.21,3.111-6.891,5.011-11.045
		c1.9-4.152,3.19-7.12,3.872-8.902l0.865-2.24c-0.42-0.629-0.879-1.192-1.376-1.691c0.812-0.314,1.585-0.472,2.319-0.472
		c1.65,0,2.934,1.048,3.851,3.145c0.577,1.336,1.349,4.324,2.319,8.961c0.026,0.053,0.065,0.223,0.118,0.511
		s0.321,1.618,0.806,3.989c0.484,2.372,0.819,3.944,1.002,4.717s0.497,1.959,0.943,3.557c0.707,2.699,1.598,4.795,2.672,6.289
		c-1.232,0.733-2.247,1.1-3.046,1.1c-0.799,0-1.376-0.242-1.729-0.727c-0.354-0.485-0.682-1.232-0.983-2.241
		c-0.302-1.008-0.937-3.819-1.906-8.431c-0.577,0.891-1.73,1.363-3.459,1.415l-6.997,0.275c-1.494,4.035-2.581,7.494-3.262,10.376
		C467.554,277.418,466.492,276.409,466.492,275.282z M479.777,251.032c-3.013,7.153-4.939,11.805-5.777,13.953h9.118
		C481.886,258.985,480.773,254.334,479.777,251.032z"/>
	<path fill="#4D5A69" d="M504.735,277.602c-2.909,0-5.359-1.179-7.35-3.537c-1.992-2.358-2.987-5.791-2.987-10.298
		c0-3.327,0.537-6.36,1.611-9.099c1.074-2.737,2.758-4.978,5.05-6.72c2.293-1.743,4.88-2.614,7.763-2.614
		c2.882,0,4.978,0.702,6.289,2.103c1.309,1.401,1.965,3.007,1.965,4.814c0,1.808-0.459,3.257-1.376,4.343
		c-0.918,1.087-2.109,1.632-3.576,1.632c-0.472,0-1.048-0.105-1.73-0.315c0.602-0.629,1.134-1.513,1.592-2.654
		c0.458-1.14,0.688-2.285,0.688-3.439c0-1.152-0.309-2.142-0.924-2.967c-0.616-0.825-1.592-1.238-2.928-1.238
		c-2.018,0-3.82,0.832-5.404,2.496c-1.586,1.664-2.778,3.708-3.576,6.131c-0.8,2.424-1.199,4.92-1.199,7.488
		c0,3.616,0.694,6.321,2.083,8.116c1.389,1.795,3.184,2.693,5.385,2.693c1.467,0,2.974-0.445,4.521-1.337
		c1.546-0.891,2.816-2.175,3.812-3.852c0.393,0,0.76,0.118,1.101,0.354c0.339,0.235,0.511,0.472,0.511,0.707
		c-1.468,2.778-3.315,4.704-5.542,5.778C508.574,277.13,506.648,277.602,504.735,277.602z"/>
	<path fill="#4D5A69" d="M520.968,248.359c0-0.576,0.091-1.14,0.275-1.69c2.752,0.341,5.896,0.511,9.433,0.511
		c3.538,0,7.179-0.34,10.927-1.022c-0.368,2.437-1.887,3.761-4.56,3.97c-1.389,0.131-2.79,0.236-4.205,0.315
		c-0.026,1.022-0.466,4.559-1.317,10.612c-0.851,6.053-1.277,10.213-1.277,12.48s0.183,3.831,0.55,4.696
		c-1.625-0.577-2.771-1.356-3.439-2.339c-0.669-0.983-1.002-2.161-1.002-3.537c0-1.376,0.346-4.572,1.041-9.59
		c0.693-5.018,1.094-9.06,1.198-12.126c-2.279,0.078-4.244,0.118-5.896,0.118C521.544,250.757,520.968,249.958,520.968,248.359z"/>
</g>
<g>
	<path fill="#4D5A69" d="M295.24,35.134l-0.027-0.69l-0.055-0.69c0.331-0.037,0.672-0.055,1.021-0.055
		c0.846,0,1.435,0.179,1.767,0.538c0.331,0.359,0.496,0.971,0.496,1.835c0,5.612-0.948,9.99-2.842,13.136
		c-0.662,1.085-1.523,1.969-2.58,2.649c-1.058,0.681-2.259,1.021-3.602,1.021c-1.821,0-3.192-0.493-4.112-1.477
		c-0.92-0.984-1.38-2.079-1.38-3.284c0-1.205,0.271-2.153,0.814-2.843c0.542-0.69,1.218-1.035,2.028-1.035
		c0.515,0,0.994,0.156,1.435,0.469c-0.791,1.085-1.187,2.162-1.187,3.229c0,2.226,0.892,3.339,2.677,3.339
		c1.784,0,3.137-1.049,4.057-3.146c0.919-2.097,1.463-5.023,1.628-8.776c-0.663,1.196-1.49,2.102-2.484,2.718
		c-0.994,0.617-2.033,0.924-3.119,0.924c-1.73,0-3.206-0.717-4.429-2.152c-1.224-1.435-1.835-3.431-1.835-5.989
		c0-3.533,0.856-6.586,2.567-9.162c0.846-1.27,1.936-2.277,3.27-3.022c1.334-0.745,2.856-1.118,4.567-1.118
		c1.711,0,3.013,0.465,3.905,1.394c0.892,0.929,1.339,2.052,1.339,3.367c0,1.315-0.382,2.346-1.145,3.091
		c-0.764,0.745-1.67,1.118-2.718,1.118c-1.527,0-2.677-0.533-3.449-1.601c0.497,0.129,0.966,0.193,1.408,0.193
		c1.048,0,1.872-0.313,2.47-0.938c0.597-0.625,0.897-1.348,0.897-2.166c0-0.818-0.276-1.499-0.828-2.042
		c-0.552-0.543-1.334-0.814-2.346-0.814c-1.343,0-2.562,0.616-3.657,1.849c-1.095,1.233-1.923,2.723-2.484,4.471
		c-0.561,1.748-0.842,3.574-0.842,5.478c0,1.904,0.409,3.399,1.228,4.485c0.818,1.086,1.826,1.628,3.022,1.628
		c1.196,0,2.249-0.538,3.16-1.615C294.785,38.376,295.24,36.937,295.24,35.134z"/>
	<path fill="#4D5A69" d="M306.21,28.659c0.041,0.228,0.062,0.618,0.062,1.169c0,0.552-0.228,2.387-0.683,5.506
		c-0.455,3.118-0.683,5.302-0.683,6.551c0,1.249,0.096,2.101,0.29,2.556c-0.856-0.304-1.459-0.714-1.811-1.232
		c-0.352-0.517-0.528-1.124-0.528-1.821c0-0.696,0.145-2.114,0.434-4.254c0.51-3.546,0.766-6.292,0.766-8.238
		c0-0.414-0.028-0.98-0.083-1.697c1.048,0.055,1.704,0.304,1.967,0.745C306.079,28.193,306.168,28.431,306.21,28.659z"/>
	<path fill="#4D5A69" d="M309.087,28.71c0-0.303,0.048-0.6,0.145-0.89c1.449,0.18,3.105,0.269,4.967,0.269
		c1.863,0,3.781-0.179,5.754-0.538c-0.194,1.283-0.994,1.98-2.401,2.091c-0.731,0.069-1.469,0.124-2.214,0.166
		c-0.014,0.538-0.245,2.401-0.694,5.588c-0.448,3.188-0.672,5.378-0.672,6.572c0,1.194,0.096,2.018,0.29,2.473
		c-0.856-0.304-1.459-0.714-1.811-1.232c-0.352-0.517-0.528-1.138-0.528-1.863s0.182-2.408,0.548-5.05
		c0.365-2.642,0.576-4.771,0.631-6.385c-1.2,0.041-2.235,0.062-3.105,0.062C309.39,29.973,309.087,29.552,309.087,28.71z"/>
</g>
</svg>
