<?xml version="1.0" encoding="utf-8"?>
<!-- Generator: Adobe Illustrator 17.0.0, SVG Export Plug-In . SVG Version: 6.00 Build 0)  -->
<!DOCTYPE svg PUBLIC "-//W3C//DTD SVG 1.1//EN" "http://www.w3.org/Graphics/SVG/1.1/DTD/svg11.dtd">
<svg version="1.1" id="Capa_1" xmlns="http://www.w3.org/2000/svg" xmlns:xlink="http://www.w3.org/1999/xlink" x="0px" y="0px"
	 width="590px" height="590px" viewBox="0 0 590 590" enable-background="new 0 0 590 590" xml:space="preserve">
<g>
	<path fill="#D8DCE1" d="M0,154.414v377.969c0,25.415,20.679,46.094,46.094,46.094h497.813c25.415,0,46.094-20.679,46.094-46.094
		V154.414H0z"/>
</g>
<g>
	<path fill="#FF4F19" d="M543.906,25.352H46.094C20.679,25.352,0,46.03,0,71.445v82.969h590V71.445
		C590,46.03,569.32,25.352,543.906,25.352z M73.75,117.539c-15.274,0-27.656-12.382-27.656-27.656S58.476,62.227,73.75,62.227
		s27.656,12.382,27.656,27.656S89.024,117.539,73.75,117.539z M516.25,117.539c-15.274,0-27.656-12.382-27.656-27.656
		s12.382-27.656,27.656-27.656c15.274,0,27.656,12.382,27.656,27.656S531.524,117.539,516.25,117.539z"/>
</g>
<g>
	<path fill="#FFFFFF" d="M295,230.629c-21.401,0-38.805,17.404-38.805,38.805s17.404,38.805,38.805,38.805
		s38.805-17.404,38.805-38.805S316.401,230.629,295,230.629z"/>
</g>
<g>
	<path fill="#FFFFFF" d="M197.988,230.629c-21.401,0-38.805,17.404-38.805,38.805s17.404,38.805,38.805,38.805
		s38.805-17.404,38.805-38.805S219.389,230.629,197.988,230.629z"/>
</g>
<g>
	<path fill="#FFFFFF" d="M100.977,230.629c-21.401,0-38.805,17.404-38.805,38.805s17.404,38.805,38.805,38.805
		s38.805-17.404,38.805-38.805S122.377,230.629,100.977,230.629z"/>
</g>
<g>
	<path fill="#FFFFFF" d="M392.012,230.629c-21.401,0-38.805,17.404-38.805,38.805s17.404,38.805,38.805,38.805
		c21.401,0,38.805-17.404,38.805-38.805S413.413,230.629,392.012,230.629z"/>
</g>
<g>
	<path fill="#FFFFFF" d="M489.023,308.238c21.401,0,38.805-17.404,38.805-38.805s-17.404-38.805-38.805-38.805
		c-21.401,0-38.805,17.404-38.805,38.805S467.621,308.238,489.023,308.238z"/>
</g>
<g>
	<path fill="#FFFFFF" d="M295,327.641c-21.401,0-38.805,17.404-38.805,38.805S273.599,405.25,295,405.25
		s38.805-17.404,38.805-38.805S316.401,327.641,295,327.641z"/>
</g>
<g>
	<path fill="#FFFFFF" d="M197.988,327.641c-21.401,0-38.805,17.404-38.805,38.805s17.404,38.805,38.805,38.805
		s38.805-17.404,38.805-38.805S219.389,327.641,197.988,327.641z"/>
</g>
<g>
	<path fill="#FFFFFF" d="M100.977,327.641c-21.401,0-38.805,17.404-38.805,38.805s17.404,38.805,38.805,38.805
		s38.805-17.404,38.805-38.805S122.377,327.641,100.977,327.641z"/>
</g>
<g>
	<path fill="#FFFFFF" d="M392.012,327.641c-21.401,0-38.805,17.404-38.805,38.805s17.404,38.805,38.805,38.805
		c21.401,0,38.805-17.404,38.805-38.805S413.413,327.641,392.012,327.641z"/>
</g>
<g>
	<path fill="#FF4F19" d="M489.023,327.641c-21.401,0-38.805,17.404-38.805,38.805s17.404,38.805,38.805,38.805
		c21.401,0,38.805-17.404,38.805-38.805S510.424,327.641,489.023,327.641z"/>
</g>
<g>
	<path fill="#FFFFFF" d="M295,424.652c-21.401,0-38.805,17.404-38.805,38.805c0,21.401,17.404,38.805,38.805,38.805
		s38.805-17.404,38.805-38.805C333.805,442.055,316.401,424.652,295,424.652z"/>
</g>
<g>
	<path fill="#FFFFFF" d="M197.988,424.652c-21.401,0-38.805,17.404-38.805,38.805c0,21.401,17.404,38.805,38.805,38.805
		s38.805-17.404,38.805-38.805C236.793,442.055,219.389,424.652,197.988,424.652z"/>
</g>
<g>
	<path fill="#FFFFFF" d="M100.977,424.652c-21.401,0-38.805,17.404-38.805,38.805c0,21.401,17.404,38.805,38.805,38.805
		s38.805-17.404,38.805-38.805C139.781,442.055,122.377,424.652,100.977,424.652z"/>
</g>
<g>
	<path fill="#FFFFFF" d="M392.012,424.652c-21.401,0-38.805,17.404-38.805,38.805c0,21.401,17.404,38.805,38.805,38.805
		c21.401,0,38.805-17.404,38.805-38.805C430.816,442.055,413.413,424.652,392.012,424.652z"/>
</g>
<g>
	<path fill="#FFFFFF" d="M489.023,424.652c-21.401,0-38.805,17.404-38.805,38.805c0,21.401,17.404,38.805,38.805,38.805
		c21.401,0,38.805-17.404,38.805-38.805C527.828,442.055,510.424,424.652,489.023,424.652z"/>
</g>
<g>
	<g>
		<path fill="#5C546A" d="M516.25,94.323c-9.38,0-16.99-6.214-16.99-13.884V15.645c0-7.67,7.61-13.884,16.99-13.884
			c9.38,0,16.99,6.214,16.99,13.884v64.794C533.24,88.109,525.63,94.323,516.25,94.323z"/>
	</g>
</g>
<g>
	<circle fill="#FF4F19" cx="100.977" cy="269.434" r="38.805"/>
</g>
<g>
	<circle fill="#FF9600" cx="295" cy="463.457" r="38.805"/>
</g>
<g>
	<circle fill="#FF4F19" cx="392.012" cy="366.445" r="38.805"/>
</g>
<g>
	<g>
		<path fill="#5C546A" d="M73.162,94.323c-9.38,0-16.99-6.214-16.99-13.884V15.645c0-7.67,7.61-13.884,16.99-13.884
			s16.99,6.214,16.99,13.884v64.794C90.152,88.109,82.542,94.323,73.162,94.323z"/>
	</g>
</g>
</svg>
